<?xml version="1.0" encoding="utf-8"?>
<!-- Generator: Adobe Illustrator 23.0.4, SVG Export Plug-In . SVG Version: 6.00 Build 0)  -->
<svg version="1.1" id="Layer_1" xmlns="http://www.w3.org/2000/svg" xmlns:xlink="http://www.w3.org/1999/xlink" x="0px" y="0px"
	 viewBox="0 0 224.5 123.4" style="enable-background:new 0 0 224.5 123.4;" xml:space="preserve">
<style type="text/css">
	.st0{display:none;fill:#FFFFFF;}
	.st1{display:none;fill:#1F3769;}
	.st2{fill:#1F3769;}
	.st3{fill:#FFFFFF;}
</style>
<rect x="0" class="st0" width="224.5" height="123.4"/>
<g>
	<rect x="65.7" y="58.3" class="st2" width="62.1" height="0.5"/>
	<g>
		<g>
			<path class="st2" d="M44.6,54.1c-3.5,0-7-0.9-10.1-2.7c-0.3-0.2-0.5-0.5-0.5-0.8V24.2c0-1.2,1-2.2,2.2-2.2H53
				c1.2,0,2.2,1,2.2,2.2v21.9l-0.4,0.2c-2.4,1.4-5,2.3-7.8,2.6l-0.9,0.1v-8.5c0-0.7,0.5-1.2,1.1-1.3l1.3-0.3v-1.3h-7.8v1.3l1.3,0.3
				c0.6,0.1,1.1,0.7,1.1,1.3v8.3c0,0.2-0.1,0.3-0.3,0.3h-1.1c-0.2,0-0.3-0.1-0.3-0.3v-8.1l-1.3-0.3c-0.6-0.1-1.1-0.7-1.1-1.3v-1.8
				c0-0.8,0.6-1.4,1.4-1.4h8.4c0.8,0,1.4,0.6,1.4,1.4v1.8c0,0.7-0.5,1.2-1.1,1.3l-1.3,0.3v6.4c2-0.3,4-1,5.8-2V24.2
				c0-0.3-0.2-0.5-0.5-0.5H36.2c-0.3,0-0.5,0.2-0.5,0.5v26c5.6,3.1,12.4,3,17.9,0c0.2-0.1,0.3,0,0.4,0.1l0.5,0.9
				c0.1,0.2,0,0.4-0.1,0.5C51.4,53.3,48,54.1,44.6,54.1z M47.5,40.8L47.5,40.8L47.5,40.8z M48.8,38.9L48.8,38.9L48.8,38.9z
				 M40.5,38.9L40.5,38.9L40.5,38.9z M44.6,35.1c-2.2,0-4-1.8-4-4s1.8-4,4-4c2.2,0,4,1.8,4,4S46.8,35.1,44.6,35.1z M44.6,28.9
				c-1.3,0-2.3,1-2.3,2.3c0,1.3,1,2.3,2.3,2.3c1.3,0,2.3-1,2.3-2.3C46.9,29.9,45.9,28.9,44.6,28.9z"/>
		</g>
	</g>
	<g>
		<path class="st2" d="M72.8,28.9L72,29v5.7h0.9v2.5h-1v-1.7h-6.3v-0.6l0.8-0.1V29l-0.8-0.1v-0.6h0.8h1h0.8v0.6L67.5,29v5.7H71V29
			l-0.8-0.1v-0.6h2.6V28.9z"/>
		<path class="st2" d="M76.1,35.6c-0.7,0-1.3-0.2-1.8-0.7c-0.4-0.5-0.7-1.1-0.7-1.9v-0.2c0-0.8,0.2-1.4,0.7-1.9s1-0.8,1.6-0.8
			c0.7,0,1.3,0.2,1.6,0.7c0.4,0.4,0.6,1,0.6,1.7V33h-3.5l0,0c0,0.5,0.1,0.9,0.4,1.3c0.3,0.3,0.6,0.5,1.1,0.5c0.3,0,0.6,0,0.9-0.1
			c0.2-0.1,0.5-0.2,0.6-0.4L78,35c-0.2,0.2-0.4,0.3-0.8,0.5S76.6,35.6,76.1,35.6z M76,30.8c-0.3,0-0.6,0.1-0.8,0.4
			c-0.2,0.3-0.4,0.6-0.4,1l0,0h2.5v-0.1c0-0.4-0.1-0.7-0.3-1C76.7,30.9,76.4,30.8,76,30.8z"/>
		<path class="st2" d="M79.2,30.8v-0.6h2.6v0.6L81,30.9v1.6h2.4v-1.6l-0.8-0.1v-0.6h0.8h1h0.8v0.6l-0.8,0.1v3.8l0.8,0.1v0.6h-2.6
			v-0.6l0.8-0.1v-1.5H81v1.5l0.8,0.1v0.6h-2.6v-0.6l0.8-0.1v-3.8L79.2,30.8z"/>
		<path class="st2" d="M91.1,30.1v1.6h-0.8l-0.1-0.8h-1.2v3.9l0.8,0.1v0.6h-2.6v-0.6l0.8-0.1v-3.9h-1.1l-0.1,0.8H86v-1.6H91.1z"/>
		<path class="st2" d="M91.9,36.9l0.8-0.1v-5.9l-0.8-0.1v-0.6h1.6l0.1,0.7c0.2-0.2,0.4-0.4,0.7-0.6c0.3-0.1,0.6-0.2,0.9-0.2
			c0.7,0,1.2,0.3,1.6,0.8c0.4,0.5,0.6,1.2,0.6,2.1V33c0,0.8-0.2,1.4-0.6,1.9c-0.4,0.5-0.9,0.7-1.5,0.7c-0.3,0-0.6-0.1-0.9-0.2
			c-0.3-0.1-0.5-0.3-0.6-0.5v1.9l0.8,0.1v0.6h-2.6V36.9z M96.3,32.9c0-0.6-0.1-1.1-0.4-1.5c-0.2-0.4-0.6-0.6-1.1-0.6
			c-0.3,0-0.5,0.1-0.7,0.2s-0.4,0.3-0.5,0.5v2.6c0.1,0.2,0.3,0.4,0.5,0.5c0.2,0.1,0.4,0.2,0.7,0.2c0.5,0,0.8-0.2,1.1-0.5
			c0.2-0.3,0.4-0.8,0.4-1.3V32.9z"/>
		<path class="st2" d="M100.6,28.9v-0.6h2.6v0.6l-0.8,0.1v5.7l0.8,0.1v0.6h-2.6v-0.6l0.8-0.1V29L100.6,28.9z"/>
		<path class="st2" d="M104,30.8v-0.6h2.6v0.6l-0.8,0.1v1.6h2.4v-1.6l-0.8-0.1v-0.6h0.8h1h0.8v0.6l-0.8,0.1v3.8l0.8,0.1v0.6h-2.6
			v-0.6l0.8-0.1v-1.5h-2.4v1.5l0.8,0.1v0.6H104v-0.6l0.8-0.1v-3.8L104,30.8z"/>
		<path class="st2" d="M114.6,30.2c0.1,0,0.2-0.1,0.4-0.1c0.1,0,0.3,0,0.4,0c0.6,0,1.1,0.3,1.4,0.8c0.3,0.5,0.5,1.2,0.5,2.1V33
			c0,0.8-0.2,1.4-0.5,1.9c-0.3,0.5-0.8,0.7-1.4,0.7c-0.2,0-0.3,0-0.4,0s-0.3-0.1-0.4-0.1v1.3l0.8,0.1v0.6h-2.6v-0.6l0.8-0.1v-1.3
			c-0.1,0-0.2,0.1-0.3,0.1c-0.1,0-0.2,0-0.4,0c-0.6,0-1.1-0.2-1.4-0.7c-0.3-0.5-0.5-1.1-0.5-1.9v-0.1c0-0.9,0.2-1.6,0.5-2.1
			c0.3-0.5,0.8-0.8,1.4-0.8c0.1,0,0.3,0,0.4,0c0.1,0,0.2,0.1,0.3,0.1v-1.6l-0.8-0.1v-0.6h1.8V30.2z M111.9,33c0,0.6,0.1,1,0.3,1.3
			c0.2,0.3,0.5,0.5,0.9,0.5c0.1,0,0.2,0,0.3,0c0.1,0,0.2,0,0.2-0.1v-3.9c-0.1,0-0.1,0-0.2,0c-0.1,0-0.2,0-0.3,0
			c-0.4,0-0.7,0.2-0.9,0.6s-0.3,0.9-0.3,1.5V33z M116.3,32.9c0-0.6-0.1-1.1-0.3-1.5c-0.2-0.4-0.5-0.6-1-0.6c-0.1,0-0.2,0-0.3,0
			c-0.1,0-0.2,0-0.2,0.1v3.9c0.1,0,0.1,0,0.2,0.1c0.1,0,0.2,0,0.3,0c0.4,0,0.7-0.2,1-0.5c0.2-0.3,0.3-0.8,0.3-1.3V32.9z"/>
		<path class="st2" d="M118.2,32.8c0-0.8,0.2-1.4,0.6-2c0.4-0.5,1-0.8,1.8-0.8c0.7,0,1.3,0.3,1.8,0.8c0.4,0.5,0.6,1.2,0.6,2v0.1
			c0,0.8-0.2,1.5-0.6,2c-0.4,0.5-1,0.8-1.8,0.8c-0.7,0-1.3-0.3-1.8-0.8s-0.6-1.2-0.6-2V32.8z M119.2,32.9c0,0.6,0.1,1,0.4,1.4
			c0.2,0.4,0.6,0.6,1.1,0.6c0.5,0,0.8-0.2,1.1-0.6c0.2-0.4,0.4-0.8,0.4-1.4v-0.1c0-0.6-0.1-1-0.4-1.4c-0.2-0.4-0.6-0.6-1.1-0.6
			s-0.8,0.2-1.1,0.6c-0.2,0.4-0.4,0.8-0.4,1.4V32.9z"/>
		<path class="st2" d="M123.8,36.9l0.8-0.1v-5.9l-0.8-0.1v-0.6h1.6l0.1,0.7c0.2-0.2,0.4-0.4,0.7-0.6c0.3-0.1,0.6-0.2,0.9-0.2
			c0.7,0,1.2,0.3,1.6,0.8c0.4,0.5,0.6,1.2,0.6,2.1V33c0,0.8-0.2,1.4-0.6,1.9c-0.4,0.5-0.9,0.7-1.5,0.7c-0.3,0-0.6-0.1-0.9-0.2
			c-0.3-0.1-0.5-0.3-0.6-0.5v1.9l0.8,0.1v0.6h-2.6V36.9z M128.2,32.9c0-0.6-0.1-1.1-0.4-1.5c-0.2-0.4-0.6-0.6-1.1-0.6
			c-0.3,0-0.5,0.1-0.7,0.2s-0.4,0.3-0.5,0.5v2.6c0.1,0.2,0.3,0.4,0.5,0.5c0.2,0.1,0.4,0.2,0.7,0.2c0.5,0,0.8-0.2,1.1-0.5
			c0.2-0.3,0.4-0.8,0.4-1.3V32.9z"/>
		<path class="st2" d="M133.9,34.2L133.9,34.2l1.8-4.1h1.2h0.8v0.6l-0.8,0.1v3.8l0.8,0.1v0.6h-2.6v-0.6l0.8-0.1v-3l0,0l-1.6,3.7
			h-0.7l-1.7-3.8l0,0v3l0.8,0.1v0.6h-2.6v-0.6l0.8-0.1v-3.8l-0.8-0.1v-0.6h0.8h1.3L133.9,34.2z"/>
		<path class="st2" d="M142.2,35.5c0-0.1-0.1-0.3-0.1-0.4s0-0.2,0-0.3c-0.2,0.2-0.4,0.4-0.7,0.6c-0.3,0.2-0.6,0.2-0.9,0.2
			c-0.6,0-1-0.1-1.3-0.4s-0.4-0.7-0.4-1.2c0-0.5,0.2-0.9,0.6-1.2c0.4-0.3,1-0.4,1.7-0.4h1v-0.6c0-0.3-0.1-0.6-0.3-0.7
			s-0.5-0.3-0.8-0.3c-0.2,0-0.5,0-0.6,0.1c-0.2,0.1-0.3,0.1-0.5,0.3l-0.1,0.6H139v-1c0.2-0.2,0.5-0.4,0.9-0.5
			c0.3-0.1,0.7-0.2,1.1-0.2c0.6,0,1.1,0.2,1.5,0.5s0.6,0.8,0.6,1.3v2.6c0,0.1,0,0.1,0,0.2c0,0.1,0,0.1,0,0.2l0.4,0.1v0.6H142.2z
			 M140.6,34.8c0.3,0,0.6-0.1,0.9-0.2c0.3-0.2,0.5-0.3,0.6-0.6v-0.9h-1c-0.4,0-0.7,0.1-1,0.3c-0.2,0.2-0.4,0.4-0.4,0.7
			c0,0.2,0.1,0.4,0.2,0.5C140.1,34.7,140.3,34.8,140.6,34.8z"/>
		<path class="st2" d="M149.3,30.1v4.6h0.7l-0.1,2.4H149v-1.6h-4.9v-0.6l0.8-0.1v-3.8l-0.8-0.1v-0.6h1.8h0.8v0.6l-0.8,0.1v3.8h2.4
			v-3.8l-0.8-0.1v-0.6h0.8H149.3z M150.1,30.1v0.6l-0.8,0.1v-0.8H150.1z"/>
		<path class="st2" d="M151,34.9l0.8-0.1v-3.8l-0.8-0.1v-0.6h1.8v4.6l0.8,0.1v0.6H151V34.9z M152.8,28.8h-1v-1h1V28.8z"/>
		<path class="st2" d="M157,30.1v0.6l-0.8,0.1v3l0,0l2.4-3.8h1h0.8v0.6l-0.8,0.1v3.8l0.8,0.1v0.6h-2.6v-0.6l0.8-0.1v-3l0,0l-2.4,3.8
			h-1.8v-0.6l0.8-0.1v-3.8l-0.8-0.1v-0.6h1.8H157z M158.9,27.8L158.9,27.8c0,0.4-0.1,0.7-0.4,1c-0.3,0.2-0.6,0.4-1.1,0.4
			c-0.5,0-0.8-0.1-1.1-0.4c-0.3-0.2-0.4-0.6-0.4-0.9l0,0h0.7c0,0.2,0.1,0.4,0.2,0.5s0.3,0.2,0.5,0.2c0.2,0,0.4-0.1,0.5-0.2
			c0.1-0.1,0.2-0.3,0.2-0.5H158.9z"/>
		<path class="st2" d="M161.3,30.8v-0.6h2.6v0.6l-0.8,0.1v1.6h2.4v-1.6l-0.8-0.1v-0.6h0.8h1h0.8v0.6l-0.8,0.1v3.8l0.8,0.1v0.6h-2.6
			v-0.6l0.8-0.1v-1.5h-2.4v1.5l0.8,0.1v0.6h-2.6v-0.6l0.8-0.1v-3.8L161.3,30.8z"/>
		<path class="st2" d="M168.2,32.8c0-0.8,0.2-1.4,0.6-2c0.4-0.5,1-0.8,1.8-0.8c0.7,0,1.3,0.3,1.8,0.8c0.4,0.5,0.6,1.2,0.6,2v0.1
			c0,0.8-0.2,1.5-0.6,2c-0.4,0.5-1,0.8-1.8,0.8c-0.7,0-1.3-0.3-1.8-0.8s-0.6-1.2-0.6-2V32.8z M169.2,32.9c0,0.6,0.1,1,0.4,1.4
			c0.2,0.4,0.6,0.6,1.1,0.6c0.5,0,0.8-0.2,1.1-0.6c0.2-0.4,0.4-0.8,0.4-1.4v-0.1c0-0.6-0.1-1-0.4-1.4c-0.2-0.4-0.6-0.6-1.1-0.6
			s-0.8,0.2-1.1,0.6c-0.2,0.4-0.4,0.8-0.4,1.4V32.9z"/>
		<path class="st2" d="M174.5,29.2h-1.1v-1h1.1V29.2z M173.9,30.8v-0.6h1.8v4.6l0.8,0.1v0.6h-2.6v-0.6l0.8-0.1v-3.8L173.9,30.8z
			 M176.8,29.2h-1.1v-1h1.1V29.2z"/>
		<path class="st2" d="M65.7,47.1l0.8-0.1v-5.7l-0.8-0.1v-0.6h7.1v0.6L72,41.3V47l0.8,0.1v0.6h-2.6v-0.6L71,47v-5.7h-3.5V47l0.8,0.1
			v0.6h-2.6V47.1z"/>
		<path class="st2" d="M73.6,47.1l0.8-0.1v-3.8L73.6,43v-0.6h1.8V47l0.8,0.1v0.6h-2.6V47.1z M75.4,41h-1v-1h1V41z"/>
		<path class="st2" d="M77.3,47c0.3-0.3,0.5-0.6,0.6-1c0.1-0.3,0.2-0.9,0.3-1.6l0-1.3L77.4,43v-0.6h4.3h0.8V43l-0.8,0.1V47h0.7
			l-0.1,2.3h-0.9v-1.6h-3.7v1.6h-0.9L76.8,47H77.3z M79.2,44.4c0,0.6-0.1,1.1-0.3,1.5c-0.1,0.4-0.3,0.8-0.5,1.1h2.4v-3.7h-1.6
			L79.2,44.4z"/>
		<path class="st2" d="M88.4,42.3v1.6h-0.8l-0.1-0.8h-1.2V47l0.8,0.1v0.6h-2.6v-0.6l0.8-0.1v-3.9h-1.1l-0.1,0.8h-0.8v-1.6H88.4z"/>
		<path class="st2" d="M89.1,49.2l0.8-0.1v-5.9L89.1,43v-0.6h1.6l0.1,0.7c0.2-0.2,0.4-0.4,0.7-0.6c0.3-0.1,0.6-0.2,0.9-0.2
			c0.7,0,1.2,0.3,1.6,0.8c0.4,0.5,0.6,1.2,0.6,2.1v0.1c0,0.8-0.2,1.4-0.6,1.9c-0.4,0.5-0.9,0.7-1.5,0.7c-0.3,0-0.6-0.1-0.9-0.2
			c-0.3-0.1-0.5-0.3-0.6-0.5V49l0.8,0.1v0.6h-2.6V49.2z M93.5,45.1c0-0.6-0.1-1.1-0.4-1.5c-0.2-0.4-0.6-0.6-1.1-0.6
			c-0.3,0-0.5,0.1-0.7,0.2s-0.4,0.3-0.5,0.5v2.6c0.1,0.2,0.3,0.4,0.5,0.5c0.2,0.1,0.4,0.2,0.7,0.2c0.5,0,0.8-0.2,1.1-0.5
			c0.2-0.3,0.4-0.8,0.4-1.3V45.1z"/>
		<path class="st2" d="M98,42.3V43l-0.8,0.1v3l0,0l2.4-3.8h1h0.8V43l-0.8,0.1V47l0.8,0.1v0.6h-2.6v-0.6l0.8-0.1v-3l0,0l-2.4,3.8
			h-1.8v-0.6l0.8-0.1v-3.8L95.4,43v-0.6h1.8H98z"/>
		<path class="st2" d="M106.2,46.4L106.2,46.4l1.8-4.1h1.2h0.8V43l-0.8,0.1V47l0.8,0.1v0.6h-2.6v-0.6l0.8-0.1v-3l0,0l-1.6,3.7h-0.7
			l-1.7-3.8l0,0v3l0.8,0.1v0.6h-2.6v-0.6l0.8-0.1v-3.8l-0.8-0.1v-0.6h0.8h1.3L106.2,46.4z"/>
		<path class="st2" d="M110.9,43v-0.6h2.6V43l-0.8,0.1v1.5h0.5l1.1-1.5c0.2-0.3,0.4-0.5,0.6-0.6s0.4-0.2,0.7-0.2
			c0.2,0,0.3,0,0.4,0.1c0.1,0,0.2,0.1,0.3,0.2l-0.1,0.7c-0.1,0-0.2,0-0.2,0c0,0-0.1,0-0.1,0c-0.1,0-0.2,0-0.4,0.1
			c-0.1,0.1-0.2,0.2-0.3,0.3l-1,1.3l1.7,2.1l0.7,0.1v0.6h-1.3l-1.8-2.3h-0.6V47l0.8,0.1v0.6h-2.6v-0.6l0.8-0.1v-3.8L110.9,43z"/>
		<path class="st2" d="M119.8,42.3V43l-0.8,0.1v3l0,0l2.4-3.8h1h0.8V43l-0.8,0.1V47l0.8,0.1v0.6h-2.6v-0.6l0.8-0.1v-3l0,0l-2.4,3.8
			h-1.8v-0.6L118,47v-3.8l-0.8-0.1v-0.6h1.8H119.8z"/>
		<path class="st2" d="M131.7,42.1h-0.8l-0.1-0.8h-2.5v2.2h1.8c0.8,0,1.4,0.2,1.8,0.6s0.6,0.9,0.6,1.5c0,0.7-0.2,1.2-0.6,1.6
			s-1,0.6-1.8,0.6h-3.6v-0.6l0.8-0.1v-5.7l-0.8-0.1v-0.6h5.2V42.1z M128.3,44.2V47h1.8c0.5,0,0.9-0.1,1.1-0.4c0.2-0.3,0.4-0.6,0.4-1
			c0-0.4-0.1-0.7-0.4-1s-0.6-0.4-1.1-0.4H128.3z"/>
		<path class="st2" d="M133.4,47.1l0.8-0.1v-3.8l-0.8-0.1v-0.6h1.8V47l0.8,0.1v0.6h-2.6V47.1z M135.2,41h-1v-1h1V41z"/>
		<path class="st2" d="M138.9,44.6c0.3,0,0.6-0.1,0.7-0.2s0.2-0.3,0.2-0.6c0-0.2-0.1-0.4-0.3-0.6c-0.2-0.2-0.4-0.2-0.8-0.2
			c-0.3,0-0.6,0.1-0.8,0.2c-0.2,0.2-0.3,0.4-0.3,0.6h-0.9l0,0c0-0.5,0.2-0.8,0.6-1.1c0.4-0.3,0.9-0.4,1.5-0.4c0.6,0,1.1,0.1,1.5,0.4
			c0.4,0.3,0.5,0.7,0.5,1.2c0,0.2-0.1,0.5-0.2,0.7c-0.1,0.2-0.3,0.4-0.6,0.5c0.3,0.1,0.5,0.3,0.7,0.5c0.2,0.2,0.2,0.5,0.2,0.8
			c0,0.5-0.2,0.9-0.6,1.2s-0.9,0.4-1.5,0.4c-0.6,0-1.1-0.1-1.5-0.4s-0.6-0.7-0.6-1.2l0,0h0.9c0,0.3,0.1,0.5,0.3,0.7
			c0.2,0.2,0.5,0.3,0.8,0.3c0.4,0,0.6-0.1,0.8-0.2c0.2-0.2,0.3-0.4,0.3-0.6c0-0.3-0.1-0.5-0.3-0.6c-0.2-0.1-0.4-0.2-0.8-0.2H138
			v-0.8H138.9z"/>
		<path class="st2" d="M142,43v-0.6h2.6V43l-0.8,0.1v1.6h2.4v-1.6l-0.8-0.1v-0.6h0.8h1h0.8V43l-0.8,0.1V47l0.8,0.1v0.6h-2.6v-0.6
			l0.8-0.1v-1.5h-2.4V47l0.8,0.1v0.6H142v-0.6l0.8-0.1v-3.8L142,43z"/>
		<path class="st2" d="M151.3,47.8c-0.7,0-1.3-0.2-1.8-0.7c-0.4-0.5-0.7-1.1-0.7-1.9v-0.2c0-0.8,0.2-1.4,0.7-1.9s1-0.8,1.6-0.8
			c0.7,0,1.3,0.2,1.6,0.7c0.4,0.4,0.6,1,0.6,1.7v0.6h-3.5l0,0c0,0.5,0.1,0.9,0.4,1.3c0.3,0.3,0.6,0.5,1.1,0.5c0.3,0,0.6,0,0.9-0.1
			c0.2-0.1,0.5-0.2,0.6-0.4l0.4,0.6c-0.2,0.2-0.4,0.3-0.8,0.5S151.8,47.8,151.3,47.8z M151.2,43c-0.3,0-0.6,0.1-0.8,0.4
			c-0.2,0.3-0.4,0.6-0.4,1l0,0h2.5v-0.1c0-0.4-0.1-0.7-0.3-1C151.9,43.1,151.6,43,151.2,43z"/>
		<path class="st2" d="M156.8,47.1c0.3,0,0.6-0.1,0.9-0.3c0.2-0.2,0.4-0.4,0.4-0.7h0.9l0,0c0,0.5-0.2,0.9-0.6,1.2
			c-0.4,0.4-0.9,0.5-1.5,0.5c-0.8,0-1.4-0.3-1.8-0.8c-0.4-0.5-0.6-1.2-0.6-1.9v-0.2c0-0.8,0.2-1.4,0.6-1.9s1-0.8,1.8-0.8
			c0.4,0,0.8,0.1,1.2,0.2c0.3,0.1,0.6,0.3,0.9,0.6l0,1.2H158l-0.2-0.8c-0.1-0.1-0.3-0.2-0.4-0.3c-0.2-0.1-0.4-0.1-0.6-0.1
			c-0.5,0-0.9,0.2-1.1,0.6s-0.3,0.8-0.3,1.4v0.2c0,0.5,0.1,1,0.3,1.4C155.9,46.9,156.2,47.1,156.8,47.1z"/>
		<path class="st2" d="M164.9,43l-0.5,0.1l-2,5.5c-0.1,0.4-0.3,0.7-0.6,0.9c-0.3,0.3-0.6,0.4-1,0.4c-0.1,0-0.2,0-0.3,0
			c-0.1,0-0.2,0-0.3-0.1l0.1-0.8c0,0,0,0,0.2,0c0.1,0,0.2,0,0.3,0c0.2,0,0.4-0.1,0.5-0.3c0.1-0.2,0.2-0.4,0.3-0.6l0.2-0.6l-1.8-4.6
			l-0.5-0.1v-0.6h2.2V43l-0.6,0.1l0.9,2.7l0.2,0.7h0l1.1-3.3l-0.6-0.1v-0.6h2.2V43z"/>
	</g>
	<g>
		<path class="st2" d="M65.6,74.2l0.5-0.1l2.5-6.5h0.8l2.5,6.5l0.5,0.1v0.6h-2.1v-0.6l0.5-0.1l-0.5-1.3h-2.9l-0.5,1.3l0.5,0.1v0.6
			h-2.1V74.2z M67.9,71.9h2.3l-1.1-3.1h0L67.9,71.9z"/>
		<path class="st2" d="M74,70.2l-0.8-0.1v-0.6h4.2v0h0.2v1.4h-0.6l-0.1-0.6h-1.9V74l0.8,0.1v0.6h-2.6v-0.6L74,74V70.2z"/>
		<path class="st2" d="M80.9,74.9c-0.7,0-1.3-0.2-1.8-0.7c-0.4-0.5-0.7-1.1-0.7-1.9V72c0-0.8,0.2-1.4,0.7-1.9s1-0.8,1.6-0.8
			c0.7,0,1.3,0.2,1.6,0.7c0.4,0.4,0.6,1,0.6,1.7v0.6h-3.5l0,0c0,0.5,0.1,0.9,0.4,1.3c0.3,0.3,0.6,0.5,1.1,0.5c0.3,0,0.6,0,0.9-0.1
			c0.2-0.1,0.5-0.2,0.6-0.4l0.4,0.6c-0.2,0.2-0.4,0.3-0.8,0.5S81.4,74.9,80.9,74.9z M80.8,70.1c-0.3,0-0.6,0.1-0.8,0.4
			c-0.2,0.3-0.4,0.6-0.4,1l0,0H82v-0.1c0-0.4-0.1-0.7-0.3-1C81.5,70.2,81.2,70.1,80.8,70.1z"/>
		<path class="st2" d="M84,70.1v-0.6h2.6v0.6l-0.8,0.1v1.6h2.4v-1.6l-0.8-0.1v-0.6h0.8h1H90v0.6l-0.8,0.1V74l0.8,0.1v0.6h-2.6v-0.6
			l0.8-0.1v-1.5h-2.4V74l0.8,0.1v0.6H84v-0.6l0.8-0.1v-3.8L84,70.1z"/>
		<path class="st2" d="M95.9,69.4V74h0.7l-0.1,2.4h-0.9v-1.6h-4.9v-0.6l0.8-0.1v-3.8l-0.8-0.1v-0.6h1.8h0.8v0.6l-0.8,0.1V74H95v-3.8
			l-0.8-0.1v-0.6H95H95.9z M96.7,69.4v0.6l-0.8,0.1v-0.8H96.7z"/>
		<path class="st2" d="M97.6,74.2l0.8-0.1v-3.8l-0.8-0.1v-0.6h1.8V74l0.8,0.1v0.6h-2.6V74.2z M99.4,68.1h-1v-1h1V68.1z"/>
		<path class="st2" d="M104,74.2l0.8-0.1v-1.3h-1.3l-1.3,2.1h-1.3v-0.6l0.7-0.1l0.9-1.5c-0.3-0.1-0.6-0.3-0.8-0.6
			c-0.2-0.3-0.3-0.6-0.3-0.9c0-0.5,0.2-0.9,0.6-1.2s0.9-0.5,1.5-0.5h2.3h0.8v0.6l-0.8,0.1V74l0.8,0.1v0.6H104V74.2z M102.4,71.1
			c0,0.2,0.1,0.4,0.2,0.6s0.4,0.3,0.7,0.3h1.4v-1.8h-1.3c-0.4,0-0.6,0.1-0.8,0.3C102.5,70.6,102.4,70.9,102.4,71.1z"/>
		<path class="st2" d="M68.2,87.1c-0.7,0-1.3-0.2-1.8-0.7c-0.4-0.5-0.7-1.1-0.7-1.9v-0.2c0-0.8,0.2-1.4,0.7-1.9s1-0.8,1.6-0.8
			c0.7,0,1.3,0.2,1.6,0.7c0.4,0.4,0.6,1,0.6,1.7v0.6h-3.5l0,0c0,0.5,0.1,0.9,0.4,1.3c0.3,0.3,0.6,0.5,1.1,0.5c0.3,0,0.6,0,0.9-0.1
			c0.2-0.1,0.5-0.2,0.6-0.4l0.4,0.6c-0.2,0.2-0.4,0.3-0.8,0.5S68.7,87.1,68.2,87.1z M68.1,82.3c-0.3,0-0.6,0.1-0.8,0.4
			c-0.2,0.3-0.4,0.6-0.4,1l0,0h2.5v-0.1c0-0.4-0.1-0.7-0.3-1C68.8,82.5,68.5,82.3,68.1,82.3z"/>
		<path class="st2" d="M71.3,82.3v-0.6h2.6v0.6l-0.8,0.1v1.5h0.5l1.1-1.5c0.2-0.3,0.4-0.5,0.6-0.6s0.4-0.2,0.7-0.2
			c0.2,0,0.3,0,0.4,0.1c0.1,0,0.2,0.1,0.3,0.2l-0.1,0.7c-0.1,0-0.2,0-0.2,0c0,0-0.1,0-0.1,0c-0.1,0-0.2,0-0.4,0.1
			c-0.1,0.1-0.2,0.2-0.3,0.3l-1,1.3l1.7,2.1l0.7,0.1V87h-1.3l-1.8-2.3h-0.6v1.5l0.8,0.1V87h-2.6v-0.6l0.8-0.1v-3.8L71.3,82.3z"/>
		<path class="st2" d="M77.3,84.3c0-0.8,0.2-1.4,0.6-2c0.4-0.5,1-0.8,1.8-0.8c0.7,0,1.3,0.3,1.8,0.8c0.4,0.5,0.6,1.2,0.6,2v0.1
			c0,0.8-0.2,1.5-0.6,2c-0.4,0.5-1,0.8-1.8,0.8c-0.7,0-1.3-0.3-1.8-0.8s-0.6-1.2-0.6-2V84.3z M78.3,84.4c0,0.6,0.1,1,0.4,1.4
			c0.2,0.4,0.6,0.6,1.1,0.6c0.5,0,0.8-0.2,1.1-0.6c0.2-0.4,0.4-0.8,0.4-1.4v-0.1c0-0.6-0.1-1-0.4-1.4c-0.2-0.4-0.6-0.6-1.1-0.6
			s-0.8,0.2-1.1,0.6c-0.2,0.4-0.4,0.8-0.4,1.4V84.4z"/>
		<path class="st2" d="M83,82.3v-0.6h2.6v0.6l-0.8,0.1V84h2.4v-1.6l-0.8-0.1v-0.6h0.8h1H89v0.6l-0.8,0.1v3.8l0.8,0.1V87h-2.6v-0.6
			l0.8-0.1v-1.5h-2.4v1.5l0.8,0.1V87H83v-0.6l0.8-0.1v-3.8L83,82.3z"/>
		<path class="st2" d="M89.9,84.3c0-0.8,0.2-1.4,0.6-2c0.4-0.5,1-0.8,1.8-0.8c0.7,0,1.3,0.3,1.8,0.8c0.4,0.5,0.6,1.2,0.6,2v0.1
			c0,0.8-0.2,1.5-0.6,2c-0.4,0.5-1,0.8-1.8,0.8c-0.7,0-1.3-0.3-1.8-0.8s-0.6-1.2-0.6-2V84.3z M90.9,84.4c0,0.6,0.1,1,0.4,1.4
			c0.2,0.4,0.6,0.6,1.1,0.6c0.5,0,0.8-0.2,1.1-0.6c0.2-0.4,0.4-0.8,0.4-1.4v-0.1c0-0.6-0.1-1-0.4-1.4c-0.2-0.4-0.6-0.6-1.1-0.6
			s-0.8,0.2-1.1,0.6c-0.2,0.4-0.4,0.8-0.4,1.4V84.4z"/>
		<path class="st2" d="M99.5,85.7L99.5,85.7l1.8-4.1h1.2h0.8v0.6l-0.8,0.1v3.8l0.8,0.1V87h-2.6v-0.6l0.8-0.1v-3l0,0L99.8,87h-0.7
			l-1.7-3.8l0,0v3l0.8,0.1V87h-2.6v-0.6l0.8-0.1v-3.8l-0.8-0.1v-0.6h0.8h1.3L99.5,85.7z"/>
		<path class="st2" d="M104.2,86.4l0.8-0.1v-3.8l-0.8-0.1v-0.6h1.8v4.6l0.8,0.1V87h-2.6V86.4z M106,80.3h-1v-1h1V80.3z"/>
		<path class="st2" d="M110,81.6v0.6l-0.8,0.1v0.8c0,0.4,0.1,0.7,0.3,0.9c0.2,0.2,0.5,0.3,0.8,0.3c0.2,0,0.4,0,0.6,0
			c0.2,0,0.4-0.1,0.6-0.1v-1.9l-0.8-0.1v-0.6h2.6v0.6l-0.8,0.1v3.8l0.8,0.1V87h-2.6v-0.6l0.8-0.1v-1.2c-0.2,0-0.4,0.1-0.6,0.1
			s-0.4,0-0.6,0c-0.6,0-1.2-0.2-1.5-0.5c-0.4-0.3-0.6-0.8-0.6-1.5v-0.8l-0.8-0.1v-0.6h1.8H110z"/>
		<path class="st2" d="M114.3,82.3v-0.6h2.6v0.6l-0.8,0.1V84h2.4v-1.6l-0.8-0.1v-0.6h0.8h1h0.8v0.6l-0.8,0.1v3.8l0.8,0.1V87h-2.6
			v-0.6l0.8-0.1v-1.5h-2.4v1.5l0.8,0.1V87h-2.6v-0.6l0.8-0.1v-3.8L114.3,82.3z"/>
		<path class="st2" d="M121.2,84.3c0-0.8,0.2-1.4,0.6-2c0.4-0.5,1-0.8,1.8-0.8c0.7,0,1.3,0.3,1.8,0.8c0.4,0.5,0.6,1.2,0.6,2v0.1
			c0,0.8-0.2,1.5-0.6,2c-0.4,0.5-1,0.8-1.8,0.8c-0.7,0-1.3-0.3-1.8-0.8s-0.6-1.2-0.6-2V84.3z M122.2,84.4c0,0.6,0.1,1,0.4,1.4
			c0.2,0.4,0.6,0.6,1.1,0.6c0.5,0,0.8-0.2,1.1-0.6c0.2-0.4,0.4-0.8,0.4-1.4v-0.1c0-0.6-0.1-1-0.4-1.4c-0.2-0.4-0.6-0.6-1.1-0.6
			s-0.8,0.2-1.1,0.6c-0.2,0.4-0.4,0.8-0.4,1.4V84.4z"/>
		<path class="st2" d="M127.6,82.4l-0.8-0.1v-0.6h4.2v0h0.2V83h-0.6l-0.1-0.6h-1.9v3.8l0.8,0.1V87h-2.6v-0.6l0.8-0.1V82.4z"/>
		<path class="st2" d="M132.1,84.3c0-0.8,0.2-1.4,0.6-2c0.4-0.5,1-0.8,1.8-0.8c0.7,0,1.3,0.3,1.8,0.8c0.4,0.5,0.6,1.2,0.6,2v0.1
			c0,0.8-0.2,1.5-0.6,2c-0.4,0.5-1,0.8-1.8,0.8c-0.7,0-1.3-0.3-1.8-0.8s-0.6-1.2-0.6-2V84.3z M133,84.4c0,0.6,0.1,1,0.4,1.4
			c0.2,0.4,0.6,0.6,1.1,0.6c0.5,0,0.8-0.2,1.1-0.6c0.2-0.4,0.4-0.8,0.4-1.4v-0.1c0-0.6-0.1-1-0.4-1.4c-0.2-0.4-0.6-0.6-1.1-0.6
			s-0.8,0.2-1.1,0.6c-0.2,0.4-0.4,0.8-0.4,1.4V84.4z"/>
		<path class="st2" d="M140.2,88.5l0.8-0.1v-5.9l-0.8-0.1v-0.6h1.6l0.1,0.7c0.2-0.2,0.4-0.4,0.7-0.6c0.3-0.1,0.6-0.2,0.9-0.2
			c0.7,0,1.2,0.3,1.6,0.8c0.4,0.5,0.6,1.2,0.6,2.1v0.1c0,0.8-0.2,1.4-0.6,1.9c-0.4,0.5-0.9,0.7-1.5,0.7c-0.3,0-0.6-0.1-0.9-0.2
			c-0.3-0.1-0.5-0.3-0.6-0.5v1.9l0.8,0.1v0.6h-2.6V88.5z M144.6,84.4c0-0.6-0.1-1.1-0.4-1.5c-0.2-0.4-0.6-0.6-1.1-0.6
			c-0.3,0-0.5,0.1-0.7,0.2s-0.4,0.3-0.5,0.5v2.6c0.1,0.2,0.3,0.4,0.5,0.5c0.2,0.1,0.4,0.2,0.7,0.2c0.5,0,0.8-0.2,1.1-0.5
			c0.2-0.3,0.4-0.8,0.4-1.3V84.4z"/>
		<path class="st2" d="M146.5,84.3c0-0.8,0.2-1.4,0.6-2c0.4-0.5,1-0.8,1.8-0.8c0.7,0,1.3,0.3,1.8,0.8c0.4,0.5,0.6,1.2,0.6,2v0.1
			c0,0.8-0.2,1.5-0.6,2c-0.4,0.5-1,0.8-1.8,0.8c-0.7,0-1.3-0.3-1.8-0.8s-0.6-1.2-0.6-2V84.3z M147.4,84.4c0,0.6,0.1,1,0.4,1.4
			c0.2,0.4,0.6,0.6,1.1,0.6c0.5,0,0.8-0.2,1.1-0.6c0.2-0.4,0.4-0.8,0.4-1.4v-0.1c0-0.6-0.1-1-0.4-1.4c-0.2-0.4-0.6-0.6-1.1-0.6
			s-0.8,0.2-1.1,0.6c-0.2,0.4-0.4,0.8-0.4,1.4V84.4z"/>
		<path class="st2" d="M154.3,83.9c0.3,0,0.6-0.1,0.7-0.2s0.2-0.3,0.2-0.6c0-0.2-0.1-0.4-0.3-0.6c-0.2-0.2-0.4-0.2-0.8-0.2
			c-0.3,0-0.6,0.1-0.8,0.2c-0.2,0.2-0.3,0.4-0.3,0.6h-0.9l0,0c0-0.5,0.2-0.8,0.6-1.1c0.4-0.3,0.9-0.4,1.5-0.4c0.6,0,1.1,0.1,1.5,0.4
			c0.4,0.3,0.5,0.7,0.5,1.2c0,0.2-0.1,0.5-0.2,0.7c-0.1,0.2-0.3,0.4-0.6,0.5c0.3,0.1,0.5,0.3,0.7,0.5c0.2,0.2,0.2,0.5,0.2,0.8
			c0,0.5-0.2,0.9-0.6,1.2s-0.9,0.4-1.5,0.4c-0.6,0-1.1-0.1-1.5-0.4s-0.6-0.7-0.6-1.2l0,0h0.9c0,0.3,0.1,0.5,0.3,0.7
			c0.2,0.2,0.5,0.3,0.8,0.3c0.4,0,0.6-0.1,0.8-0.2c0.2-0.2,0.3-0.4,0.3-0.6c0-0.3-0.1-0.5-0.3-0.6c-0.2-0.1-0.4-0.2-0.8-0.2h-0.9
			v-0.8H154.3z"/>
		<path class="st2" d="M160.3,81.7c0.7,0,1.3,0.1,1.6,0.4c0.4,0.2,0.6,0.6,0.6,1.1c0,0.3-0.1,0.5-0.2,0.7c-0.2,0.2-0.4,0.3-0.6,0.5
			c0.3,0.1,0.6,0.2,0.8,0.5c0.2,0.2,0.3,0.5,0.3,0.8c0,0.5-0.2,0.9-0.5,1.1c-0.4,0.3-0.9,0.4-1.5,0.4h-3.3v-0.6l0.8-0.1v-3.8
			l-0.8-0.1v-0.6h0.8H160.3z M159.2,83.9h1.1c0.4,0,0.7-0.1,0.9-0.2c0.2-0.1,0.3-0.3,0.3-0.6c0-0.3-0.1-0.4-0.3-0.6
			c-0.2-0.1-0.5-0.2-0.9-0.2h-1.1V83.9z M159.2,84.7v1.6h1.5c0.4,0,0.6-0.1,0.8-0.2c0.2-0.1,0.3-0.3,0.3-0.6c0-0.3-0.1-0.5-0.3-0.6
			c-0.2-0.1-0.5-0.2-0.8-0.2H159.2z"/>
		<path class="st2" d="M166.3,81.7v0.6l-0.8,0.1v3l0,0l2.4-3.8h1h0.8v0.6l-0.8,0.1v3.8l0.8,0.1V87h-2.6v-0.6l0.8-0.1v-3l0,0
			l-2.4,3.8h-1.8v-0.6l0.8-0.1v-3.8l-0.8-0.1v-0.6h1.8H166.3z"/>
		<path class="st2" d="M175.7,81.7v1.6h-0.8l-0.1-0.8h-1.2v3.9l0.8,0.1V87h-2.6v-0.6l0.8-0.1v-3.9h-1.1l-0.1,0.8h-0.8v-1.6H175.7z"
			/>
		<path class="st2" d="M176.5,82.3v-0.6h2.6v0.6l-0.8,0.1v1.5h0.5l1.1-1.5c0.2-0.3,0.4-0.5,0.6-0.6s0.4-0.2,0.7-0.2
			c0.2,0,0.3,0,0.4,0.1c0.1,0,0.2,0.1,0.3,0.2l-0.1,0.7c-0.1,0-0.2,0-0.2,0c0,0-0.1,0-0.1,0c-0.1,0-0.2,0-0.4,0.1
			c-0.1,0.1-0.2,0.2-0.3,0.3l-1,1.3l1.7,2.1l0.7,0.1V87h-1.3l-1.8-2.3h-0.6v1.5l0.8,0.1V87h-2.6v-0.6l0.8-0.1v-3.8L176.5,82.3z"/>
		<path class="st2" d="M187.9,82.3l-0.5,0.1l-2,5.5c-0.1,0.4-0.3,0.7-0.6,0.9c-0.3,0.3-0.6,0.4-1,0.4c-0.1,0-0.2,0-0.3,0
			c-0.1,0-0.2,0-0.3-0.1l0.1-0.8c0,0,0,0,0.2,0c0.1,0,0.2,0,0.3,0c0.2,0,0.4-0.1,0.5-0.3c0.1-0.2,0.2-0.4,0.3-0.6l0.2-0.6l-1.8-4.6
			l-0.5-0.1v-0.6h2.2v0.6l-0.6,0.1L185,85l0.2,0.7h0l1.1-3.3l-0.6-0.1v-0.6h2.2V82.3z"/>
		<path class="st2" d="M69,92c0.8,0,1.4,0.2,1.8,0.6c0.4,0.4,0.6,0.9,0.6,1.6c0,0.7-0.2,1.2-0.6,1.6c-0.4,0.4-1,0.6-1.8,0.6h-1.5
			v2.1l0.8,0.1v0.6h-2.6v-0.6l0.8-0.1v-5.7l-0.8-0.1V92h0.8H69z M67.5,95.6H69c0.5,0,0.9-0.1,1.1-0.4c0.2-0.3,0.4-0.6,0.4-1
			c0-0.4-0.1-0.7-0.4-1c-0.2-0.3-0.6-0.4-1.1-0.4h-1.5V95.6z"/>
		<path class="st2" d="M75.5,92c0.8,0,1.4,0.2,1.8,0.6c0.4,0.4,0.6,0.9,0.6,1.6c0,0.7-0.2,1.2-0.6,1.6c-0.4,0.4-1,0.6-1.8,0.6h-1.5
			v2.1l0.8,0.1v0.6h-2.6v-0.6l0.8-0.1v-5.7l-0.8-0.1V92H73H75.5z M73.9,95.6h1.5c0.5,0,0.9-0.1,1.1-0.4c0.2-0.3,0.4-0.6,0.4-1
			c0-0.4-0.1-0.7-0.4-1c-0.2-0.3-0.6-0.4-1.1-0.4h-1.5V95.6z"/>
		<path class="st2" d="M80.8,92.6l-0.7,0.1l1.6,4.7l0.2,0.6h0l0.2-0.6l1.6-4.7l-0.7-0.1V92h2.3v0.6l-0.6,0.1l-2.4,6.5h-0.8l-2.4-6.5
			l-0.6-0.1V92h2.3V92.6z"/>
		<path class="st2" d="M88.4,98.6l0.8-0.1v-5.7l-0.8-0.1V92H91v0.6l-0.8,0.1v2.4H91l2-2.5l-0.5-0.1V92h2.3v0.6l-0.7,0.1l-2.2,2.7
			l2.4,3l0.7,0.1v0.6h-2.4v-0.6l0.6-0.1L91.1,96h-0.8v2.5l0.8,0.1v0.6h-2.6V98.6z"/>
		<path class="st2" d="M95.5,98.6l0.8-0.1v-3.8l-0.8-0.1v-0.6h1.7l0.1,0.8c0.2-0.3,0.4-0.5,0.7-0.7c0.3-0.2,0.6-0.2,0.9-0.2
			c0.6,0,1,0.2,1.3,0.5c0.3,0.3,0.5,0.9,0.5,1.6v2.6l0.8,0.1v0.6h-2.6v-0.6l0.8-0.1v-2.6c0-0.5-0.1-0.8-0.3-1
			c-0.2-0.2-0.5-0.3-0.9-0.3c-0.3,0-0.5,0.1-0.7,0.2c-0.2,0.1-0.4,0.3-0.5,0.6v3.2l0.8,0.1v0.6h-2.6V98.6z"/>
		<path class="st2" d="M102.1,96.5c0-0.8,0.2-1.4,0.6-2c0.4-0.5,1-0.8,1.8-0.8c0.7,0,1.3,0.3,1.8,0.8c0.4,0.5,0.6,1.2,0.6,2v0.1
			c0,0.8-0.2,1.5-0.6,2c-0.4,0.5-1,0.8-1.8,0.8c-0.7,0-1.3-0.3-1.8-0.8s-0.6-1.2-0.6-2V96.5z M103.1,96.6c0,0.6,0.1,1,0.4,1.4
			c0.2,0.4,0.6,0.6,1.1,0.6c0.5,0,0.8-0.2,1.1-0.6c0.2-0.4,0.4-0.8,0.4-1.4v-0.1c0-0.6-0.1-1-0.4-1.4c-0.2-0.4-0.6-0.6-1.1-0.6
			s-0.8,0.2-1.1,0.6c-0.2,0.4-0.4,0.8-0.4,1.4V96.6z"/>
		<path class="st2" d="M109.8,94.5l-0.6,0.1l0.7,2.7l0.1,0.7h0l0.1-0.7l1.1-3.4h0.8l1.1,3.4l0.2,0.7h0l0.1-0.7l0.7-2.7l-0.6-0.1
			v-0.6h2v0.6l-0.5,0.1l-1.4,4.7h-0.8l-1-3.3l-0.2-0.9l0,0l-0.2,0.9l-1,3.3h-0.8l-1.4-4.7l-0.5-0.1v-0.6h2V94.5z"/>
		<path class="st2" d="M116.1,92.1v-0.6h1.8v7l0.8,0.1v0.6h-2.6v-0.6l0.8-0.1v-6.2L116.1,92.1z"/>
		<path class="st2" d="M121.9,99.3c-0.7,0-1.3-0.2-1.8-0.7c-0.4-0.5-0.7-1.1-0.7-1.9v-0.2c0-0.8,0.2-1.4,0.7-1.9s1-0.8,1.6-0.8
			c0.7,0,1.3,0.2,1.6,0.7c0.4,0.4,0.6,1,0.6,1.7v0.6h-3.5l0,0c0,0.5,0.1,0.9,0.4,1.3c0.3,0.3,0.6,0.5,1.1,0.5c0.3,0,0.6,0,0.9-0.1
			c0.2-0.1,0.5-0.2,0.6-0.4l0.4,0.6c-0.2,0.2-0.4,0.3-0.8,0.5S122.4,99.3,121.9,99.3z M121.8,94.5c-0.3,0-0.6,0.1-0.8,0.4
			c-0.2,0.3-0.4,0.6-0.4,1l0,0h2.5v-0.1c0-0.4-0.1-0.7-0.3-1C122.5,94.7,122.2,94.5,121.8,94.5z"/>
		<path class="st2" d="M128.6,98.6c-0.2,0.2-0.4,0.4-0.6,0.6c-0.3,0.1-0.5,0.2-0.9,0.2c-0.7,0-1.2-0.2-1.5-0.7
			c-0.4-0.5-0.6-1.1-0.6-1.9v-0.1c0-0.9,0.2-1.6,0.6-2.1c0.4-0.5,0.9-0.8,1.5-0.8c0.3,0,0.6,0.1,0.8,0.2c0.2,0.1,0.5,0.3,0.6,0.5
			v-2.2l-0.8-0.1v-0.6h0.8h1v7l0.8,0.1v0.6h-1.7L128.6,98.6z M125.9,96.8c0,0.5,0.1,1,0.3,1.3c0.2,0.3,0.6,0.5,1,0.5
			c0.3,0,0.5-0.1,0.7-0.2c0.2-0.1,0.4-0.3,0.5-0.6v-2.5c-0.1-0.2-0.3-0.4-0.5-0.5c-0.2-0.1-0.4-0.2-0.7-0.2c-0.5,0-0.8,0.2-1,0.6
			c-0.2,0.4-0.3,0.9-0.3,1.5V96.8z"/>
		<path class="st2" d="M131,96.7c0-0.9,0.2-1.6,0.6-2.1s0.9-0.8,1.6-0.8c0.3,0,0.6,0.1,0.9,0.2c0.3,0.1,0.5,0.3,0.6,0.6l0.1-0.7h0.8
			v5.3c0,0.7-0.2,1.2-0.6,1.6c-0.4,0.4-0.9,0.6-1.7,0.6c-0.3,0-0.5,0-0.8-0.1s-0.6-0.2-0.8-0.3l0.3-0.8c0.2,0.1,0.4,0.2,0.6,0.2
			c0.2,0.1,0.5,0.1,0.7,0.1c0.4,0,0.8-0.1,1-0.4s0.3-0.6,0.3-1v-0.5c-0.2,0.2-0.4,0.4-0.6,0.5c-0.2,0.1-0.5,0.2-0.8,0.2
			c-0.7,0-1.2-0.2-1.6-0.7c-0.4-0.5-0.6-1.1-0.6-1.9V96.7z M132,96.8c0,0.5,0.1,1,0.3,1.3s0.6,0.5,1,0.5c0.3,0,0.5-0.1,0.7-0.2
			c0.2-0.1,0.4-0.3,0.5-0.6v-2.5c-0.1-0.2-0.3-0.4-0.5-0.5s-0.4-0.2-0.7-0.2c-0.5,0-0.8,0.2-1,0.6c-0.2,0.4-0.3,0.9-0.3,1.5V96.8z"
			/>
		<path class="st2" d="M139.3,99.3c-0.7,0-1.3-0.2-1.8-0.7c-0.4-0.5-0.7-1.1-0.7-1.9v-0.2c0-0.8,0.2-1.4,0.7-1.9s1-0.8,1.6-0.8
			c0.7,0,1.3,0.2,1.6,0.7c0.4,0.4,0.6,1,0.6,1.7v0.6h-3.5l0,0c0,0.5,0.1,0.9,0.4,1.3c0.3,0.3,0.6,0.5,1.1,0.5c0.3,0,0.6,0,0.9-0.1
			c0.2-0.1,0.5-0.2,0.6-0.4l0.4,0.6c-0.2,0.2-0.4,0.3-0.8,0.5S139.7,99.3,139.3,99.3z M139.1,94.5c-0.3,0-0.6,0.1-0.8,0.4
			c-0.2,0.3-0.4,0.6-0.4,1l0,0h2.5v-0.1c0-0.4-0.1-0.7-0.3-1C139.8,94.7,139.5,94.5,139.1,94.5z"/>
		<path class="st2" d="M151.8,92v0.6l-0.8,0.1v6.5h-1l-3.5-5.6l0,0v4.8l0.8,0.1v0.6h-2.6v-0.6l0.8-0.1v-5.7l-0.8-0.1V92h0.8h1
			l3.5,5.6l0,0v-4.8l-0.8-0.1V92h1.8H151.8z"/>
		<path class="st2" d="M155,99.3c-0.7,0-1.3-0.2-1.8-0.7c-0.4-0.5-0.7-1.1-0.7-1.9v-0.2c0-0.8,0.2-1.4,0.7-1.9s1-0.8,1.6-0.8
			c0.7,0,1.3,0.2,1.6,0.7c0.4,0.4,0.6,1,0.6,1.7v0.6h-3.5l0,0c0,0.5,0.1,0.9,0.4,1.3c0.3,0.3,0.6,0.5,1.1,0.5c0.3,0,0.6,0,0.9-0.1
			c0.2-0.1,0.5-0.2,0.6-0.4l0.4,0.6c-0.2,0.2-0.4,0.3-0.8,0.5S155.4,99.3,155,99.3z M154.9,94.5c-0.3,0-0.6,0.1-0.8,0.4
			c-0.2,0.3-0.4,0.6-0.4,1l0,0h2.5v-0.1c0-0.4-0.1-0.7-0.3-1C155.6,94.7,155.3,94.5,154.9,94.5z"/>
		<path class="st2" d="M159.7,92.6v1.3h1v0.7h-1v3.3c0,0.3,0.1,0.4,0.2,0.5s0.2,0.2,0.4,0.2c0.1,0,0.2,0,0.3,0c0.1,0,0.2,0,0.3,0
			l0.1,0.7c-0.1,0.1-0.2,0.1-0.4,0.1s-0.4,0.1-0.5,0.1c-0.4,0-0.7-0.1-0.9-0.4s-0.4-0.6-0.4-1.1v-3.3h-0.9v-0.7h0.9v-1.3H159.7z"/>
		<path class="st2" d="M163.7,94.5l-0.6,0.1l0.7,2.7l0.1,0.7h0l0.1-0.7l1.1-3.4h0.8l1.1,3.4l0.2,0.7h0l0.1-0.7l0.7-2.7l-0.6-0.1
			v-0.6h2v0.6l-0.5,0.1l-1.4,4.7h-0.8l-1-3.3l-0.2-0.9l0,0l-0.2,0.9l-1,3.3h-0.8l-1.4-4.7l-0.5-0.1v-0.6h2V94.5z"/>
		<path class="st2" d="M170.2,96.5c0-0.8,0.2-1.4,0.6-2c0.4-0.5,1-0.8,1.8-0.8c0.7,0,1.3,0.3,1.8,0.8c0.4,0.5,0.6,1.2,0.6,2v0.1
			c0,0.8-0.2,1.5-0.6,2c-0.4,0.5-1,0.8-1.8,0.8c-0.7,0-1.3-0.3-1.8-0.8s-0.6-1.2-0.6-2V96.5z M171.1,96.6c0,0.6,0.1,1,0.4,1.4
			c0.2,0.4,0.6,0.6,1.1,0.6c0.5,0,0.8-0.2,1.1-0.6c0.2-0.4,0.4-0.8,0.4-1.4v-0.1c0-0.6-0.1-1-0.4-1.4c-0.2-0.4-0.6-0.6-1.1-0.6
			s-0.8,0.2-1.1,0.6c-0.2,0.4-0.4,0.8-0.4,1.4V96.6z"/>
		<path class="st2" d="M175.9,94.5v-0.6h1.7l0.1,0.8c0.2-0.3,0.3-0.5,0.6-0.6s0.5-0.2,0.8-0.2c0.1,0,0.2,0,0.2,0c0.1,0,0.1,0,0.2,0
			l-0.1,0.9l-0.6,0c-0.3,0-0.5,0.1-0.7,0.2c-0.2,0.1-0.3,0.3-0.4,0.5v3.1l0.8,0.1v0.6h-2.6v-0.6l0.8-0.1v-3.8L175.9,94.5z"/>
		<path class="st2" d="M179.8,92.1v-0.6h1.8V96h0.6l1.1-1.4l-0.5-0.1v-0.6h2.3v0.6l-0.7,0.1l-1.4,1.7l1.7,2.2l0.6,0.1v0.6h-2.2v-0.6
			l0.5-0.1l-1.4-1.8h-0.6v1.7l0.8,0.1v0.6h-2.6v-0.6l0.8-0.1v-6.2L179.8,92.1z"/>
		<path class="st2" d="M190.3,95.6h-0.7l-0.2-0.6c-0.1-0.1-0.3-0.2-0.4-0.3c-0.2-0.1-0.4-0.1-0.6-0.1c-0.3,0-0.6,0.1-0.8,0.2
			s-0.3,0.3-0.3,0.6c0,0.2,0.1,0.4,0.2,0.5c0.1,0.1,0.5,0.2,0.9,0.3c0.7,0.1,1.2,0.3,1.5,0.6c0.3,0.2,0.5,0.6,0.5,1
			c0,0.5-0.2,0.9-0.6,1.2c-0.4,0.3-0.9,0.4-1.5,0.4c-0.4,0-0.8,0-1.1-0.1s-0.6-0.2-0.9-0.4l0-1.2h0.7l0.2,0.7
			c0.1,0.1,0.3,0.2,0.5,0.2c0.2,0,0.4,0.1,0.6,0.1c0.3,0,0.6-0.1,0.8-0.2s0.3-0.3,0.3-0.6c0-0.2-0.1-0.4-0.2-0.5
			c-0.2-0.1-0.5-0.3-0.9-0.4c-0.7-0.1-1.1-0.3-1.5-0.6c-0.3-0.2-0.5-0.6-0.5-1c0-0.4,0.2-0.8,0.6-1.1c0.4-0.3,0.9-0.5,1.5-0.5
			c0.4,0,0.8,0.1,1.1,0.2c0.3,0.1,0.6,0.3,0.8,0.4L190.3,95.6z"/>
	</g>
</g>
</svg>
