<?xml version="1.0" encoding="utf-8"?>
<!-- Generator: Adobe Illustrator 23.0.4, SVG Export Plug-In . SVG Version: 6.00 Build 0)  -->
<svg version="1.1" id="Layer_1" xmlns="http://www.w3.org/2000/svg" xmlns:xlink="http://www.w3.org/1999/xlink" x="0px" y="0px"
	 viewBox="0 0 728.5 732.7" style="enable-background:new 0 0 728.5 732.7;" xml:space="preserve">
<style type="text/css">
	.st0{fill:#231F20;}
	.st1{fill:#002F87;}
	.st2{fill:#FFFFFF;}
</style>
<g>
	<path class="st0" d="M212.2,441.07h3.58v-27.99h-3.08v-1.43h24.52l0.09,8.14h-1.49c-1.99-5.29-3.62-6.71-7.56-6.71h-5.02v12.71
		c0.32,0.05,0.68,0.05,0.99,0.05c3.17,0,4.75-1.66,5.25-5.66h1.49v13.19h-1.49c-0.32-4.28-1.9-6.05-5.43-6.05
		c-0.27,0-0.54,0.05-0.81,0.05v13.71h4.89c4.93,0,7.38-2.57,8.91-8.81h1.4l-0.32,10.33H212.2V441.07L212.2,441.07z"/>
	<path class="st0" d="M262.3,441.12h2.9v1.43c-3.03,0-6.02,0.14-9.09,0.38v-4.72c-1.76,3.33-3.94,4.86-7.19,4.86
		c-2.04,0-3.58-0.62-4.48-1.81c-0.63-0.9-0.72-2.05-0.72-3.62c0-0.57,0-1.29,0-2v-10.28h-2.94v-1.43c3.3-0.05,6.33-0.19,9.05-0.48
		v15c0,1.71,0.54,2.53,1.86,2.53c2.13,0,4.39-3.14,4.39-6.81v-8.81h-3.21v-1.43c3.12,0,6.24-0.19,9.46-0.48V441.12L262.3,441.12z"/>
	<path class="st0" d="M266.96,441.17h2.4v-15.71h-2.44v-1.43c2.85-0.1,5.7-0.29,8.55-0.57v5.09c1.22-3.24,3.3-5,5.52-5
		c2.26,0,3.94,1.67,3.94,3.86c0,1.95-1.31,3.43-3.21,3.43c-1.58,0-2.9-1.38-2.9-3.19c0-0.9,0.54-1.28,0.54-1.76
		c0-0.14-0.14-0.29-0.36-0.29c-1.04,0-3.39,3.28-3.39,7.14v8.43h3.26v1.43h-11.9V441.17L266.96,441.17z"/>
	<path class="st0" d="M297.13,423.46c6.34,0,10.59,4.14,10.59,9.81s-4.25,9.85-10.59,9.85c-6.33,0-10.54-4.14-10.54-9.81
		S290.8,423.46,297.13,423.46L297.13,423.46z M293.6,433.27c0,0.57,0,1.24,0,1.91c0,4.81,0.23,6.81,3.58,6.81s3.53-2.14,3.53-8
		c0-0.86,0-1.76,0-2.76c0-4.62-0.27-6.62-3.53-6.62C293.74,424.6,293.6,426.98,293.6,433.27L293.6,433.27z"/>
	<path class="st0" d="M309.46,451.6H312v-26.14h-2.94v-1.43c3.26-0.1,6.33-0.29,9.19-0.57v3.57c1.36-2.38,3.26-3.57,5.79-3.57
		c4.75,0,8.33,4.14,8.33,9.9c0,5.57-3.62,9.81-8.33,9.81c-2.53,0-4.43-1.14-5.79-3.53v11.95h3.26v1.43h-12.04V451.6L309.46,451.6z
		 M325.48,428.46c0-2.48-0.23-3.62-2.26-3.62c-2.9,0-4.98,2.52-4.98,6.71v3.57c0,4.19,2.04,6.71,4.98,6.71
		c1.95,0,2.26-1.19,2.26-3.57V428.46L325.48,428.46z"/>
	<path class="st0" d="M354.77,436.69c-1.49,4.38-4.34,6.43-8.91,6.43c-6.34,0-10.32-3.86-10.32-9.62c0-5.67,4.25-10.05,10.23-10.05
		c5.43,0,8.78,3.38,8.78,8.81c0,0.1,0,0.14,0,0.24h-11.85v4.67c0,3.33,0.72,4.76,3.62,4.76c3.62,0,6.11-1.91,7.42-5.62
		L354.77,436.69L354.77,436.69z M348.66,431.08v-3.62c0-2-0.9-2.86-2.99-2.86c-1.99,0-2.99,0.9-2.99,2.86v3.62H348.66L348.66,431.08
		z"/>
	<path class="st0" d="M362.17,443.07c-3.08,0-4.75-1.71-4.75-4.67c0-3.86,4.07-6.62,11.4-6.62v-4.53c0-1.95-0.54-2.57-3.03-2.57
		c-1.54,0-2.31,0.38-2.31,1.09c0,0.48,0.82,1.14,0.82,2.48c0,1.81-1.09,2.81-3.03,2.81c-1.72,0-2.67-1.05-2.67-2.9
		c0-2.95,2.94-4.72,8.37-4.72c2.53,0,4.44,0.43,5.57,1.05c1.77,0.95,1.86,2.14,1.86,4.33v9.62c0,1.1,0.41,1.62,1.4,1.62
		c0.59,0,0.82-0.43,1.13-0.43c0.27,0,0.45,0.24,0.45,0.48c0,0.81-1.58,2.95-4.25,2.95c-1.95,0-3.53-1.19-4.17-3.24
		C367.15,442.12,365.11,443.07,362.17,443.07L362.17,443.07z M368.28,433.07c-3.53,0-4.93,0.9-4.93,3.62c0,2.62,0.68,3.76,2.49,3.76
		c1.72,0,2.99-1.29,2.99-3.38v-4C368.64,433.07,368.46,433.07,368.28,433.07L368.28,433.07z"/>
	<path class="st0" d="M380.94,441.17v-15.81h-2.99v-1.48c2.94,0,5.97-0.09,9.19-0.33v4.71c1.72-3.28,3.89-4.76,7.19-4.76
		c4.71,0,5.2,2.29,5.2,6.76v10.9h2.62v1.43h-11.04v-1.43h2.31v-13.14c0-1.71-0.54-2.52-1.85-2.52c-2.08,0-4.39,3.09-4.39,6.76v8.9
		h2.26v1.43h-11.22v-1.43H380.94L380.94,441.17z"/>
	<path class="st0" d="M420.98,441.07v-27.99h-3.17v-1.43h16.43c6.33,0,9.91,3,9.91,7.38c0,3.76-2.85,6.09-8.42,6.95v0.38
		c6.38,0.57,9.59,3.19,9.59,7.71c0,5.19-4.34,8.52-11.4,8.52h-16.11v-1.52H420.98L420.98,441.07z M431.12,425.6
		c4.48,0,5.25-1.24,5.25-6.29c0-5.62-0.45-6.24-5.52-6.24h-2.54v12.52H431.12L431.12,425.6z M432.25,441.07
		c4.3,0,4.93-1.33,4.93-7.09c0-5.62-1.04-7.04-5.56-7.04h-3.3v14.14H432.25L432.25,441.07z"/>
	<path class="st0" d="M452.25,443.07c-3.08,0-4.75-1.71-4.75-4.67c0-3.86,4.07-6.62,11.4-6.62v-4.53c0-1.95-0.54-2.57-3.03-2.57
		c-1.54,0-2.31,0.38-2.31,1.09c0,0.48,0.82,1.14,0.82,2.48c0,1.81-1.09,2.81-3.03,2.81c-1.72,0-2.67-1.05-2.67-2.9
		c0-2.95,2.94-4.72,8.37-4.72c2.53,0,4.43,0.43,5.56,1.05c1.77,0.95,1.86,2.14,1.86,4.33v9.62c0,1.1,0.41,1.62,1.4,1.62
		c0.59,0,0.82-0.43,1.13-0.43c0.27,0,0.45,0.24,0.45,0.48c0,0.81-1.58,2.95-4.25,2.95c-1.94,0-3.53-1.19-4.17-3.24
		C457.22,442.12,455.19,443.07,452.25,443.07L452.25,443.07z M458.35,433.07c-3.53,0-4.93,0.9-4.93,3.62c0,2.62,0.68,3.76,2.49,3.76
		c1.72,0,2.99-1.29,2.99-3.38v-4C458.72,433.07,458.53,433.07,458.35,433.07L458.35,433.07z"/>
	<path class="st0" d="M471.24,441.17v-15.81h-2.99v-1.48c2.94,0,5.97-0.09,9.18-0.33v4.71c1.72-3.28,3.89-4.76,7.2-4.76
		c4.71,0,5.2,2.29,5.2,6.76v10.9h2.62v1.43h-11.04v-1.43h2.31v-13.14c0-1.71-0.54-2.52-1.86-2.52c-2.08,0-4.39,3.09-4.39,6.76v8.9
		h2.26v1.43h-11.22v-1.43H471.24L471.24,441.17z"/>
	<path class="st0" d="M496.12,441.17v-28.09h-2.22v-1.43c2.44-0.1,5.2-0.29,8.37-0.57v30.09h2.85v1.43h-11.22v-1.43H496.12
		L496.12,441.17z M510.38,425.41h-4.25v-1.43h9.46v1.43h-3.35l-4.66,4.05l8.69,11.71h1.85v1.43h-11.44v-1.43h2.26l-6.42-8.81
		L510.38,425.41L510.38,425.41z"/>
	<path class="st0" d="M140.02,468.11h-1.75v-0.88h1.75v-0.62c0-4.34,2.56-7.39,5.79-7.39c2.01,0,3.26,1.05,3.26,2.52
		c0,1.2-0.64,1.88-1.75,1.88c-0.97,0-1.67-0.68-1.67-1.64c0-0.88,0.72-1.2,0.72-1.52c0-0.21-0.31-0.41-0.81-0.41
		c-1.11,0-1.78,0.94-1.78,2.76c0,1.32,0.08,2.44,0.08,3.32v1.11h2.4v0.88h-2.4v9.68h1.95v0.88h-7.41v-0.88h1.62V468.11
		L140.02,468.11z"/>
	<path class="st0" d="M154.65,466.88c3.9,0,6.52,2.55,6.52,6.04c0,3.49-2.62,6.07-6.52,6.07c-3.9,0-6.49-2.55-6.49-6.04
		C148.16,469.46,150.75,466.88,154.65,466.88L154.65,466.88z M152.48,472.92c0,0.35,0,0.76,0,1.17c0,2.97,0.14,4.2,2.2,4.2
		c2.06,0,2.17-1.32,2.17-4.93c0-0.53,0-1.09,0-1.7c0-2.85-0.17-4.08-2.17-4.08C152.56,467.58,152.48,469.05,152.48,472.92
		L152.48,472.92z"/>
	<path class="st0" d="M163.07,477.79h1.48v-9.68h-1.5v-0.88c1.76-0.06,3.51-0.18,5.27-0.35v3.14c0.75-1.99,2.03-3.08,3.4-3.08
		c1.39,0,2.42,1.03,2.42,2.38c0,1.2-0.81,2.11-1.98,2.11c-0.98,0-1.78-0.85-1.78-1.96c0-0.56,0.33-0.79,0.33-1.08
		c0-0.09-0.08-0.18-0.22-0.18c-0.64,0-2.09,2.02-2.09,4.4v5.19h2v0.88h-7.33V477.79L163.07,477.79z"/>
	<path class="st0" d="M185.95,477.73v-17.25h-2.12v-0.88h10.11c4.23,0,6.46,1.52,6.46,4.17c0,2.7-2.12,4.4-6.02,4.61v0.23
		c4.07,0.59,5.4,2.49,5.4,6.81c0,1.52,0.14,2.26,1.17,2.26c0.33,0,0.75-0.09,1.23-0.27l0.28,0.79c-1.31,0.62-2.42,0.88-3.15,0.88
		c-1.56,0-2.81-0.53-3.51-1.35c-1.2-1.41-1.11-3.23-1.2-5.34c-0.11-2.58-1-3.52-3.59-3.52c-0.14,0-0.31,0-0.47,0v8.86h2.37v0.94
		h-9.08v-0.94H185.95L185.95,477.73z M192.83,467.93c2.28,0,2.65-0.91,2.65-3.58c0-3.34-0.08-3.87-2.65-3.87h-2.28v7.46H192.83
		L192.83,467.93z"/>
	<path class="st0" d="M215.13,475.03c-0.92,2.7-2.67,3.96-5.49,3.96c-3.9,0-6.35-2.38-6.35-5.93c0-3.49,2.62-6.19,6.29-6.19
		c3.34,0,5.4,2.08,5.4,5.43c0,0.06,0,0.09,0,0.15h-7.3v2.88c0,2.05,0.45,2.94,2.23,2.94c2.23,0,3.76-1.18,4.57-3.46L215.13,475.03
		L215.13,475.03z M211.37,471.57v-2.23c0-1.23-0.56-1.76-1.84-1.76c-1.23,0-1.84,0.56-1.84,1.76v2.23H211.37L211.37,471.57z"/>
	<path class="st0" d="M228.33,475.03c-0.86,2.61-2.54,3.93-4.96,3.93c-3.57,0-6.16-2.7-6.16-6.07c0-3.29,2.76-6.01,6.41-6.01
		c2.59,0,4.23,1.41,4.23,3.23c0,1.09-0.75,1.88-1.78,1.88c-1.2,0-1.9-0.79-1.9-1.97c0-1.11,0.86-1.46,0.86-1.79
		c0-0.47-0.47-0.67-1.42-0.67c-2.06,0-2.14,1.11-2.14,3.58v3.52c0,2.43,0.22,3.49,2.2,3.49c1.92,0,3.29-1.14,4.01-3.34
		L228.33,475.03L228.33,475.03z"/>
	<path class="st0" d="M236.79,466.88c3.9,0,6.52,2.55,6.52,6.04c0,3.49-2.62,6.07-6.52,6.07c-3.9,0-6.49-2.55-6.49-6.04
		C230.29,469.46,232.89,466.88,236.79,466.88L236.79,466.88z M234.61,472.92c0,0.35,0,0.76,0,1.17c0,2.97,0.14,4.2,2.2,4.2
		c2.06,0,2.17-1.32,2.17-4.93c0-0.53,0-1.09,0-1.7c0-2.85-0.17-4.08-2.17-4.08C234.7,467.58,234.61,469.05,234.61,472.92
		L234.61,472.92z"/>
	<path class="st0" d="M246.59,477.79v-9.74h-1.84v-0.91c1.81,0,3.68-0.06,5.65-0.21v2.9c1.06-2.02,2.4-2.93,4.43-2.93
		c2.9,0,3.2,1.41,3.2,4.17v6.72h1.62v0.88h-6.8v-0.88h1.42v-8.1c0-1.06-0.33-1.55-1.14-1.55c-1.28,0-2.7,1.91-2.7,4.17v5.49h1.39
		v0.88h-6.91v-0.88H246.59L246.59,477.79z"/>
	<path class="st0" d="M261.31,474.42h0.72c0.64,2.52,2.01,3.81,3.98,3.81c1.64,0,2.65-0.97,2.65-2.08c0-1.35-1.25-1.23-3.51-1.58
		c-2.62-0.41-3.87-1.26-3.87-3.58c0-2.55,1.56-4.11,3.93-4.11c0.98,0,1.9,0.26,2.65,0.68l0.58-0.53H269l0.08,3.26h-0.72
		c-0.56-1.79-1.62-2.7-3.12-2.7c-1.56,0-2.53,0.77-2.53,1.59c0,1.05,1.17,1.08,3.51,1.41c2.81,0.38,3.96,1.38,3.96,4.02
		c0,2.7-1.56,4.4-4.23,4.4c-1.31,0-2.37-0.35-3.15-0.97l-0.78,0.65h-0.67L261.31,474.42L261.31,474.42z"/>
	<path class="st0" d="M273.14,468.08h-1.59v-0.88h1.59v-3.55c0.53,0.06,1.06,0.09,1.62,0.09c0.7,0,1.39-0.06,2.12-0.15v3.61h2.23
		v0.88h-2.23v7.98c0,0.97,0.19,1.29,0.89,1.29c0.7,0,1.17-0.65,1.25-1.67h0.75c-0.11,1.99-1.64,3.28-3.87,3.28
		c-2.42,0-2.76-0.85-2.76-2.9V468.08L273.14,468.08z"/>
	<path class="st0" d="M280.94,477.79h1.48v-9.68h-1.5v-0.88c1.75-0.06,3.51-0.18,5.27-0.35v3.14c0.75-1.99,2.03-3.08,3.4-3.08
		c1.39,0,2.42,1.03,2.42,2.38c0,1.2-0.81,2.11-1.98,2.11c-0.97,0-1.78-0.85-1.78-1.96c0-0.56,0.33-0.79,0.33-1.08
		c0-0.09-0.08-0.18-0.22-0.18c-0.64,0-2.09,2.02-2.09,4.4v5.19h2.01v0.88h-7.33V477.79L280.94,477.79z"/>
	<path class="st0" d="M306.05,477.76h1.78v0.88c-1.87,0-3.7,0.09-5.6,0.24v-2.91c-1.09,2.05-2.42,2.99-4.43,2.99
		c-1.25,0-2.2-0.38-2.76-1.11c-0.39-0.56-0.45-1.26-0.45-2.23c0-0.35,0-0.79,0-1.23v-6.34h-1.81v-0.88c2.03-0.03,3.9-0.12,5.57-0.29
		v9.24c0,1.06,0.33,1.56,1.14,1.56c1.31,0,2.7-1.94,2.7-4.2v-5.43h-1.98v-0.88c1.92,0,3.84-0.12,5.82-0.29V477.76L306.05,477.76z"/>
	<path class="st0" d="M320.35,475.03c-0.86,2.61-2.54,3.93-4.96,3.93c-3.57,0-6.16-2.7-6.16-6.07c0-3.29,2.76-6.01,6.41-6.01
		c2.59,0,4.23,1.41,4.23,3.23c0,1.09-0.75,1.88-1.78,1.88c-1.2,0-1.89-0.79-1.89-1.97c0-1.11,0.86-1.46,0.86-1.79
		c0-0.47-0.47-0.67-1.42-0.67c-2.06,0-2.14,1.11-2.14,3.58v3.52c0,2.43,0.22,3.49,2.2,3.49c1.92,0,3.29-1.14,4.01-3.34
		L320.35,475.03L320.35,475.03z"/>
	<path class="st0" d="M323.59,468.08h-1.59v-0.88h1.59v-3.55c0.53,0.06,1.06,0.09,1.62,0.09c0.7,0,1.39-0.06,2.12-0.15v3.61h2.23
		v0.88h-2.23v7.98c0,0.97,0.19,1.29,0.89,1.29c0.7,0,1.17-0.65,1.25-1.67h0.75c-0.11,1.99-1.64,3.28-3.87,3.28
		c-2.42,0-2.76-0.85-2.76-2.9V468.08L323.59,468.08z"/>
	<path class="st0" d="M331.23,477.79h1.64v-9.68h-1.81v-0.88c2.01-0.06,3.9-0.18,5.65-0.35v10.91h1.73v0.88h-7.22V477.79
		L331.23,477.79z M334.74,460.22c1.06,0,1.92,0.91,1.92,2.05c0,1.11-0.86,2.05-1.95,2.05c-1.09,0-1.92-0.94-1.92-2.05
		C332.79,461.12,333.68,460.22,334.74,460.22L334.74,460.22z"/>
	<path class="st0" d="M346.11,466.88c3.9,0,6.52,2.55,6.52,6.04c0,3.49-2.62,6.07-6.52,6.07s-6.49-2.55-6.49-6.04
		C339.62,469.46,342.21,466.88,346.11,466.88L346.11,466.88z M343.94,472.92c0,0.35,0,0.76,0,1.17c0,2.97,0.14,4.2,2.2,4.2
		c2.06,0,2.17-1.32,2.17-4.93c0-0.53,0-1.09,0-1.7c0-2.85-0.17-4.08-2.17-4.08C344.02,467.58,343.94,469.05,343.94,472.92
		L343.94,472.92z"/>
	<path class="st0" d="M355.64,477.79v-9.74h-1.84v-0.91c1.81,0,3.68-0.06,5.66-0.21v2.9c1.06-2.02,2.4-2.93,4.43-2.93
		c2.9,0,3.2,1.41,3.2,4.17v6.72h1.61v0.88h-6.8v-0.88h1.42v-8.1c0-1.06-0.33-1.55-1.14-1.55c-1.28,0-2.7,1.91-2.7,4.17v5.49h1.39
		v0.88h-6.91v-0.88H355.64L355.64,477.79z"/>
	<path class="st0" d="M381.36,478.96c-1.9,0-2.93-1.06-2.93-2.88c0-2.38,2.51-4.08,7.02-4.08v-2.79c0-1.2-0.33-1.58-1.87-1.58
		c-0.95,0-1.42,0.24-1.42,0.68c0,0.29,0.5,0.7,0.5,1.52c0,1.12-0.67,1.73-1.87,1.73c-1.06,0-1.64-0.65-1.64-1.79
		c0-1.82,1.81-2.9,5.15-2.9c1.56,0,2.73,0.26,3.43,0.65c1.09,0.59,1.14,1.32,1.14,2.67v5.92c0,0.68,0.25,1,0.86,1
		c0.36,0,0.5-0.26,0.7-0.26c0.17,0,0.28,0.15,0.28,0.29c0,0.5-0.98,1.82-2.62,1.82c-1.2,0-2.17-0.73-2.56-1.99
		C384.43,478.38,383.17,478.96,381.36,478.96L381.36,478.96z M385.13,472.8c-2.17,0-3.04,0.56-3.04,2.23c0,1.61,0.42,2.32,1.53,2.32
		c1.06,0,1.84-0.79,1.84-2.08v-2.46C385.35,472.8,385.24,472.8,385.13,472.8L385.13,472.8z"/>
	<path class="st0" d="M393.07,477.79v-9.74h-1.84v-0.91c1.81,0,3.68-0.06,5.65-0.21v2.9c1.06-2.02,2.4-2.93,4.43-2.93
		c2.9,0,3.2,1.41,3.2,4.17v6.72h1.61v0.88h-6.8v-0.88h1.42v-8.1c0-1.06-0.33-1.55-1.14-1.55c-1.28,0-2.7,1.91-2.7,4.17v5.49h1.39
		v0.88h-6.91v-0.88H393.07L393.07,477.79z"/>
	<path class="st0" d="M416.09,476.85c-0.84,1.47-2.03,2.17-3.6,2.17c-2.9,0-5.12-2.61-5.12-6.04c0-3.55,2.2-6.1,5.12-6.1
		c1.56,0,2.76,0.73,3.6,2.2v-8.6h-2.14v-0.88c2.31-0.06,4.29-0.18,5.9-0.35v18.54h1.5v0.88h-5.27V476.85L416.09,476.85z
		 M416.09,471.86c0-2.58-1.28-4.14-3.09-4.14c-1.17,0-1.37,0.65-1.37,2.14v6.1c0,1.53,0.22,2.23,1.37,2.23
		c1.81,0,3.09-1.55,3.09-4.14V471.86L416.09,471.86z"/>
	<path class="st0" d="M433.34,477.73v-17.25h-2.2v-0.88h9.28c2.42,0,4.29,0.41,5.99,1.7c2.2,1.67,3.57,4.58,3.57,7.84
		c0,3.26-1.39,6.19-3.65,7.89c-1.53,1.14-3.48,1.64-6.02,1.64h-9.17v-0.94H433.34L433.34,477.73z M440.21,477.73
		c1.64,0,2.67-0.12,3.46-1.11c0.94-1.23,1.11-3.32,1.11-6.37c0-0.47,0-0.91,0-1.35c0-3.11-0.06-5.31-0.75-6.69
		c-0.78-1.53-1.9-1.73-3.82-1.73h-2.28v17.25H440.21L440.21,477.73z"/>
	<path class="st0" d="M463.71,475.03c-0.92,2.7-2.67,3.96-5.49,3.96c-3.9,0-6.35-2.38-6.35-5.93c0-3.49,2.62-6.19,6.3-6.19
		c3.34,0,5.4,2.08,5.4,5.43c0,0.06,0,0.09,0,0.15h-7.3v2.88c0,2.05,0.44,2.94,2.23,2.94c2.23,0,3.76-1.18,4.57-3.46L463.71,475.03
		L463.71,475.03z M459.95,471.57v-2.23c0-1.23-0.56-1.76-1.84-1.76c-1.23,0-1.84,0.56-1.84,1.76v2.23H459.95L459.95,471.57z"/>
	<path class="st0" d="M465.63,468.11h-1.17v-0.88h6.69v0.88h-1.39l2.7,6.42l2.2-5.31c0.09-0.18,0.17-0.35,0.17-0.65
		c0-0.29-0.25-0.47-0.75-0.47h-1.2v-0.88h4.49v0.88h-0.75c-0.45,0-0.7,0.18-0.97,0.82l-4.21,10.15h-0.75L465.63,468.11
		L465.63,468.11z"/>
	<path class="st0" d="M489.83,475.03c-0.92,2.7-2.67,3.96-5.49,3.96c-3.9,0-6.35-2.38-6.35-5.93c0-3.49,2.62-6.19,6.3-6.19
		c3.34,0,5.4,2.08,5.4,5.43c0,0.06,0,0.09,0,0.15h-7.3v2.88c0,2.05,0.45,2.94,2.23,2.94c2.23,0,3.76-1.18,4.57-3.46L489.83,475.03
		L489.83,475.03z M486.07,471.57v-2.23c0-1.23-0.56-1.76-1.84-1.76c-1.23,0-1.84,0.56-1.84,1.76v2.23H486.07L486.07,471.57z"/>
	<path class="st0" d="M492.5,477.79v-17.31h-1.81v-0.88c2-0.06,3.9-0.18,5.66-0.35v18.54h1.75v0.88h-7.21v-0.88H492.5L492.5,477.79z
		"/>
	<path class="st0" d="M505.91,466.88c3.9,0,6.52,2.55,6.52,6.04c0,3.49-2.62,6.07-6.52,6.07c-3.9,0-6.49-2.55-6.49-6.04
		C499.42,469.46,502.01,466.88,505.91,466.88L505.91,466.88z M503.74,472.92c0,0.35,0,0.76,0,1.17c0,2.97,0.14,4.2,2.2,4.2
		c2.06,0,2.17-1.32,2.17-4.93c0-0.53,0-1.09,0-1.7c0-2.85-0.17-4.08-2.17-4.08C503.82,467.58,503.74,469.05,503.74,472.92
		L503.74,472.92z"/>
	<path class="st0" d="M513.93,484.22h1.56v-16.11h-1.81v-0.88c2-0.06,3.9-0.18,5.65-0.35v2.2c0.84-1.47,2.01-2.2,3.57-2.2
		c2.92,0,5.12,2.55,5.12,6.1c0,3.43-2.23,6.04-5.12,6.04c-1.56,0-2.73-0.7-3.57-2.17v7.36h2.01v0.88h-7.41V484.22L513.93,484.22z
		 M523.79,469.96c0-1.53-0.14-2.23-1.39-2.23c-1.78,0-3.07,1.55-3.07,4.14v2.2c0,2.58,1.26,4.14,3.07,4.14c1.2,0,1.39-0.73,1.39-2.2
		V469.96L523.79,469.96z"/>
	<path class="st0" d="M531.2,477.79v-9.71h-1.73v-0.88c1.7,0,3.51-0.09,5.46-0.24v2.91c1.03-2.02,2.37-2.93,4.34-2.93
		c2.03,0,3.12,0.97,3.18,2.84c1.03-1.96,2.37-2.84,4.37-2.84c1.26,0,2.15,0.35,2.73,1.08c0.42,0.53,0.47,1.23,0.47,2.08
		c0,0.27,0,0.56,0,0.85v6.84h1.7v0.88h-6.91v-0.88h1.45v-8.07c0-1.06-0.33-1.53-1.14-1.53c-1.28,0-2.7,1.82-2.7,4.14v5.46h1.37v0.88
		h-6.46v-0.88h1.42v-8.07c0-1.06-0.33-1.53-1.14-1.53c-1.28,0-2.65,1.88-2.65,4.14v5.46h1.37v0.88h-6.63v-0.88H531.2L531.2,477.79z"
		/>
	<path class="st0" d="M564.76,475.03c-0.92,2.7-2.67,3.96-5.49,3.96c-3.9,0-6.35-2.38-6.35-5.93c0-3.49,2.62-6.19,6.3-6.19
		c3.34,0,5.4,2.08,5.4,5.43c0,0.06,0,0.09,0,0.15h-7.3v2.88c0,2.05,0.44,2.94,2.23,2.94c2.23,0,3.76-1.18,4.57-3.46L564.76,475.03
		L564.76,475.03z M561,471.57v-2.23c0-1.23-0.56-1.76-1.84-1.76c-1.22,0-1.84,0.56-1.84,1.76v2.23H561L561,471.57z"/>
	<path class="st0" d="M568.02,477.79v-9.74h-1.84v-0.91c1.81,0,3.67-0.06,5.65-0.21v2.9c1.06-2.02,2.4-2.93,4.43-2.93
		c2.9,0,3.2,1.41,3.2,4.17v6.72h1.61v0.88h-6.8v-0.88h1.42v-8.1c0-1.06-0.33-1.55-1.14-1.55c-1.28,0-2.7,1.91-2.7,4.17v5.49h1.39
		v0.88h-6.91v-0.88H568.02L568.02,477.79z"/>
	<path class="st0" d="M583.6,468.08h-1.59v-0.88h1.59v-3.55c0.53,0.06,1.06,0.09,1.62,0.09c0.7,0,1.39-0.06,2.12-0.15v3.61h2.23
		v0.88h-2.23v7.98c0,0.97,0.2,1.29,0.89,1.29c0.7,0,1.17-0.65,1.25-1.67h0.75c-0.11,1.99-1.64,3.28-3.87,3.28
		c-2.43,0-2.76-0.85-2.76-2.9V468.08L583.6,468.08z"/>
	<g>
		<path class="st1" d="M398.72,260.63c-10.6-5.33-25.14-7.38-36.7-2.46c-23.98,10.44-32.47,36.5-32.69,60.77
			c0.46,13.73,4.11,26.21,11.03,37.13c4.48-3.5,6.51-8.56,8.68-13.22c3.26-8.21,5.02-16.97,4.86-26.48
			c0.76-17.94,7.54-37.72,25.32-45.44c13.67-5.08,27.46,0.84,36.8,11.62c11.3,13.61,15.91,33.1,10.96,50.7
			c-3.06,13.37-13.09,28.84-27.35,32.52c-6.92,1.95-15.02,0.86-21.11-2.5c-3.59,5.71-8.27,11.18-13.79,15.21l0,0.12
			c10.37,4.7,24.24,3.88,34.12-1.62c-18.34,13.72-46.98,17.4-68.71,8.3c-5.39-2.21-10.65-4.99-15.51-8.49
			c11.36,6.42,29.16,8.18,41.09,0.89c19.43-11.65,27.31-32.91,28.51-54.04c0.78-15.71-3.33-29.92-10.92-42.21
			c-4.65,3.69-6.83,8.96-8.96,13.93c-3.51,8.82-4.82,18.47-4.7,28.65c-1.35,16.66-8.3,34.81-24.55,42.3
			c-11.86,5.08-25.15,0.57-34.21-8.29c-14.9-14.52-19.51-38.66-12.55-58.32c3.48-11.78,13.31-24.98,25.9-27.97
			c6.67-2.01,14.81-0.77,20.84,2.48c3.5-5.56,8.39-11.07,13.86-14.87l0-0.15c-9.88-4.51-24-3.88-33.62,1.27
			c16.91-12.2,42.48-16.4,63.28-9.6C385.67,253.18,392.48,256.22,398.72,260.63L398.72,260.63z"/>
	</g>
</g>
</svg>
