<?xml version="1.0" encoding="utf-8"?>
<!-- Generator: Adobe Illustrator 23.0.4, SVG Export Plug-In . SVG Version: 6.00 Build 0)  -->
<svg version="1.1" id="Layer_1" xmlns="http://www.w3.org/2000/svg" xmlns:xlink="http://www.w3.org/1999/xlink" x="0px" y="0px"
	 viewBox="0 0 1920 500" style="enable-background:new 0 0 1920 500;" xml:space="preserve">
<style type="text/css">
	.st0{fill:#7EA831;}
	.st1{fill:#B61D8D;}
	.st2{fill:#0080B8;}
	.st3{fill:#77787B;}
	.st4{fill:#231F20;}
	.st5{fill:#002F87;}
	.st6{fill:#1C3E70;}
	.st7{fill:#FDEB07;}
	.st8{fill:#010101;}
</style>
<g>
	<path class="st0" d="M597.1,261v-0.3c0-6.4-4.6-9.6-12.4-9.6h-8v19.5h7.9C592.1,270.6,597.1,267.2,597.1,261"/>
	<path class="st0" d="M642.2,227.7h19.4l-28.8-62.9l-108.6,49.7l23.1,50.6v-37.4h39.5c23.3,0,39.2,10.4,39.2,31.2v0.2
		c0,21.2-16.2,32.5-39.8,32.5h-9.5v30.3l65.5-30V227.7L642.2,227.7z"/>
	<path class="st1" d="M691.9,261v-0.3c0-6.4-4.6-9.6-12.4-9.6h-8v19.5h7.9C686.9,270.6,691.9,267.2,691.9,261"/>
	<path class="st1" d="M720.5,264.4c-2.5,17.7-17.8,27.2-39.4,27.2h-9.5V322h-29.3v-66.3c-12.5,10.1-20.5,25.6-20.5,43
		c0,30.6,24.8,55.3,55.3,55.3c30.5,0,55.3-24.8,55.3-55.3C732.4,285.7,727.9,273.8,720.5,264.4"/>
	<polygon class="st2" points="696.6,216.2 742.7,277.5 724,227.7 756.9,227.7 773.9,276.9 790.9,227.7 823.3,227.7 787.7,322.6 
		776.6,322.6 791.4,342.3 854.5,196.4 696.6,216.2 	"/>
	<path class="st3" d="M674.7,181.3l3.2-0.4l1.5,11.7l0.1,0c0.5-1,1.1-2,1.6-2.8l6.2-10.1l3.9-0.5l-7.4,11.4l11.3,12.8l-3.7,0.5
		l-9.5-10.9l-2,3l1.2,9.3l-3.2,0.4L674.7,181.3L674.7,181.3z"/>
	<path class="st3" d="M697.4,203.1l-3.1-24.3l3.5-0.5l9.3,11.3c2.1,2.7,3.9,5,5.4,7.4l0.1,0c-0.7-3.2-1.2-6.1-1.6-9.9l-1.3-10.2
		l3-0.4l3.1,24.3l-3.2,0.4l-9.3-11.3c-2-2.5-4-5-5.6-7.5l-0.1,0c0.6,3,1,5.9,1.5,10l1.3,10.4L697.4,203.1L697.4,203.1z"/>
	<path class="st3" d="M721.4,187.7c0.7,5.5,4.1,9.6,9,8.9c5.1-0.7,7.2-5.6,6.5-10.9c-0.6-5-3.7-9.7-9-9
		C722.9,177.3,720.7,182.2,721.4,187.7 M740.3,185.2c1,8.1-3.5,13.2-9.7,14c-6.6,0.8-11.6-3.7-12.5-11c-1-7.5,3-13.3,9.7-14.1
		C734.7,173.2,739.4,178.2,740.3,185.2"/>
	<path class="st3" d="M749.8,196.3l-9.3-23.5l3.4-0.4l4.5,11.9c1.1,2.9,2.1,5.9,2.9,8.2l0.1,0c0.1-2.5,0.5-5.5,0.9-8.7l1.7-12.7
		l3.3-0.4l4.5,11.9c1.1,2.8,2.1,5.6,2.8,8.1l0.1,0c0.2-2.7,0.5-5.6,0.8-8.6l1.6-12.7l3.2-0.4l-3.8,25.2l-3.3,0.4l-4.7-12.3
		c-1.2-3-2-5.3-2.6-7.7l-0.1,0c-0.1,2.5-0.4,4.9-0.9,8.2l-1.8,13.1L749.8,196.3L749.8,196.3z"/>
	<polygon class="st3" points="773.2,168.7 776.4,168.3 779.1,189.9 789.5,188.5 789.8,191.2 776.3,192.9 773.2,168.7 	"/>
	<polygon class="st3" points="804.4,177.8 795,179 796.1,187.8 806.7,186.4 807,189 793.3,190.8 790.2,166.5 803.3,164.8 
		803.7,167.4 793.7,168.7 794.7,176.4 804.1,175.2 804.4,177.8 	"/>
	<path class="st3" d="M813.8,185.6c0.8,0,2-0.1,3.2-0.2c6.7-0.9,9.9-5.1,9-11.6c-0.7-5.7-4.4-9-11-8.1c-1.6,0.2-2.8,0.5-3.6,0.8
		L813.8,185.6L813.8,185.6z M807.9,164.5c1.9-0.5,4.1-1,6.6-1.4c4.5-0.6,7.8,0.1,10.2,1.8c2.4,1.7,4,4.4,4.5,8.3
		c0.5,4-0.3,7.3-2.3,9.9c-2,2.6-5.6,4.3-10.3,4.9c-2.2,0.3-4.1,0.4-5.8,0.4L807.9,164.5L807.9,164.5z"/>
	<path class="st3" d="M853.3,181.9c-1.3,0.7-4,1.9-7.3,2.3c-3.7,0.5-6.8-0.1-9.5-2c-2.4-1.7-4.1-4.8-4.5-8.6
		c-0.9-7.2,3.4-13.2,11.5-14.2c2.8-0.4,5.1,0,6.2,0.3l-0.4,2.7c-1.4-0.4-3-0.7-5.5-0.4c-5.9,0.8-9.3,4.9-8.5,11
		c0.8,6.2,4.9,9.3,10.6,8.6c2-0.3,3.4-0.7,4.1-1.2l-0.9-7.2l-4.9,0.6l-0.3-2.5l8-1L853.3,181.9L853.3,181.9z"/>
	<polygon class="st3" points="869.3,169.4 859.9,170.6 861,179.4 871.6,178.1 871.9,180.7 858.2,182.4 855.1,158.1 868.2,156.4 
		868.6,159 858.6,160.3 859.6,168 869,166.8 869.3,169.4 	"/>
	<path class="st3" d="M823.6,361.2l-22.5-9.7l1.4-3.2l14.4-2.3c3.4-0.5,6.3-0.8,9.1-0.9l0-0.1c-3.1-1-5.9-2.1-9.3-3.6l-9.4-4.1
		l1.2-2.7l22.5,9.7l-1.3,2.9l-14.5,2.2c-3.2,0.5-6.4,0.9-9.3,1l0,0.1c2.9,1.1,5.6,2.2,9.4,3.8l9.6,4.1L823.6,361.2L823.6,361.2z"/>
	<polygon class="st3" points="827.5,323.1 823.8,331.8 831.9,335.3 836.1,325.6 838.5,326.6 833,339.3 810.6,329.6 815.8,317.4 
		818.2,318.5 814.2,327.7 821.4,330.8 825.1,322.1 827.5,323.1 	"/>
	<polygon class="st3" points="822.2,309.5 819.2,316.3 816.8,315.2 823.9,298.6 826.4,299.7 823.5,306.5 843.5,315.2 842.2,318.1 
		822.2,309.5 	"/>
	<path class="st3" d="M849.6,300.8l-24.9-4l1.3-3.1l12.5,2.2c3.1,0.5,6.2,1.1,8.5,1.7l0-0.1c-2.1-1.3-4.5-3.2-7-5.2l-10-7.9l1.3-3
		l12.6,2.2c2.9,0.5,5.9,1.1,8.4,1.8l0-0.1c-2.3-1.5-4.5-3.3-7-5.1l-10.1-7.9l1.3-3l19.7,16.1l-1.3,3.1l-12.9-2.2
		c-3.2-0.5-5.6-1-8-1.7l0,0.1c2.1,1.4,4,2.8,6.6,4.9l10.3,8.2L849.6,300.8L849.6,300.8z"/>
	<path class="st3" d="M849.8,269.7c5.1,2.2,10.3,1.4,12.3-3.2c2-4.7-1.2-9.1-6.1-11.2c-4.6-2-10.2-1.8-12.4,3.2
		C841.6,263.1,844.7,267.5,849.8,269.7 M857.2,252.2c7.5,3.2,9.6,9.8,7.1,15.5c-2.6,6.1-9.1,8-15.8,5.2c-6.9-3-9.9-9.4-7.2-15.6
		C844.1,250.8,850.7,249.4,857.2,252.2"/>
	<path class="st3" d="M859.4,245.3l1.3-3c1.3-3.1,0.5-5.8-2.1-6.9c-2.9-1.3-5.1,0.3-6.4,3.4c-0.6,1.4-0.9,2.5-1,3L859.4,245.3
		L859.4,245.3z M847.9,243.8c0.3-1.6,1.1-3.8,1.9-5.8c1.3-3.1,2.8-4.9,4.6-5.7c1.5-0.7,3.3-0.7,5,0.1c3,1.3,4.1,4,3.9,6.7l0.1,0
		c1.4-1.5,3.5-1.8,6-1.3c3.5,0.6,5.8,1,6.9,0.9l-1.3,3c-0.8,0.1-2.9-0.2-6-0.8c-3.4-0.7-5.1,0-6.3,2.6l-1.2,2.7l9.7,4.2l-1.3,2.9
		L847.9,243.8L847.9,243.8z"/>
	<path class="st3" d="M855.4,225.7l1.3-2.9l10.8,4.7l0-0.1c-0.6-1-1.1-1.9-1.6-2.8l-5.5-10.5l1.5-3.6l6,12.2l16.7-3.2l-1.5,3.4
		l-14.2,2.6l1.6,3.2l8.6,3.7l-1.3,2.9L855.4,225.7L855.4,225.7z"/>
	<path class="st3" d="M881.9,216.2c1.4-1,2.8-2.6,3.7-4.6c1.3-3,0.5-5.4-1.8-6.4c-2.1-0.9-3.8-0.2-6.3,2.3c-2.8,3.1-5.8,4.5-8.9,3.2
		c-3.5-1.5-4.8-5.5-2.9-9.9c1-2.3,2.2-3.7,3.2-4.5l2,1.8c-0.7,0.6-2,1.8-2.9,3.8c-1.3,3.1,0,5,1.5,5.7c2.1,0.9,3.7,0,6.3-2.6
		c3.1-3.2,5.8-4.3,9.1-2.9c3.5,1.5,5.4,5.4,3.1,10.7c-0.9,2.2-2.6,4.3-4,5.1L881.9,216.2L881.9,216.2z"/>
</g>
<g>
	<path class="st4" d="M1065.8,301h2.4v-19.1h-2.1v-1h16.7l0.1,5.6h-1c-1.4-3.6-2.5-4.6-5.2-4.6h-3.4v8.7c0.2,0,0.5,0,0.7,0
		c2.2,0,3.2-1.1,3.6-3.9h1v9h-1c-0.2-2.9-1.3-4.1-3.7-4.1c-0.2,0-0.4,0-0.6,0v9.4h3.3c3.4,0,5-1.8,6.1-6h1l-0.2,7.1h-17.7V301
		L1065.8,301L1065.8,301z"/>
	<path class="st4" d="M1100,301h2v1c-2.1,0-4.1,0.1-6.2,0.3V299c-1.2,2.3-2.7,3.3-4.9,3.3c-1.4,0-2.4-0.4-3.1-1.2
		c-0.4-0.6-0.5-1.4-0.5-2.5c0-0.4,0-0.9,0-1.4v-7h-2v-1c2.3,0,4.3-0.1,6.2-0.3v10.2c0,1.2,0.4,1.7,1.3,1.7c1.5,0,3-2.1,3-4.6v-6
		h-2.2v-1c2.1,0,4.3-0.1,6.5-0.3V301L1100,301L1100,301z"/>
	<path class="st4" d="M1103.2,301.1h1.6v-10.7h-1.7v-1c1.9-0.1,3.9-0.2,5.8-0.4v3.5c0.8-2.2,2.3-3.4,3.8-3.4c1.5,0,2.7,1.1,2.7,2.6
		c0,1.3-0.9,2.3-2.2,2.3c-1.1,0-2-0.9-2-2.2c0-0.6,0.4-0.9,0.4-1.2c0-0.1-0.1-0.2-0.2-0.2c-0.7,0-2.3,2.2-2.3,4.9v5.7h2.2v1h-8.1
		V301.1L1103.2,301.1L1103.2,301.1z"/>
	<path class="st4" d="M1121.4,295.7c0,0.4,0,0.8,0,1.3c0,3.3,0.2,4.6,2.4,4.6c2.3,0,2.4-1.5,2.4-5.5c0-0.6,0-1.2,0-1.9
		c0-3.2-0.2-4.5-2.4-4.5C1121.4,289.8,1121.4,291.4,1121.4,295.7L1121.4,295.7L1121.4,295.7z M1123.8,289c4.3,0,7.2,2.8,7.2,6.7
		c0,3.9-2.9,6.7-7.2,6.7c-4.3,0-7.2-2.8-7.2-6.7C1116.6,291.8,1119.4,289,1123.8,289L1123.8,289L1123.8,289z"/>
	<path class="st4" d="M1143.1,292.4c0-1.7-0.2-2.5-1.5-2.5c-2,0-3.4,1.7-3.4,4.6v2.4c0,2.9,1.4,4.6,3.4,4.6c1.3,0,1.5-0.8,1.5-2.4
		V292.4L1143.1,292.4L1143.1,292.4z M1132.2,308.2h1.7v-17.8h-2v-1c2.2-0.1,4.3-0.2,6.3-0.4v2.4c0.9-1.6,2.2-2.4,4-2.4
		c3.2,0,5.7,2.8,5.7,6.8c0,3.8-2.5,6.7-5.7,6.7c-1.7,0-3-0.8-4-2.4v8.2h2.2v1h-8.2V308.2L1132.2,308.2L1132.2,308.2z"/>
	<path class="st4" d="M1158.9,294.2v-2.5c0-1.4-0.6-1.9-2-1.9c-1.4,0-2,0.6-2,1.9v2.5H1158.9L1158.9,294.2L1158.9,294.2z
		 M1163.1,298c-1,3-3,4.4-6.1,4.4c-4.3,0-7-2.6-7-6.6c0-3.9,2.9-6.9,7-6.9c3.7,0,6,2.3,6,6c0,0.1,0,0.1,0,0.2h-8.1v3.2
		c0,2.3,0.5,3.2,2.5,3.2c2.5,0,4.2-1.3,5.1-3.8L1163.1,298L1163.1,298L1163.1,298z"/>
	<path class="st4" d="M1172.3,295.5c-2.4,0-3.4,0.6-3.4,2.5c0,1.8,0.5,2.6,1.7,2.6c1.2,0,2-0.9,2-2.3v-2.7
		C1172.6,295.5,1172.4,295.5,1172.3,295.5L1172.3,295.5L1172.3,295.5z M1168.1,302.4c-2.1,0-3.2-1.2-3.2-3.2c0-2.6,2.8-4.5,7.8-4.5
		v-3.1c0-1.3-0.4-1.8-2.1-1.8c-1.1,0-1.6,0.3-1.6,0.7c0,0.3,0.6,0.8,0.6,1.7c0,1.2-0.7,1.9-2.1,1.9c-1.2,0-1.8-0.7-1.8-2
		c0-2,2-3.2,5.7-3.2c1.7,0,3,0.3,3.8,0.7c1.2,0.7,1.3,1.5,1.3,3v6.6c0,0.7,0.3,1.1,1,1.1c0.4,0,0.6-0.3,0.8-0.3
		c0.2,0,0.3,0.2,0.3,0.3c0,0.6-1.1,2-2.9,2c-1.3,0-2.4-0.8-2.8-2.2C1171.5,301.7,1170.2,302.4,1168.1,302.4L1168.1,302.4
		L1168.1,302.4z"/>
	<path class="st4" d="M1181,301.1v-10.8h-2v-1c2,0,4.1-0.1,6.3-0.2v3.2c1.2-2.2,2.7-3.2,4.9-3.2c3.2,0,3.6,1.6,3.6,4.6v7.4h1.8v1
		h-7.5v-1h1.6v-9c0-1.2-0.4-1.7-1.3-1.7c-1.4,0-3,2.1-3,4.6v6.1h1.5v1h-7.7v-1H1181L1181,301.1L1181,301.1z"/>
	<path class="st4" d="M1216,301c2.9,0,3.4-0.9,3.4-4.8c0-3.8-0.7-4.8-3.8-4.8h-2.3v9.6H1216L1216,301L1216,301z M1215.2,290.4
		c3.1,0,3.6-0.8,3.6-4.3c0-3.8-0.3-4.3-3.8-4.3h-1.7v8.5H1215.2L1215.2,290.4L1215.2,290.4z M1208.3,301v-19.1h-2.2v-1h11.2
		c4.3,0,6.8,2,6.8,5c0,2.6-1.9,4.2-5.7,4.7v0.3c4.4,0.4,6.5,2.2,6.5,5.3c0,3.5-3,5.8-7.8,5.8h-11v-1H1208.3L1208.3,301L1208.3,301z"
		/>
	<path class="st4" d="M1233.8,295.5c-2.4,0-3.4,0.6-3.4,2.5c0,1.8,0.5,2.6,1.7,2.6c1.2,0,2-0.9,2-2.3v-2.7
		C1234,295.5,1233.9,295.5,1233.8,295.5L1233.8,295.5L1233.8,295.5z M1229.6,302.4c-2.1,0-3.2-1.2-3.2-3.2c0-2.6,2.8-4.5,7.8-4.5
		v-3.1c0-1.3-0.4-1.8-2.1-1.8c-1,0-1.6,0.3-1.6,0.7c0,0.3,0.6,0.8,0.6,1.7c0,1.2-0.7,1.9-2.1,1.9c-1.2,0-1.8-0.7-1.8-2
		c0-2,2-3.2,5.7-3.2c1.7,0,3,0.3,3.8,0.7c1.2,0.7,1.3,1.5,1.3,3v6.6c0,0.7,0.3,1.1,1,1.1c0.4,0,0.6-0.3,0.8-0.3
		c0.2,0,0.3,0.2,0.3,0.3c0,0.6-1.1,2-2.9,2c-1.3,0-2.4-0.8-2.8-2.2C1233,301.7,1231.6,302.4,1229.6,302.4L1229.6,302.4L1229.6,302.4
		z"/>
	<path class="st4" d="M1242.6,301.1v-10.8h-2v-1c2,0,4.1-0.1,6.3-0.2v3.2c1.2-2.2,2.7-3.2,4.9-3.2c3.2,0,3.5,1.6,3.5,4.6v7.4h1.8v1
		h-7.5v-1h1.6v-9c0-1.2-0.4-1.7-1.3-1.7c-1.4,0-3,2.1-3,4.6v6.1h1.5v1h-7.7v-1H1242.6L1242.6,301.1L1242.6,301.1z"/>
	<path class="st4" d="M1269.3,290.3h-2.9v-1h6.5v1h-2.3l-3.2,2.8l5.9,8h1.3v1h-7.8v-1h1.5l-4.4-6L1269.3,290.3L1269.3,290.3
		L1269.3,290.3z M1259.6,301.1v-19.2h-1.5v-1c1.7-0.1,3.6-0.2,5.7-0.4v20.5h1.9v1h-7.7v-1H1259.6L1259.6,301.1L1259.6,301.1z"/>
	<path class="st4" d="M1016.6,319.4h-1.2v-0.6h1.2v-0.4c0-3,1.7-5,4-5c1.4,0,2.2,0.7,2.2,1.7c0,0.8-0.4,1.3-1.2,1.3
		c-0.7,0-1.1-0.5-1.1-1.1c0-0.6,0.5-0.8,0.5-1c0-0.1-0.2-0.3-0.6-0.3c-0.8,0-1.2,0.6-1.2,1.9c0,0.9,0.1,1.7,0.1,2.3v0.8h1.6v0.6
		h-1.6v6.6h1.3v0.6h-5.1V326h1.1V319.4L1016.6,319.4L1016.6,319.4z"/>
	<path class="st4" d="M1025.1,322.7c0,0.2,0,0.5,0,0.8c0,2,0.1,2.9,1.5,2.9c1.4,0,1.5-0.9,1.5-3.4c0-0.4,0-0.7,0-1.2
		c0-1.9-0.1-2.8-1.5-2.8C1025.1,319.1,1025.1,320.1,1025.1,322.7L1025.1,322.7L1025.1,322.7z M1026.5,318.6c2.7,0,4.4,1.7,4.4,4.1
		c0,2.4-1.8,4.1-4.4,4.1s-4.4-1.7-4.4-4.1C1022.1,320.4,1023.9,318.6,1026.5,318.6L1026.5,318.6L1026.5,318.6z"/>
	<path class="st4" d="M1032.3,326h1v-6.6h-1v-0.6c1.2,0,2.4-0.1,3.6-0.2v2.1c0.5-1.4,1.4-2.1,2.3-2.1c1,0,1.7,0.7,1.7,1.6
		c0,0.8-0.6,1.4-1.3,1.4c-0.7,0-1.2-0.6-1.2-1.3c0-0.4,0.2-0.5,0.2-0.7c0-0.1-0.1-0.1-0.2-0.1c-0.4,0-1.4,1.4-1.4,3v3.5h1.4v0.6h-5
		V326L1032.3,326L1032.3,326z"/>
	<path class="st4" d="M1052.6,319.3c1.6,0,1.8-0.6,1.8-2.4c0-2.3-0.1-2.6-1.8-2.6h-1.6v5.1H1052.6L1052.6,319.3L1052.6,319.3z
		 M1047.9,326v-11.8h-1.4v-0.6h6.9c2.9,0,4.4,1,4.4,2.8c0,1.8-1.4,3-4.1,3.1v0.2c2.8,0.4,3.7,1.7,3.7,4.6c0,1,0.1,1.5,0.8,1.5
		c0.2,0,0.5-0.1,0.8-0.2l0.2,0.5c-0.9,0.4-1.7,0.6-2.1,0.6c-1.1,0-1.9-0.4-2.4-0.9c-0.8-1-0.8-2.2-0.8-3.6c-0.1-1.8-0.7-2.4-2.5-2.4
		c-0.1,0-0.2,0-0.3,0v6h1.6v0.6h-6.2V326H1047.9L1047.9,326L1047.9,326z"/>
	<path class="st4" d="M1065.2,321.8v-1.5c0-0.8-0.4-1.2-1.3-1.2c-0.8,0-1.3,0.4-1.3,1.2v1.5H1065.2L1065.2,321.8L1065.2,321.8z
		 M1067.8,324.2c-0.6,1.8-1.8,2.7-3.7,2.7c-2.7,0-4.3-1.6-4.3-4c0-2.4,1.8-4.2,4.3-4.2c2.3,0,3.7,1.4,3.7,3.7c0,0,0,0.1,0,0.1h-5v2
		c0,1.4,0.3,2,1.5,2c1.5,0,2.6-0.8,3.1-2.4L1067.8,324.2L1067.8,324.2L1067.8,324.2z"/>
	<path class="st4" d="M1076.8,324.2c-0.6,1.8-1.7,2.7-3.4,2.7c-2.4,0-4.2-1.8-4.2-4.1c0-2.2,1.9-4.1,4.4-4.1c1.8,0,2.9,1,2.9,2.2
		c0,0.7-0.5,1.3-1.2,1.3c-0.8,0-1.3-0.5-1.3-1.3c0-0.8,0.6-1,0.6-1.2c0-0.3-0.3-0.5-1-0.5c-1.4,0-1.5,0.8-1.5,2.4v2.4
		c0,1.7,0.2,2.4,1.5,2.4c1.3,0,2.2-0.8,2.7-2.3L1076.8,324.2L1076.8,324.2L1076.8,324.2z"/>
	<path class="st4" d="M1081.1,322.7c0,0.2,0,0.5,0,0.8c0,2,0.1,2.9,1.5,2.9c1.4,0,1.5-0.9,1.5-3.4c0-0.4,0-0.7,0-1.2
		c0-1.9-0.1-2.8-1.5-2.8C1081.2,319.1,1081.1,320.1,1081.1,322.7L1081.1,322.7L1081.1,322.7z M1082.6,318.6c2.7,0,4.4,1.7,4.4,4.1
		c0,2.4-1.8,4.1-4.4,4.1s-4.4-1.7-4.4-4.1C1078.2,320.4,1079.9,318.6,1082.6,318.6L1082.6,318.6L1082.6,318.6z"/>
	<path class="st4" d="M1089.3,326v-6.6h-1.3v-0.6c1.2,0,2.5,0,3.9-0.1v2c0.7-1.4,1.6-2,3-2c2,0,2.2,1,2.2,2.8v4.6h1.1v0.6h-4.6V326
		h1v-5.5c0-0.7-0.2-1.1-0.8-1.1c-0.9,0-1.8,1.3-1.8,2.8v3.7h0.9v0.6h-4.7V326H1089.3L1089.3,326L1089.3,326z"/>
	<path class="st4" d="M1099.3,323.7h0.5c0.4,1.7,1.4,2.6,2.7,2.6c1.1,0,1.8-0.7,1.8-1.4c0-0.9-0.9-0.8-2.4-1.1
		c-1.8-0.3-2.6-0.9-2.6-2.4c0-1.7,1.1-2.8,2.7-2.8c0.7,0,1.3,0.2,1.8,0.5l0.4-0.4h0.4l0.1,2.2h-0.5c-0.4-1.2-1.1-1.8-2.1-1.8
		c-1.1,0-1.7,0.5-1.7,1.1c0,0.7,0.8,0.7,2.4,1c1.9,0.3,2.7,0.9,2.7,2.7c0,1.8-1.1,3-2.9,3c-0.9,0-1.6-0.2-2.1-0.7l-0.5,0.4h-0.5
		L1099.3,323.7L1099.3,323.7L1099.3,323.7z"/>
	<path class="st4" d="M1107.4,319.4h-1.1v-0.6h1.1v-2.4c0.4,0,0.7,0.1,1.1,0.1c0.5,0,0.9,0,1.4-0.1v2.5h1.5v0.6h-1.5v5.4
		c0,0.7,0.1,0.9,0.6,0.9c0.5,0,0.8-0.4,0.9-1.1h0.5c-0.1,1.4-1.1,2.2-2.6,2.2c-1.7,0-1.9-0.6-1.9-2V319.4L1107.4,319.4L1107.4,319.4
		z"/>
	<path class="st4" d="M1112.7,326h1v-6.6h-1v-0.6c1.2,0,2.4-0.1,3.6-0.2v2.1c0.5-1.4,1.4-2.1,2.3-2.1c1,0,1.7,0.7,1.7,1.6
		c0,0.8-0.6,1.4-1.3,1.4c-0.7,0-1.2-0.6-1.2-1.3c0-0.4,0.2-0.5,0.2-0.7c0-0.1-0.1-0.1-0.2-0.1c-0.4,0-1.4,1.4-1.4,3v3.5h1.4v0.6h-5
		V326L1112.7,326L1112.7,326z"/>
	<path class="st4" d="M1129.8,326h1.2v0.6c-1.3,0-2.5,0.1-3.8,0.2v-2c-0.7,1.4-1.7,2-3,2c-0.9,0-1.5-0.3-1.9-0.8
		c-0.3-0.4-0.3-0.9-0.3-1.5c0-0.2,0-0.5,0-0.8v-4.3h-1.2v-0.6c1.4,0,2.7-0.1,3.8-0.2v6.3c0,0.7,0.2,1.1,0.8,1.1
		c0.9,0,1.8-1.3,1.8-2.9v-3.7h-1.4v-0.6c1.3,0,2.6-0.1,4-0.2V326L1129.8,326L1129.8,326z"/>
	<path class="st4" d="M1139.6,324.2c-0.6,1.8-1.7,2.7-3.4,2.7c-2.4,0-4.2-1.8-4.2-4.1c0-2.2,1.9-4.1,4.4-4.1c1.8,0,2.9,1,2.9,2.2
		c0,0.7-0.5,1.3-1.2,1.3c-0.8,0-1.3-0.5-1.3-1.3c0-0.8,0.6-1,0.6-1.2c0-0.3-0.3-0.5-1-0.5c-1.4,0-1.5,0.8-1.5,2.4v2.4
		c0,1.7,0.2,2.4,1.5,2.4c1.3,0,2.2-0.8,2.7-2.3L1139.6,324.2L1139.6,324.2L1139.6,324.2z"/>
	<path class="st4" d="M1141.8,319.4h-1.1v-0.6h1.1v-2.4c0.4,0,0.7,0.1,1.1,0.1c0.5,0,1,0,1.4-0.1v2.5h1.5v0.6h-1.5v5.4
		c0,0.7,0.1,0.9,0.6,0.9c0.5,0,0.8-0.4,0.9-1.1h0.5c-0.1,1.4-1.1,2.2-2.6,2.2c-1.7,0-1.9-0.6-1.9-2V319.4L1141.8,319.4L1141.8,319.4
		z"/>
	<path class="st4" d="M1149.4,314.1c0.7,0,1.3,0.6,1.3,1.4c0,0.8-0.6,1.4-1.3,1.4c-0.7,0-1.3-0.6-1.3-1.4
		C1148.1,314.7,1148.7,314.1,1149.4,314.1L1149.4,314.1L1149.4,314.1z M1147,326h1.1v-6.6h-1.2v-0.6c1.4,0,2.7-0.1,3.9-0.2v7.4h1.2
		v0.6h-4.9V326L1147,326L1147,326z"/>
	<path class="st4" d="M1155.7,322.7c0,0.2,0,0.5,0,0.8c0,2,0.1,2.9,1.5,2.9c1.4,0,1.5-0.9,1.5-3.4c0-0.4,0-0.7,0-1.2
		c0-1.9-0.1-2.8-1.5-2.8C1155.8,319.1,1155.7,320.1,1155.7,322.7L1155.7,322.7L1155.7,322.7z M1157.2,318.6c2.7,0,4.4,1.7,4.4,4.1
		c0,2.4-1.8,4.1-4.4,4.1c-2.7,0-4.4-1.7-4.4-4.1C1152.8,320.4,1154.5,318.6,1157.2,318.6L1157.2,318.6L1157.2,318.6z"/>
	<path class="st4" d="M1163.7,326v-6.6h-1.3v-0.6c1.2,0,2.5,0,3.9-0.1v2c0.7-1.4,1.6-2,3-2c2,0,2.2,1,2.2,2.8v4.6h1.1v0.6h-4.6V326
		h1v-5.5c0-0.7-0.2-1.1-0.8-1.1c-0.9,0-1.8,1.3-1.8,2.8v3.7h1v0.6h-4.7V326H1163.7L1163.7,326L1163.7,326z"/>
	<path class="st4" d="M1183.8,322.6c-1.5,0-2.1,0.4-2.1,1.5c0,1.1,0.3,1.6,1,1.6c0.7,0,1.3-0.5,1.3-1.4v-1.7
		C1184,322.6,1183.9,322.6,1183.8,322.6L1183.8,322.6L1183.8,322.6z M1181.2,326.8c-1.3,0-2-0.7-2-2c0-1.6,1.7-2.8,4.8-2.8v-1.9
		c0-0.8-0.2-1.1-1.3-1.1c-0.6,0-1,0.2-1,0.5c0,0.2,0.3,0.5,0.3,1c0,0.8-0.5,1.2-1.3,1.2c-0.7,0-1.1-0.4-1.1-1.2c0-1.2,1.2-2,3.5-2
		c1.1,0,1.9,0.2,2.3,0.4c0.7,0.4,0.8,0.9,0.8,1.8v4c0,0.5,0.2,0.7,0.6,0.7c0.2,0,0.3-0.2,0.5-0.2c0.1,0,0.2,0.1,0.2,0.2
		c0,0.3-0.7,1.2-1.8,1.2c-0.8,0-1.5-0.5-1.7-1.4C1183.3,326.4,1182.5,326.8,1181.2,326.8L1181.2,326.8L1181.2,326.8z"/>
	<path class="st4" d="M1189.2,326v-6.6h-1.3v-0.6c1.2,0,2.5,0,3.9-0.1v2c0.7-1.4,1.6-2,3-2c2,0,2.2,1,2.2,2.8v4.6h1.1v0.6h-4.6V326
		h1v-5.5c0-0.7-0.2-1.1-0.8-1.1c-0.9,0-1.8,1.3-1.8,2.8v3.7h0.9v0.6h-4.7V326H1189.2L1189.2,326L1189.2,326z"/>
	<path class="st4" d="M1204.9,322c0-1.8-0.9-2.8-2.1-2.8c-0.8,0-0.9,0.4-0.9,1.5v4.2c0,1,0.2,1.5,0.9,1.5c1.2,0,2.1-1.1,2.1-2.8V322
		L1204.9,322L1204.9,322z M1204.9,325.4c-0.6,1-1.4,1.5-2.5,1.5c-2,0-3.5-1.8-3.5-4.1c0-2.4,1.5-4.2,3.5-4.2c1.1,0,1.9,0.5,2.5,1.5
		v-5.9h-1.5v-0.6c1.6,0,2.9-0.1,4-0.2V326h1v0.6h-3.6V325.4L1204.9,325.4L1204.9,325.4z"/>
	<path class="st4" d="M1221.4,326c1.1,0,1.8-0.1,2.4-0.8c0.6-0.8,0.8-2.3,0.8-4.3c0-0.3,0-0.6,0-0.9c0-2.1,0-3.6-0.5-4.6
		c-0.5-1-1.3-1.2-2.6-1.2h-1.6V326H1221.4L1221.4,326L1221.4,326z M1216.7,326v-11.8h-1.5v-0.6h6.3c1.7,0,2.9,0.3,4.1,1.2
		c1.5,1.1,2.4,3.1,2.4,5.3s-1,4.2-2.5,5.4c-1,0.8-2.4,1.1-4.1,1.1h-6.3V326H1216.7L1216.7,326L1216.7,326z"/>
	<path class="st4" d="M1234.9,321.8v-1.5c0-0.8-0.4-1.2-1.3-1.2c-0.8,0-1.3,0.4-1.3,1.2v1.5H1234.9L1234.9,321.8L1234.9,321.8z
		 M1237.4,324.2c-0.6,1.8-1.8,2.7-3.7,2.7c-2.7,0-4.3-1.6-4.3-4c0-2.4,1.8-4.2,4.3-4.2c2.3,0,3.7,1.4,3.7,3.7c0,0,0,0.1,0,0.1h-5v2
		c0,1.4,0.3,2,1.5,2c1.5,0,2.6-0.8,3.1-2.4L1237.4,324.2L1237.4,324.2L1237.4,324.2z"/>
	<path class="st4" d="M1238.7,319.4h-0.8v-0.6h4.6v0.6h-0.9l1.8,4.4l1.5-3.6c0.1-0.1,0.1-0.2,0.1-0.4c0-0.2-0.2-0.3-0.5-0.3h-0.8
		v-0.6h3.1v0.6h-0.5c-0.3,0-0.5,0.1-0.7,0.6l-2.9,6.9h-0.5L1238.7,319.4L1238.7,319.4L1238.7,319.4z"/>
	<path class="st4" d="M1252.7,321.8v-1.5c0-0.8-0.4-1.2-1.3-1.2c-0.8,0-1.3,0.4-1.3,1.2v1.5H1252.7L1252.7,321.8L1252.7,321.8z
		 M1255.3,324.2c-0.6,1.8-1.8,2.7-3.7,2.7c-2.7,0-4.3-1.6-4.3-4c0-2.4,1.8-4.2,4.3-4.2c2.3,0,3.7,1.4,3.7,3.7c0,0,0,0.1,0,0.1h-5v2
		c0,1.4,0.3,2,1.5,2c1.5,0,2.6-0.8,3.1-2.4L1255.3,324.2L1255.3,324.2L1255.3,324.2z"/>
	<path class="st4" d="M1257.1,326v-11.8h-1.2v-0.6c1.4,0,2.7-0.1,3.9-0.2V326h1.2v0.6h-4.9V326H1257.1L1257.1,326L1257.1,326z"/>
	<path class="st4" d="M1264.8,322.7c0,0.2,0,0.5,0,0.8c0,2,0.1,2.9,1.5,2.9c1.4,0,1.5-0.9,1.5-3.4c0-0.4,0-0.7,0-1.2
		c0-1.9-0.1-2.8-1.5-2.8C1264.8,319.1,1264.8,320.1,1264.8,322.7L1264.8,322.7L1264.8,322.7z M1266.2,318.6c2.7,0,4.4,1.7,4.4,4.1
		c0,2.4-1.8,4.1-4.4,4.1s-4.4-1.7-4.4-4.1C1261.8,320.4,1263.6,318.6,1266.2,318.6L1266.2,318.6L1266.2,318.6z"/>
	<path class="st4" d="M1278.4,320.7c0-1-0.1-1.5-1-1.5c-1.2,0-2.1,1.1-2.1,2.8v1.5c0,1.8,0.9,2.8,2.1,2.8c0.8,0,1-0.5,1-1.5V320.7
		L1278.4,320.7L1278.4,320.7z M1271.7,330.4h1.1v-11h-1.2v-0.6c1.4,0,2.7-0.1,3.9-0.2v1.5c0.6-1,1.4-1.5,2.4-1.5
		c2,0,3.5,1.7,3.5,4.2c0,2.3-1.5,4.1-3.5,4.1c-1.1,0-1.9-0.5-2.4-1.5v5h1.4v0.6h-5.1V330.4L1271.7,330.4L1271.7,330.4z"/>
	<path class="st4" d="M1283.5,326v-6.6h-1.2v-0.6c1.2,0,2.4-0.1,3.7-0.2v2c0.7-1.4,1.6-2,3-2c1.4,0,2.1,0.7,2.2,1.9
		c0.7-1.3,1.6-1.9,3-1.9c0.9,0,1.5,0.2,1.9,0.7c0.3,0.4,0.3,0.8,0.3,1.4c0,0.2,0,0.4,0,0.6v4.7h1.2v0.6h-4.7V326h1v-5.5
		c0-0.7-0.2-1-0.8-1c-0.9,0-1.8,1.2-1.8,2.8v3.7h0.9v0.6h-4.4V326h1v-5.5c0-0.7-0.2-1-0.8-1c-0.9,0-1.8,1.3-1.8,2.8v3.7h0.9v0.6
		h-4.5V326H1283.5L1283.5,326L1283.5,326z"/>
	<path class="st4" d="M1303.8,321.8v-1.5c0-0.8-0.4-1.2-1.3-1.2c-0.8,0-1.3,0.4-1.3,1.2v1.5H1303.8L1303.8,321.8L1303.8,321.8z
		 M1306.4,324.2c-0.6,1.8-1.8,2.7-3.7,2.7c-2.7,0-4.3-1.6-4.3-4c0-2.4,1.8-4.2,4.3-4.2c2.3,0,3.7,1.4,3.7,3.7c0,0,0,0.1,0,0.1h-5v2
		c0,1.4,0.3,2,1.5,2c1.5,0,2.6-0.8,3.1-2.4L1306.4,324.2L1306.4,324.2L1306.4,324.2z"/>
	<path class="st4" d="M1308.6,326v-6.6h-1.3v-0.6c1.2,0,2.5,0,3.9-0.1v2c0.7-1.4,1.6-2,3-2c2,0,2.2,1,2.2,2.8v4.6h1.1v0.6h-4.6V326
		h1v-5.5c0-0.7-0.2-1.1-0.8-1.1c-0.9,0-1.8,1.3-1.8,2.8v3.7h0.9v0.6h-4.7V326H1308.6L1308.6,326L1308.6,326z"/>
	<path class="st4" d="M1319.3,319.4h-1.1v-0.6h1.1v-2.4c0.4,0,0.7,0.1,1.1,0.1c0.5,0,0.9,0,1.4-0.1v2.5h1.5v0.6h-1.5v5.4
		c0,0.7,0.1,0.9,0.6,0.9c0.5,0,0.8-0.4,0.9-1.1h0.5c-0.1,1.4-1.1,2.2-2.6,2.2c-1.7,0-1.9-0.6-1.9-2V319.4L1319.3,319.4L1319.3,319.4
		z"/>
	<path class="st5" d="M1193.1,177.9c-7.2-3.6-17.2-5-25-1.7c-16.4,7.1-22.2,24.9-22.3,41.5c0.3,9.4,2.8,17.9,7.5,25.3
		c3.1-2.4,4.4-5.8,5.9-9c2.2-5.6,3.4-11.6,3.3-18.1c0.5-12.2,5.1-25.7,17.3-31c9.3-3.5,18.7,0.6,25.1,7.9
		c7.7,9.3,10.9,22.6,7.5,34.6c-2.1,9.1-8.9,19.7-18.7,22.2c-4.7,1.3-10.2,0.6-14.4-1.7c-2.4,3.9-5.6,7.6-9.4,10.4l0,0.1
		c7.1,3.2,16.5,2.6,23.3-1.1c-12.5,9.4-32.1,11.9-46.9,5.7c-3.7-1.5-7.3-3.4-10.6-5.8c7.8,4.4,19.9,5.6,28,0.6
		c13.3-7.9,18.6-22.5,19.5-36.9c0.5-10.7-2.3-20.4-7.5-28.8c-3.2,2.5-4.7,6.1-6.1,9.5c-2.4,6-3.3,12.6-3.2,19.6
		c-0.9,11.4-5.7,23.8-16.7,28.9c-8.1,3.5-17.2,0.4-23.3-5.7c-10.2-9.9-13.3-26.4-8.6-39.8c2.4-8,9.1-17,17.7-19.1
		c4.6-1.4,10.1-0.5,14.2,1.7c2.4-3.8,5.7-7.6,9.5-10.2l0-0.1c-6.7-3.1-16.4-2.7-22.9,0.9c11.5-8.3,29-11.2,43.2-6.6
		C1184.2,172.8,1188.8,174.8,1193.1,177.9L1193.1,177.9L1193.1,177.9z"/>
</g>
<g>
	<polygon class="st6" points="1483.4,283.2 1613.8,283.2 1613.8,193.1 1483.4,193.1 1483.4,283.2 	"/>
	<polygon class="st7" points="1545.8,212.7 1548.6,210.7 1551.3,212.7 1550.3,209.4 1553.1,207.3 1549.6,207.3 1548.6,203.9 
		1547.5,207.3 1544.1,207.3 1546.9,209.4 1545.8,212.7 	"/>
	<polygon class="st7" points="1531.6,216.7 1534.4,214.6 1537.1,216.7 1536.1,213.3 1538.8,211.3 1535.4,211.3 1534.3,207.8 
		1533.3,211.3 1529.9,211.3 1532.6,213.3 1531.6,216.7 	"/>
	<polygon class="st7" points="1523.9,218.7 1522.9,222.1 1519.4,222.1 1522.2,224.2 1521.2,227.5 1523.9,225.5 1526.7,227.5 
		1525.6,224.2 1528.4,222.1 1525,222.1 1523.9,218.7 	"/>
	<polygon class="st7" points="1520.1,240.2 1522.9,242.3 1521.8,238.9 1524.6,236.8 1521.2,236.8 1520.1,233.4 1519.1,236.8 
		1515.6,236.8 1518.4,238.9 1517.4,242.3 1520.1,240.2 	"/>
	<polygon class="st7" points="1525,251.6 1523.9,248.2 1522.9,251.6 1519.4,251.6 1522.2,253.7 1521.2,257.1 1523.9,255 
		1526.7,257.1 1525.6,253.7 1528.4,251.6 1525,251.6 	"/>
	<polygon class="st7" points="1535.4,262.4 1534.4,259 1533.3,262.4 1529.9,262.4 1532.7,264.5 1531.6,267.9 1534.4,265.8 
		1537.1,267.9 1536.1,264.5 1538.9,262.4 1535.4,262.4 	"/>
	<polygon class="st7" points="1549.6,266.4 1548.6,263 1547.5,266.4 1544.1,266.4 1546.9,268.5 1545.8,271.8 1548.6,269.7 
		1551.3,271.8 1550.3,268.5 1553.1,266.4 1549.6,266.4 	"/>
	<polygon class="st7" points="1563.9,262.4 1562.8,259 1561.7,262.4 1558.3,262.4 1561.1,264.5 1560.1,267.9 1562.8,265.8 
		1565.6,267.9 1564.5,264.5 1567.3,262.4 1563.9,262.4 	"/>
	<polygon class="st7" points="1574.3,251.6 1573.2,248.2 1572.2,251.6 1568.7,251.6 1571.5,253.7 1570.5,257.1 1573.2,255 
		1576,257.1 1574.9,253.7 1577.7,251.6 1574.3,251.6 	"/>
	<polygon class="st7" points="1581.5,236.8 1578.1,236.8 1577,233.4 1576,236.8 1572.5,236.8 1575.3,238.9 1574.3,242.2 1577,240.2 
		1579.8,242.2 1578.7,238.9 1581.5,236.8 	"/>
	<polygon class="st7" points="1570.5,227.5 1573.2,225.4 1576,227.5 1574.9,224.1 1577.7,222 1574.3,222 1573.2,218.6 1572.2,222 
		1568.7,222 1571.5,224.1 1570.5,227.5 	"/>
	<polygon class="st7" points="1562.8,207.9 1561.8,211.3 1558.3,211.3 1561.1,213.3 1560.1,216.7 1562.8,214.6 1565.6,216.7 
		1564.6,213.3 1567.3,211.3 1563.9,211.3 1562.8,207.9 	"/>
	<polygon class="st8" points="1487.3,307.5 1487.3,292.4 1497,292.4 1497,295.5 1490.6,295.5 1490.6,298.3 1496.7,298.3 
		1496.7,301.2 1490.6,301.2 1490.6,304.4 1497.4,304.4 1497.4,307.5 1487.3,307.5 	"/>
	<path class="st8" d="M1511.5,304.3c-0.3,0.7-0.7,1.4-1.3,1.9c-0.5,0.5-1.2,0.9-2,1.2c-0.8,0.3-1.6,0.4-2.6,0.4
		c-1,0-1.8-0.1-2.6-0.4c-0.8-0.3-1.4-0.7-1.9-1.2c-0.5-0.5-0.9-1.2-1.2-1.9c-0.3-0.7-0.4-1.6-0.4-2.5v-9.4h3.5v9.1
		c0,0.4,0.1,0.8,0.2,1.2c0.1,0.4,0.3,0.7,0.5,1c0.2,0.3,0.5,0.5,0.8,0.7c0.3,0.2,0.8,0.3,1.3,0.3c0.5,0,0.9-0.1,1.3-0.3
		c0.3-0.2,0.6-0.4,0.8-0.7c0.2-0.3,0.4-0.6,0.5-1c0.1-0.4,0.1-0.8,0.1-1.2v-9.1h3.5v9.4C1511.9,302.7,1511.8,303.5,1511.5,304.3
		L1511.5,304.3z"/>
	<path class="st8" d="M1520.6,296.1L1520.6,296.1l-3.5,5.6h3.5V296.1L1520.6,296.1z M1523.8,304.5v2.9h-3.2v-2.9h-6.8v-3l5.9-9.1
		h4.1v9.2h2v2.9H1523.8L1523.8,304.5z"/>
	<path class="st8" d="M1535.8,302.8c0-0.6-0.2-1.1-0.7-1.3c-0.4-0.2-1-0.4-1.8-0.4h-1.9v3.4h2c0.3,0,0.6,0,0.8-0.1
		c0.3,0,0.6-0.1,0.8-0.3c0.2-0.1,0.4-0.3,0.6-0.5C1535.7,303.4,1535.8,303.1,1535.8,302.8L1535.8,302.8z M1535.3,296.8
		c0-0.5-0.2-0.9-0.6-1.1c-0.4-0.2-0.9-0.4-1.7-0.4h-1.7v3.1h1.9c0.7,0,1.2-0.1,1.5-0.4C1535.1,297.7,1535.3,297.3,1535.3,296.8
		L1535.3,296.8z M1539.3,303.1c0,0.8-0.2,1.5-0.5,2.1c-0.3,0.6-0.7,1-1.2,1.3c-0.5,0.3-1.1,0.6-1.8,0.7c-0.7,0.1-1.3,0.2-2,0.2h-5.8
		v-15h5.8c0.6,0,1.1,0.1,1.7,0.2c0.6,0.1,1.1,0.3,1.6,0.6c0.5,0.3,0.9,0.7,1.2,1.2c0.3,0.5,0.4,1.1,0.4,1.9c0,0.8-0.2,1.5-0.7,2.1
		c-0.4,0.5-1,0.9-1.7,1.2v0c0.4,0.1,0.8,0.2,1.2,0.4c0.4,0.2,0.7,0.4,0.9,0.7c0.3,0.3,0.5,0.6,0.6,1
		C1539.2,302.2,1539.3,302.6,1539.3,303.1L1539.3,303.1z"/>
	<path class="st8" d="M1548.1,307.5V306h0c-0.1,0.2-0.3,0.5-0.5,0.7c-0.2,0.2-0.4,0.4-0.7,0.6c-0.3,0.2-0.6,0.3-0.9,0.4
		c-0.3,0.1-0.7,0.1-1,0.1c-0.7,0-1.3-0.1-1.7-0.4c-0.5-0.3-0.9-0.6-1.1-1c-0.3-0.4-0.5-0.9-0.6-1.4s-0.2-1-0.2-1.6v-6.5h3.4v5.7
		c0,0.3,0,0.6,0.1,0.9c0,0.3,0.1,0.5,0.2,0.7c0.1,0.2,0.3,0.4,0.5,0.5c0.2,0.1,0.4,0.2,0.8,0.2c0.6,0,1-0.2,1.3-0.7
		c0.3-0.5,0.5-1,0.5-1.6v-5.7h3.4v10.6H1548.1L1548.1,307.5z"/>
	<path class="st8" d="M1559.9,300c-0.3-0.3-0.6-0.5-1-0.7c-0.4-0.2-0.8-0.3-1.2-0.3c-0.3,0-0.6,0.1-0.9,0.2
		c-0.3,0.1-0.4,0.3-0.4,0.7c0,0.3,0.1,0.5,0.4,0.6c0.3,0.1,0.8,0.3,1.4,0.4c0.4,0.1,0.8,0.2,1.2,0.4c0.4,0.2,0.7,0.4,1.1,0.6
		c0.3,0.3,0.6,0.6,0.8,0.9c0.2,0.4,0.3,0.8,0.3,1.3c0,0.7-0.1,1.2-0.4,1.7c-0.3,0.5-0.6,0.8-1,1.1c-0.4,0.3-0.9,0.5-1.4,0.6
		c-0.5,0.1-1,0.2-1.6,0.2c-0.8,0-1.6-0.1-2.4-0.4c-0.8-0.3-1.5-0.7-2-1.2l1.9-2.1c0.3,0.3,0.7,0.6,1.1,0.8c0.4,0.2,0.9,0.3,1.4,0.3
		c0.3,0,0.5-0.1,0.8-0.2c0.3-0.1,0.4-0.4,0.4-0.7c0-0.3-0.2-0.6-0.5-0.7c-0.3-0.2-0.8-0.3-1.5-0.5c-0.4-0.1-0.7-0.2-1.1-0.3
		c-0.4-0.1-0.7-0.3-0.9-0.6c-0.3-0.2-0.5-0.5-0.7-0.9c-0.2-0.4-0.3-0.8-0.3-1.3c0-0.6,0.1-1.2,0.4-1.6c0.3-0.4,0.6-0.8,1-1.1
		c0.4-0.3,0.9-0.5,1.4-0.6c0.5-0.1,1-0.2,1.5-0.2c0.8,0,1.5,0.1,2.2,0.4c0.7,0.2,1.3,0.6,1.9,1.1L1559.9,300L1559.9,300z"/>
	<path class="st8" d="M1563.6,307.5v-10.6h3.4v10.6H1563.6L1563.6,307.5z M1567.2,293.5c0,0.3-0.1,0.5-0.2,0.8
		c-0.1,0.2-0.2,0.4-0.4,0.6c-0.2,0.2-0.4,0.3-0.6,0.4c-0.2,0.1-0.5,0.1-0.7,0.1c-0.5,0-1-0.2-1.4-0.6c-0.4-0.4-0.6-0.8-0.6-1.3
		c0-0.3,0-0.5,0.1-0.7c0.1-0.2,0.2-0.4,0.4-0.6c0.2-0.2,0.4-0.3,0.6-0.4c0.2-0.1,0.5-0.2,0.8-0.2c0.3,0,0.5,0,0.7,0.1
		c0.2,0.1,0.4,0.2,0.6,0.4c0.2,0.2,0.3,0.4,0.4,0.6C1567.2,293,1567.2,293.2,1567.2,293.5L1567.2,293.5z"/>
	<path class="st8" d="M1576.3,307.5v-5.8c0-0.3,0-0.6-0.1-0.8c0-0.3-0.1-0.5-0.2-0.7c-0.1-0.2-0.3-0.4-0.5-0.5
		c-0.2-0.1-0.4-0.2-0.7-0.2c-0.3,0-0.6,0.1-0.8,0.2c-0.2,0.1-0.4,0.3-0.6,0.5c-0.1,0.2-0.3,0.5-0.3,0.7c-0.1,0.3-0.1,0.6-0.1,0.9
		v5.7h-3.4v-10.6h3.2v1.5h0c0.1-0.2,0.3-0.4,0.5-0.7c0.2-0.2,0.4-0.4,0.7-0.6c0.3-0.2,0.6-0.3,0.9-0.4c0.3-0.1,0.6-0.1,1-0.1
		c0.7,0,1.3,0.1,1.7,0.4c0.5,0.3,0.9,0.6,1.2,1c0.3,0.4,0.5,0.9,0.6,1.4c0.1,0.5,0.2,1,0.2,1.6v6.5H1576.3L1576.3,307.5z"/>
	<path class="st8" d="M1589.2,301c0-0.6-0.2-1-0.5-1.4c-0.3-0.4-0.8-0.6-1.5-0.6c-0.3,0-0.6,0.1-0.9,0.2c-0.3,0.1-0.5,0.3-0.7,0.4
		c-0.2,0.2-0.4,0.4-0.5,0.6c-0.1,0.2-0.2,0.5-0.2,0.8H1589.2L1589.2,301z M1592.3,302.3c0,0.1,0,0.3,0,0.4c0,0.1,0,0.3,0,0.4h-7.4
		c0,0.3,0.1,0.6,0.3,0.8c0.1,0.2,0.3,0.4,0.6,0.6c0.2,0.2,0.5,0.3,0.8,0.4c0.3,0.1,0.6,0.1,0.9,0.1c0.5,0,1-0.1,1.3-0.3
		c0.4-0.2,0.7-0.5,0.9-0.8l2.3,1.5c-0.5,0.7-1.1,1.3-1.9,1.7c-0.8,0.4-1.7,0.6-2.7,0.6c-0.8,0-1.5-0.1-2.2-0.4
		c-0.7-0.2-1.3-0.6-1.8-1.1c-0.5-0.5-0.9-1.1-1.2-1.8c-0.3-0.7-0.4-1.5-0.4-2.4c0-0.9,0.1-1.6,0.4-2.3c0.3-0.7,0.7-1.3,1.2-1.8
		c0.5-0.5,1.1-0.9,1.7-1.1c0.7-0.3,1.4-0.4,2.2-0.4c0.7,0,1.4,0.1,2.1,0.4c0.6,0.3,1.2,0.6,1.6,1.1c0.5,0.5,0.8,1.1,1.1,1.8
		C1592.2,300.6,1592.3,301.4,1592.3,302.3L1592.3,302.3z"/>
	<path class="st8" d="M1600.4,300c-0.3-0.3-0.6-0.5-1-0.7c-0.4-0.2-0.8-0.3-1.2-0.3c-0.3,0-0.6,0.1-0.9,0.2
		c-0.3,0.1-0.4,0.3-0.4,0.7c0,0.3,0.1,0.5,0.4,0.6c0.3,0.1,0.8,0.3,1.4,0.4c0.4,0.1,0.8,0.2,1.2,0.4c0.4,0.2,0.7,0.4,1.1,0.6
		c0.3,0.3,0.6,0.6,0.8,0.9c0.2,0.4,0.3,0.8,0.3,1.3c0,0.7-0.1,1.2-0.4,1.7c-0.3,0.5-0.6,0.8-1,1.1c-0.4,0.3-0.9,0.5-1.4,0.6
		c-0.5,0.1-1,0.2-1.6,0.2c-0.8,0-1.6-0.1-2.4-0.4c-0.8-0.3-1.5-0.7-2-1.2l1.9-2.1c0.3,0.3,0.7,0.6,1.1,0.8c0.4,0.2,0.9,0.3,1.4,0.3
		c0.3,0,0.5-0.1,0.8-0.2c0.3-0.1,0.4-0.4,0.4-0.7c0-0.3-0.2-0.6-0.5-0.7c-0.3-0.2-0.8-0.3-1.5-0.5c-0.4-0.1-0.7-0.2-1.1-0.3
		c-0.4-0.1-0.7-0.3-1-0.6c-0.3-0.2-0.5-0.5-0.7-0.9c-0.2-0.4-0.3-0.8-0.3-1.3c0-0.6,0.1-1.2,0.4-1.6c0.3-0.4,0.6-0.8,1-1.1
		c0.4-0.3,0.9-0.5,1.4-0.6c0.5-0.1,1-0.2,1.5-0.2c0.8,0,1.5,0.1,2.2,0.4c0.7,0.2,1.3,0.6,1.9,1.1L1600.4,300L1600.4,300z"/>
	<path class="st8" d="M1610.1,300c-0.3-0.3-0.6-0.5-1-0.7c-0.4-0.2-0.8-0.3-1.2-0.3c-0.3,0-0.6,0.1-0.9,0.2
		c-0.3,0.1-0.4,0.3-0.4,0.7c0,0.3,0.1,0.5,0.4,0.6c0.3,0.1,0.8,0.3,1.4,0.4c0.4,0.1,0.8,0.2,1.2,0.4c0.4,0.2,0.7,0.4,1.1,0.6
		c0.3,0.3,0.6,0.6,0.8,0.9c0.2,0.4,0.3,0.8,0.3,1.3c0,0.7-0.1,1.2-0.4,1.7c-0.3,0.5-0.6,0.8-1,1.1c-0.4,0.3-0.9,0.5-1.4,0.6
		c-0.5,0.1-1,0.2-1.6,0.2c-0.8,0-1.6-0.1-2.4-0.4c-0.8-0.3-1.5-0.7-2-1.2l1.9-2.1c0.3,0.3,0.7,0.6,1.1,0.8c0.4,0.2,0.9,0.3,1.4,0.3
		c0.3,0,0.5-0.1,0.8-0.2c0.3-0.1,0.4-0.4,0.4-0.7c0-0.3-0.2-0.6-0.5-0.7c-0.3-0.2-0.8-0.3-1.5-0.5c-0.4-0.1-0.7-0.2-1.1-0.3
		c-0.4-0.1-0.7-0.3-1-0.6c-0.3-0.2-0.5-0.5-0.7-0.9c-0.2-0.4-0.3-0.8-0.3-1.3c0-0.6,0.1-1.2,0.4-1.6c0.3-0.4,0.6-0.8,1-1.1
		c0.4-0.3,0.9-0.5,1.4-0.6c0.5-0.1,1-0.2,1.5-0.2c0.8,0,1.5,0.1,2.2,0.4c0.7,0.2,1.3,0.6,1.9,1.1L1610.1,300L1610.1,300z"/>
	<polygon class="st6" points="1626.7,193.2 1649.8,193.2 1649.8,222.4 1644.4,222.4 1644.4,198.1 1632.1,198.1 1632.1,222.4 
		1626.7,222.4 1626.7,193.2 	"/>
	<path class="st6" d="M1661.5,207.6h6.3c1,0,1.8-0.4,2.5-1.3c0.7-0.8,1-2,1-3.5c0-0.7-0.1-1.4-0.3-2c-0.2-0.6-0.5-1.1-0.8-1.5
		c-0.3-0.4-0.7-0.7-1.2-0.9c-0.5-0.2-0.9-0.3-1.4-0.3h-6.1V207.6L1661.5,207.6z M1656,222.4v-29.2h11.9c1.3,0,2.5,0.3,3.6,0.8
		c1.1,0.6,2,1.3,2.8,2.2c0.8,0.9,1.4,2,1.9,3.1c0.4,1.2,0.7,2.3,0.7,3.5c0,1.2-0.2,2.4-0.6,3.6c-0.4,1.2-1,2.2-1.8,3.1
		c-0.8,0.9-1.7,1.6-2.8,2.2c-1.1,0.5-2.3,0.8-3.6,0.8h-6.7v9.8H1656L1656,222.4z"/>
	<path class="st6" d="M1695.4,198h-5.7c-0.5,0-1,0.1-1.5,0.3s-0.9,0.5-1.3,0.9c-0.4,0.4-0.7,0.8-0.9,1.4c-0.2,0.5-0.3,1.1-0.3,1.8
		c0,1.3,0.4,2.4,1.1,3.2c0.8,0.8,1.7,1.2,2.8,1.2h5.9V198L1695.4,198z M1695.4,222.4v-10.8h-4.5l-6.3,10.8h-6l6.9-11.5
		c-1.6-0.7-2.9-1.8-3.9-3.3c-1-1.5-1.5-3.2-1.5-5.2c0-1.2,0.2-2.4,0.7-3.5c0.4-1.1,1.1-2.1,1.9-2.9c0.8-0.8,1.7-1.5,2.8-2
		c1.1-0.5,2.3-0.7,3.6-0.7h11.8v29.2H1695.4L1695.4,222.4z"/>
	<polygon class="st6" points="1729.9,222.4 1729.9,203 1722.7,217.4 1719.7,217.4 1712.4,203 1712.4,222.4 1707,222.4 1707,193.2 
		1712.8,193.2 1721.2,209.8 1729.6,193.2 1735.4,193.2 1735.4,222.4 1729.9,222.4 	"/>
	<path class="st6" d="M1746,222.6c-0.3,0-0.6,0-1-0.1c-0.3,0-0.7-0.1-1.1-0.2c-0.4-0.1-0.7-0.2-1.1-0.3c-0.4-0.1-0.7-0.3-0.9-0.5
		l0.7-4.7c0.3,0.2,0.7,0.3,1.2,0.6c0.5,0.2,1.1,0.3,1.6,0.3c0.8,0,1.4-0.2,2-0.7c0.6-0.5,1.1-1.3,1.5-2.4l-10.3-21.5h5.9l6.9,15.7
		l6.4-15.7h5.7l-9.9,22.2c-0.6,1.3-1.1,2.4-1.7,3.4c-0.6,0.9-1.1,1.7-1.7,2.3c-0.6,0.6-1.2,1-1.9,1.3
		C1747.7,222.5,1746.9,222.6,1746,222.6L1746,222.6z"/>
	<path class="st6" d="M1790.6,215.8c-0.4,1.1-1.1,2.1-1.9,2.9c-0.8,0.8-1.7,1.5-2.8,2.1c-1.1,0.6-2.2,1-3.4,1.3
		c-1.2,0.3-2.5,0.5-3.7,0.5c-2.1,0-4-0.4-5.7-1.3c-1.7-0.9-3.2-2-4.4-3.4c-1.2-1.4-2.1-3-2.8-4.8c-0.7-1.8-1-3.6-1-5.5
		c0-1.8,0.3-3.5,0.9-5.3c0.6-1.7,1.5-3.3,2.7-4.7c1.2-1.4,2.7-2.5,4.4-3.3c1.7-0.8,3.8-1.3,6-1.3c2.7,0,5.1,0.6,6.9,1.8
		c1.9,1.2,3.3,2.7,4.2,4.6l-4.2,3c-0.4-0.8-0.8-1.5-1.4-2.1c-0.5-0.6-1.1-1-1.8-1.3c-0.6-0.3-1.3-0.6-2-0.7c-0.7-0.1-1.3-0.2-2-0.2
		c-1.2,0-2.2,0.2-3.2,0.6c-0.9,0.4-1.7,0.9-2.4,1.6c-0.7,0.7-1.2,1.4-1.6,2.3c-0.4,0.9-0.7,1.8-0.9,2.7h11.3v4.6h-11.4
		c0.2,1.1,0.5,2.1,0.9,3c0.5,1,1.1,1.8,1.8,2.5c0.7,0.7,1.5,1.3,2.5,1.7c0.9,0.4,2,0.6,3.1,0.6c0.7,0,1.3-0.1,2-0.2
		c0.7-0.2,1.4-0.4,2-0.8c0.6-0.4,1.2-0.8,1.8-1.4c0.5-0.6,1-1.2,1.3-2L1790.6,215.8L1790.6,215.8z"/>
	<polygon class="st6" points="1817.3,222.4 1817.3,203 1810.1,217.4 1807.1,217.4 1799.8,203 1799.8,222.4 1794.4,222.4 
		1794.4,193.2 1800.2,193.2 1808.5,209.8 1817,193.2 1822.8,193.2 1822.8,222.4 1817.3,222.4 	"/>
	<path class="st6" d="M1832.6,207.8c0,1.3,0.2,2.5,0.6,3.7c0.4,1.2,0.9,2.2,1.6,3.1c0.7,0.9,1.6,1.6,2.6,2.2c1,0.5,2.2,0.8,3.5,0.8
		c1.3,0,2.5-0.3,3.5-0.8c1-0.6,1.9-1.3,2.6-2.2c0.7-0.9,1.2-2,1.6-3.1c0.4-1.2,0.5-2.3,0.5-3.6c0-1.3-0.2-2.5-0.6-3.7
		c-0.4-1.2-0.9-2.2-1.6-3.1c-0.7-0.9-1.6-1.6-2.6-2.2s-2.2-0.8-3.4-0.8c-1.3,0-2.5,0.3-3.5,0.8c-1,0.6-1.9,1.3-2.6,2.2
		c-0.7,0.9-1.2,2-1.6,3.1C1832.8,205.4,1832.6,206.6,1832.6,207.8L1832.6,207.8z M1840.8,222.6c-2.1,0-3.9-0.4-5.6-1.3
		c-1.7-0.8-3.1-1.9-4.3-3.3c-1.2-1.4-2.1-3-2.8-4.7c-0.7-1.8-1-3.6-1-5.5c0-1.9,0.3-3.8,1.1-5.6c0.7-1.8,1.7-3.4,2.9-4.7
		c1.2-1.4,2.7-2.5,4.4-3.3c1.7-0.8,3.5-1.2,5.5-1.2c2,0,3.9,0.4,5.6,1.3c1.7,0.9,3.1,2,4.3,3.4c1.2,1.4,2.1,3,2.8,4.8
		c0.7,1.8,1,3.6,1,5.4c0,1.9-0.3,3.8-1,5.6c-0.7,1.8-1.6,3.3-2.9,4.7c-1.2,1.4-2.7,2.4-4.4,3.2
		C1844.6,222.2,1842.8,222.6,1840.8,222.6L1840.8,222.6z"/>
	<path class="st6" d="M1636.2,256.1h10.8c1.7,0,3.1-0.7,4.3-2.2c1.1-1.4,1.7-3.4,1.7-5.9c0-1.3-0.2-2.4-0.5-3.4
		c-0.4-1-0.8-1.9-1.4-2.6c-0.6-0.7-1.3-1.2-2.1-1.6c-0.8-0.4-1.6-0.5-2.4-0.5h-10.4V256.1L1636.2,256.1z M1626.9,281.3v-49.8h20.3
		c2.2,0,4.2,0.5,6.1,1.4c1.9,1,3.5,2.2,4.8,3.8c1.4,1.6,2.4,3.3,3.2,5.3c0.8,2,1.1,4,1.1,6c0,2.1-0.4,4.1-1.1,6.1
		c-0.7,2-1.7,3.7-3,5.3c-1.3,1.5-2.9,2.8-4.7,3.7c-1.8,0.9-3.9,1.4-6.1,1.4h-11.4v16.7H1626.9L1626.9,281.3z"/>
	<path class="st6" d="M1693.4,262.1l-6.6-19.6l-6.9,19.6H1693.4L1693.4,262.1z M1682.6,231.5h8.2l18.2,49.8h-9.6l-4.5-12.4h-16.8
		l-4.4,12.4h-9.6L1682.6,231.5L1682.6,231.5z"/>
	<path class="st6" d="M1711.6,237.9c1.9-2.2,4.2-3.9,6.7-5.1c2.5-1.1,5.5-1.7,9.1-1.7c4.6,0,8.2,1.1,10.9,3.2c2.7,2.1,4,5.2,4,9.3
		c0,2.5-0.6,4.8-1.8,6.8c-1.2,2-3.1,3.5-5.6,4.3c3,0.6,5.3,2,6.9,4.1c1.6,2.1,2.4,4.8,2.4,7.9c0,2.3-0.4,4.4-1.3,6.3
		c-0.9,1.8-2.1,3.4-3.6,4.7c-1.5,1.3-3.4,2.3-5.5,3c-2.1,0.7-4.4,1.1-6.9,1.1c-3.5,0-6.5-0.6-9.2-1.8c-2.7-1.2-5-3-7.1-5.4l5.4-6.7
		c1.4,1.6,2.9,2.9,4.6,3.9c1.7,0.9,3.7,1.4,6.1,1.4c2.4,0,4.3-0.7,5.9-2c1.5-1.3,2.3-3.1,2.3-5.5c0-2.1-0.8-3.9-2.4-5.3
		c-1.6-1.4-4-2.1-7.3-2.1h-5V251h4.5c2.9,0,5.1-0.5,6.6-1.6c1.5-1.1,2.3-2.7,2.3-4.7c0-1.8-0.6-3.1-1.7-4.1
		c-1.1-0.9-2.8-1.4-4.9-1.4c-2.1,0-4,0.4-5.6,1.2c-1.6,0.8-3.1,2-4.4,3.5L1711.6,237.9L1711.6,237.9z"/>
	<path class="st6" d="M1758.1,256.4c0,2.1,0.3,4.2,0.9,6.2c0.6,2,1.5,3.8,2.7,5.3c1.2,1.5,2.7,2.8,4.4,3.7c1.7,0.9,3.7,1.4,5.9,1.4
		c2.3,0,4.2-0.5,6-1.4c1.7-1,3.2-2.2,4.4-3.8c1.2-1.6,2.1-3.4,2.7-5.4c0.6-2,0.9-4,0.9-6.1c0-2.1-0.3-4.2-1-6.2
		c-0.7-2-1.6-3.8-2.8-5.3c-1.2-1.5-2.7-2.8-4.4-3.7c-1.7-0.9-3.7-1.4-5.8-1.4c-2.3,0-4.3,0.5-6,1.4c-1.8,1-3.2,2.2-4.4,3.8
		c-1.2,1.6-2.1,3.3-2.7,5.3C1758.4,252.3,1758.1,254.3,1758.1,256.4L1758.1,256.4z M1772,281.6c-3.5,0-6.7-0.7-9.6-2.1
		c-2.9-1.4-5.3-3.3-7.4-5.7c-2-2.4-3.6-5.1-4.8-8.1c-1.1-3-1.7-6.1-1.7-9.3c0-3.3,0.6-6.5,1.8-9.5c1.2-3,2.8-5.7,4.9-8.1
		c2.1-2.3,4.6-4.2,7.5-5.6c2.9-1.4,6-2.1,9.4-2.1c3.5,0,6.6,0.7,9.5,2.2c2.9,1.5,5.3,3.4,7.3,5.8c2,2.4,3.6,5.1,4.7,8.1
		c1.1,3,1.7,6.1,1.7,9.3c0,3.3-0.6,6.5-1.8,9.5c-1.2,3-2.8,5.7-4.9,8c-2.1,2.3-4.6,4.2-7.4,5.5
		C1778.5,280.9,1775.4,281.6,1772,281.6L1772,281.6z"/>
	<polygon class="st6" points="1841.9,281.3 1841.9,248.3 1829.5,272.9 1824.4,272.9 1812.1,248.3 1812.1,281.3 1802.8,281.3 
		1802.8,231.5 1812.8,231.5 1826.9,259.8 1841.3,231.5 1851.2,231.5 1851.2,281.3 1841.9,281.3 	"/>
</g>
<g>
	<path d="M414,212.2H84v75.4h330l-23.6-38.7L414,212.2z M405.2,282.6H89v-65.4h316.2l-20.1,31.7L405.2,282.6z"/>
	<path d="M159.1,262.5c-3.1,0-6.3-1.6-8.5-3.8c-2.2-2.2-3.5-5.3-3.5-8.8c0-3.5,1.3-6.6,3.5-8.8c2.2-2.2,5-3.8,8.5-3.8
		c5,0,9.1,2.5,11,7.9h5c-1.9-7.9-8.2-12.6-15.7-12.6c-4.7,0-8.8,1.9-11.6,5c-2.8,3.1-4.7,7.5-4.7,12.3c0,4.7,1.9,9.1,4.7,12.3
		c2.8,3.1,7.2,5,11.6,5c7.9,0,14.1-5.3,16-13.2h-4.7C168.9,259.6,164.5,262.5,159.1,262.5z"/>
	<polygon points="184.6,237.9 190.9,237.9 190.9,262.5 184.6,262.5 184.6,267.2 202.2,267.2 202.2,262.5 195.9,262.5 195.9,237.9 
		202.2,237.9 202.2,232.9 184.6,232.9 	"/>
	<path d="M128,248.3c3.5-2.5,3.8-6.3,2.5-9.7c-1.3-3.1-4.1-5.7-8.2-5.7h-14.5v34.3h15.4c6.6,0,9.7-5,9.7-10.4
		C133.3,253.7,131.8,250.2,128,248.3z M112.9,237.6h9.4c5.3,0,5.3,8.8,0,8.8h-9.4V237.6z M123.3,262.5h-10.4v-11h10.4
		c3.5,0,5,2.8,5,5.3C128.3,259.6,126.7,262.5,123.3,262.5z"/>
	<path d="M214.7,261.5c-1.6,0-2.8,1.3-2.8,3.1c0,1.6,1.3,3.1,2.8,3.1c1.9,0,3.1-1.6,3.1-3.1C217.9,262.5,216.6,261.5,214.7,261.5z"
		/>
	<path d="M330.1,232.6c-4.7,0-9.1,1.9-12.3,5.3c-3.1,3.1-5,7.5-5,12.3c0,4.7,1.9,9.1,5,12.3s7.5,5,12.3,5c4.7,0,9.1-1.9,12.3-5
		c3.1-3.1,5-7.5,5-12.3c0-4.7-1.9-9.1-5-12.3C339.2,234.5,334.8,232.6,330.1,232.6z M338.9,259c-2.2,2.2-5.3,3.8-8.8,3.8
		c-3.5,0-6.6-1.6-8.8-3.8c-2.2-2.2-3.8-5.3-3.8-8.8c0-3.5,1.3-6.6,3.8-8.8c2.2-2.2,5.3-3.8,8.8-3.8s6.6,1.6,8.8,3.8
		c2.2,2.2,3.5,5.3,3.5,8.8C342.3,253.7,341.1,256.8,338.9,259z"/>
	<polygon points="355.9,237.9 362.1,237.9 362.1,262.5 355.9,262.5 355.9,267.2 373.5,267.2 373.5,262.5 367.2,262.5 367.2,237.9 
		373.5,237.9 373.5,232.9 355.9,232.9 	"/>
	<path d="M298.3,248.3c3.5-2.5,3.8-6.3,2.5-9.7c-1.3-3.1-4.1-5.7-8.2-5.7h-14.1v34.3h15.4c6.6,0,9.7-5,9.7-10.4
		C303.7,253.7,302.1,250.2,298.3,248.3z M283.3,237.6h9.4c5.3,0,5.3,8.8,0,8.8h-9.1L283.3,237.6L283.3,237.6z M293.6,262.5h-10.4
		v-11h10.4c3.5,0,5,2.8,5,5.3C298.7,259.6,297.1,262.5,293.6,262.5z"/>
	<path d="M251.8,262.5c-3.1,0-6.3-1.6-8.5-3.8c-2.2-2.2-3.5-5.3-3.5-8.8c0-3.5,1.3-6.6,3.5-8.8c2.2-2.2,5-3.8,8.5-3.8
		c5,0,9.1,2.5,11,7.9h4.7c-1.9-7.9-8.2-12.6-15.7-12.6c-4.7,0-8.8,1.9-11.6,5c-2.8,3.1-4.7,7.5-4.7,12.3c0,4.7,1.9,9.1,4.7,12.3
		c2.8,3.1,7.2,5,11.6,5c7.9,0,14.1-5.3,16-13.2h-4.7C261.6,259.6,257.2,262.5,251.8,262.5z"/>
	<rect x="366.2" y="225.1" width="5.3" height="4.4"/>
	<rect x="357.7" y="225.1" width="5.3" height="4.4"/>
</g>
</svg>
