<?xml version="1.0" encoding="utf-8"?>
<!-- Generator: Adobe Illustrator 23.0.4, SVG Export Plug-In . SVG Version: 6.00 Build 0)  -->
<svg version="1.1" id="Layer_1" xmlns="http://www.w3.org/2000/svg" xmlns:xlink="http://www.w3.org/1999/xlink" x="0px" y="0px"
	 viewBox="0 0 728.5 726.82" style="enable-background:new 0 0 728.5 726.82;" xml:space="preserve">
<style type="text/css">
	.st0{fill:#1C3E70;}
	.st1{fill:#FDEB07;}
	.st2{fill:#010101;}
	.st3{fill:#FFFFFF;}
</style>
<g>
	<g>
		<rect x="94.96" y="280.23" class="st0" width="189.17" height="130.81"/>
		<polygon class="st1" points="185.51,308.73 189.51,305.71 193.49,308.73 191.98,303.84 196.03,300.82 191.03,300.82 
			189.51,295.88 187.97,300.83 182.98,300.82 187.03,303.84 		"/>
		<polygon class="st1" points="164.86,314.49 168.85,311.46 172.84,314.49 171.32,309.6 175.37,306.58 170.38,306.58 168.84,301.63 
			167.32,306.58 162.32,306.58 166.37,309.6 		"/>
		<polygon class="st1" points="153.73,317.34 152.2,322.3 147.21,322.29 151.26,325.31 149.74,330.2 153.73,327.18 157.72,330.2 
			156.2,325.31 160.26,322.29 155.26,322.29 		"/>
		<polygon class="st1" points="148.19,348.58 152.18,351.6 150.66,346.71 154.71,343.69 149.72,343.69 148.19,338.74 146.66,343.7 
			141.66,343.69 145.71,346.71 144.19,351.6 		"/>
		<polygon class="st1" points="155.26,365.15 153.73,360.2 152.2,365.16 147.21,365.15 151.26,368.18 149.74,373.06 153.73,370.03 
			157.72,373.06 156.2,368.18 160.26,365.15 		"/>
		<polygon class="st1" points="170.41,380.86 168.87,375.92 167.35,380.87 162.35,380.86 166.4,383.88 164.89,388.77 168.88,385.75 
			172.87,388.77 171.35,383.88 175.4,380.86 		"/>
		<polygon class="st1" points="191.04,386.55 189.51,381.6 187.98,386.56 182.98,386.55 187.03,389.57 185.52,394.46 189.51,391.44 
			193.5,394.46 191.98,389.57 196.04,386.55 		"/>
		<polygon class="st1" points="211.67,380.86 210.14,375.92 208.61,380.87 203.62,380.86 207.67,383.88 206.15,388.77 
			210.14,385.75 214.13,388.77 212.61,383.88 216.67,380.86 		"/>
		<polygon class="st1" points="226.82,365.15 225.28,360.2 223.75,365.16 218.76,365.15 222.81,368.18 221.29,373.06 225.28,370.03 
			229.28,373.06 227.75,368.18 231.81,365.15 		"/>
		<polygon class="st1" points="237.3,343.63 232.3,343.63 230.77,338.68 229.24,343.63 224.24,343.63 228.3,346.65 226.78,351.54 
			230.77,348.51 234.76,351.54 233.24,346.65 		"/>
		<polygon class="st1" points="221.29,330.13 225.28,327.11 229.28,330.13 227.76,325.25 231.81,322.23 226.82,322.23 
			225.28,317.28 223.75,322.24 218.76,322.23 222.82,325.25 		"/>
		<polygon class="st1" points="210.2,301.63 208.67,306.59 203.67,306.58 207.72,309.61 206.21,314.49 210.2,311.47 214.19,314.49 
			212.68,309.61 216.73,306.58 211.73,306.58 		"/>
		<g>
			<path class="st2" d="M100.53,446.2v-21.84h14.12v4.44h-9.23v4.13h8.72v4.23h-8.72v4.54h9.76v4.5H100.53z"/>
			<path class="st2" d="M135.7,441.56c-0.43,1.08-1.03,2-1.83,2.78c-0.79,0.77-1.75,1.37-2.86,1.8c-1.12,0.43-2.36,0.65-3.72,0.65
				c-1.38,0-2.63-0.22-3.74-0.65c-1.11-0.43-2.05-1.03-2.82-1.8c-0.77-0.77-1.37-1.7-1.78-2.78c-0.42-1.08-0.62-2.28-0.62-3.59
				v-13.6h5.04v13.17c0,0.6,0.07,1.16,0.22,1.7c0.15,0.54,0.38,1.01,0.68,1.44c0.31,0.42,0.71,0.75,1.22,1
				c0.5,0.25,1.11,0.37,1.83,0.37c0.71,0,1.32-0.12,1.82-0.37c0.5-0.25,0.91-0.58,1.23-1c0.32-0.42,0.54-0.9,0.68-1.44
				c0.14-0.53,0.21-1.1,0.21-1.7v-13.17h5.07v13.6C136.33,439.28,136.12,440.48,135.7,441.56z"/>
			<path class="st2" d="M153.54,441.95v4.26h-4.66v-4.26H139v-4.35l8.54-13.23h5.96v13.39h2.91v4.19H153.54z M148.91,429.67h-0.09
				l-4.98,8.08h5.07V429.67z"/>
			<path class="st2" d="M175.97,439.85c0,1.19-0.23,2.2-0.68,3.01c-0.45,0.81-1.06,1.47-1.81,1.96c-0.75,0.49-1.61,0.85-2.57,1.06
				c-0.96,0.22-1.94,0.32-2.95,0.32h-8.37v-21.84h8.37c0.81,0,1.64,0.09,2.49,0.26s1.62,0.47,2.31,0.89
				c0.69,0.42,1.26,0.99,1.69,1.71c0.43,0.72,0.65,1.64,0.65,2.75c0,1.21-0.32,2.21-0.95,3.01c-0.63,0.79-1.46,1.36-2.49,1.71v0.06
				c0.59,0.1,1.15,0.29,1.68,0.57c0.52,0.28,0.98,0.63,1.36,1.06c0.39,0.43,0.69,0.94,0.92,1.51
				C175.85,438.48,175.97,439.13,175.97,439.85z M170.21,430.69c0-0.74-0.27-1.28-0.82-1.62c-0.54-0.34-1.35-0.51-2.42-0.51h-2.49
				v4.5h2.73c0.95,0,1.69-0.2,2.21-0.6C169.95,432.06,170.21,431.47,170.21,430.69z M170.89,439.36c0-0.91-0.33-1.53-0.98-1.88
				c-0.65-0.35-1.52-0.52-2.61-0.52h-2.82v5h2.85c0.39,0,0.81-0.03,1.23-0.11c0.42-0.07,0.81-0.2,1.16-0.38
				c0.35-0.19,0.63-0.45,0.84-0.79C170.79,440.33,170.89,439.89,170.89,439.36z"/>
			<path class="st2" d="M188.78,446.2v-2.13h-0.06c-0.18,0.35-0.41,0.68-0.7,0.99c-0.29,0.31-0.62,0.57-1.01,0.8
				c-0.39,0.23-0.81,0.41-1.28,0.56c-0.46,0.14-0.95,0.22-1.47,0.22c-0.99,0-1.82-0.19-2.51-0.56c-0.68-0.37-1.24-0.85-1.66-1.43
				c-0.43-0.59-0.73-1.26-0.92-2.01c-0.19-0.75-0.28-1.52-0.28-2.3v-9.5h4.89v8.33c0,0.43,0.03,0.84,0.09,1.23
				c0.06,0.39,0.17,0.74,0.34,1.05c0.17,0.31,0.39,0.55,0.67,0.72c0.28,0.17,0.64,0.26,1.1,0.26c0.85,0,1.5-0.33,1.94-0.99
				s0.67-1.43,0.67-2.31v-8.3h4.86v15.36H188.78z"/>
			<path class="st2" d="M205.96,435.38c-0.4-0.39-0.86-0.72-1.39-0.99c-0.53-0.27-1.1-0.4-1.69-0.4c-0.45,0-0.87,0.09-1.26,0.28
				c-0.39,0.18-0.58,0.5-0.58,0.96c0,0.43,0.21,0.74,0.64,0.92c0.42,0.18,1.11,0.39,2.06,0.62c0.55,0.12,1.11,0.3,1.68,0.52
				c0.56,0.23,1.07,0.52,1.53,0.89c0.45,0.37,0.82,0.82,1.1,1.36c0.28,0.54,0.42,1.17,0.42,1.91c0,0.97-0.19,1.78-0.56,2.45
				c-0.38,0.67-0.86,1.21-1.47,1.62c-0.6,0.41-1.28,0.71-2.03,0.89c-0.75,0.18-1.5,0.28-2.25,0.28c-1.21,0-2.39-0.2-3.55-0.6
				c-1.16-0.4-2.12-0.99-2.89-1.77l2.73-2.99c0.43,0.49,0.97,0.91,1.6,1.23c0.63,0.33,1.31,0.49,2.02,0.49c0.4,0,0.79-0.1,1.17-0.29
				c0.38-0.2,0.58-0.54,0.58-1.04c0-0.47-0.24-0.82-0.71-1.05c-0.47-0.23-1.22-0.46-2.23-0.71c-0.51-0.12-1.03-0.29-1.54-0.49
				c-0.51-0.2-0.97-0.48-1.38-0.83c-0.41-0.35-0.74-0.78-0.99-1.29c-0.26-0.51-0.39-1.13-0.39-1.85c0-0.92,0.19-1.71,0.56-2.36
				c0.37-0.65,0.86-1.18,1.45-1.59c0.59-0.41,1.25-0.72,1.97-0.91c0.72-0.2,1.44-0.29,2.15-0.29c1.11,0,2.19,0.18,3.25,0.54
				c1.06,0.36,1.95,0.9,2.69,1.62L205.96,435.38z"/>
			<path class="st2" d="M216.55,425.94c0,0.39-0.07,0.75-0.22,1.09c-0.15,0.34-0.35,0.63-0.59,0.88c-0.25,0.25-0.54,0.44-0.89,0.59
				c-0.35,0.14-0.71,0.22-1.08,0.22c-0.79,0-1.45-0.27-1.99-0.82c-0.53-0.54-0.8-1.2-0.8-1.96c0-0.37,0.07-0.72,0.21-1.06
				c0.14-0.34,0.34-0.63,0.59-0.88c0.26-0.25,0.55-0.45,0.89-0.6s0.7-0.23,1.1-0.23c0.37,0,0.74,0.07,1.08,0.22
				c0.34,0.14,0.64,0.34,0.89,0.58c0.25,0.25,0.45,0.54,0.59,0.88C216.48,425.18,216.55,425.55,216.55,425.94z M211.33,446.2v-15.36
				h4.87v15.36H211.33z"/>
			<path class="st2" d="M229.75,446.2v-8.39c0-0.43-0.04-0.84-0.1-1.23c-0.07-0.39-0.18-0.74-0.34-1.03
				c-0.16-0.3-0.38-0.53-0.67-0.71c-0.29-0.17-0.65-0.26-1.08-0.26c-0.44,0-0.82,0.09-1.14,0.26c-0.33,0.17-0.6,0.42-0.82,0.72
				c-0.22,0.31-0.38,0.66-0.49,1.06c-0.11,0.4-0.16,0.82-0.16,1.25v8.33h-4.89v-15.36h4.72v2.13h0.06c0.18-0.33,0.41-0.65,0.7-0.97
				c0.29-0.32,0.62-0.59,1.01-0.82c0.39-0.23,0.81-0.41,1.26-0.56c0.46-0.14,0.94-0.22,1.45-0.22c0.99,0,1.83,0.19,2.52,0.56
				c0.69,0.37,1.25,0.85,1.68,1.43c0.42,0.59,0.73,1.26,0.92,2.02c0.19,0.76,0.28,1.52,0.28,2.28v9.5H229.75z"/>
			<path class="st2" d="M252.98,438.71c0,0.21,0,0.41,0,0.62c0,0.21-0.01,0.4-0.03,0.59h-10.71c0.04,0.43,0.16,0.82,0.37,1.17
				c0.21,0.35,0.47,0.65,0.8,0.91c0.33,0.26,0.69,0.46,1.1,0.6c0.4,0.14,0.83,0.22,1.26,0.22c0.77,0,1.42-0.15,1.96-0.45
				c0.53-0.3,0.97-0.68,1.31-1.16l3.38,2.22c-0.69,1.05-1.61,1.86-2.74,2.42c-1.14,0.57-2.46,0.85-3.96,0.85
				c-1.11,0-2.16-0.18-3.14-0.54c-0.99-0.36-1.85-0.88-2.6-1.57c-0.74-0.69-1.33-1.54-1.75-2.55c-0.43-1.01-0.64-2.16-0.64-3.45
				c0-1.25,0.21-2.39,0.62-3.41c0.42-1.02,0.98-1.88,1.69-2.59c0.71-0.71,1.55-1.26,2.52-1.65c0.97-0.39,2.02-0.58,3.14-0.58
				c1.09,0,2.09,0.19,3,0.57c0.91,0.38,1.69,0.93,2.34,1.65c0.65,0.72,1.16,1.59,1.53,2.62
				C252.8,436.22,252.98,437.39,252.98,438.71z M248.5,436.77c0-0.8-0.24-1.49-0.73-2.07c-0.49-0.58-1.21-0.86-2.18-0.86
				c-0.47,0-0.91,0.08-1.31,0.23c-0.4,0.15-0.74,0.36-1.04,0.63c-0.3,0.27-0.53,0.58-0.71,0.94c-0.18,0.36-0.28,0.73-0.3,1.12H248.5
				z"/>
			<path class="st2" d="M264.7,435.38c-0.4-0.39-0.86-0.72-1.39-0.99c-0.53-0.27-1.1-0.4-1.69-0.4c-0.45,0-0.88,0.09-1.26,0.28
				c-0.39,0.18-0.58,0.5-0.58,0.96c0,0.43,0.21,0.74,0.64,0.92c0.42,0.18,1.11,0.39,2.06,0.62c0.55,0.12,1.11,0.3,1.68,0.52
				c0.56,0.23,1.07,0.52,1.53,0.89c0.45,0.37,0.82,0.82,1.1,1.36c0.28,0.54,0.42,1.17,0.42,1.91c0,0.97-0.19,1.78-0.56,2.45
				c-0.38,0.67-0.86,1.21-1.47,1.62c-0.6,0.41-1.28,0.71-2.03,0.89c-0.75,0.18-1.5,0.28-2.25,0.28c-1.21,0-2.39-0.2-3.55-0.6
				c-1.16-0.4-2.12-0.99-2.89-1.77l2.73-2.99c0.43,0.49,0.97,0.91,1.6,1.23c0.63,0.33,1.31,0.49,2.02,0.49c0.4,0,0.79-0.1,1.17-0.29
				c0.39-0.2,0.58-0.54,0.58-1.04c0-0.47-0.24-0.82-0.71-1.05c-0.47-0.23-1.22-0.46-2.23-0.71c-0.51-0.12-1.03-0.29-1.54-0.49
				c-0.51-0.2-0.97-0.48-1.38-0.83c-0.41-0.35-0.74-0.78-0.99-1.29c-0.26-0.51-0.39-1.13-0.39-1.85c0-0.92,0.19-1.71,0.56-2.36
				c0.38-0.65,0.86-1.18,1.45-1.59c0.59-0.41,1.25-0.72,1.97-0.91c0.72-0.2,1.44-0.29,2.15-0.29c1.11,0,2.19,0.18,3.25,0.54
				c1.06,0.36,1.95,0.9,2.69,1.62L264.7,435.38z"/>
			<path class="st2" d="M278.7,435.38c-0.4-0.39-0.86-0.72-1.39-0.99c-0.53-0.27-1.1-0.4-1.69-0.4c-0.45,0-0.87,0.09-1.26,0.28
				c-0.39,0.18-0.58,0.5-0.58,0.96c0,0.43,0.21,0.74,0.64,0.92c0.42,0.18,1.11,0.39,2.06,0.62c0.55,0.12,1.11,0.3,1.68,0.52
				c0.56,0.23,1.07,0.52,1.53,0.89c0.45,0.37,0.82,0.82,1.1,1.36c0.28,0.54,0.42,1.17,0.42,1.91c0,0.97-0.19,1.78-0.56,2.45
				c-0.38,0.67-0.87,1.21-1.47,1.62c-0.6,0.41-1.28,0.71-2.03,0.89c-0.75,0.18-1.5,0.28-2.25,0.28c-1.21,0-2.39-0.2-3.55-0.6
				c-1.16-0.4-2.12-0.99-2.89-1.77l2.73-2.99c0.43,0.49,0.97,0.91,1.6,1.23c0.63,0.33,1.31,0.49,2.02,0.49c0.4,0,0.79-0.1,1.17-0.29
				c0.38-0.2,0.58-0.54,0.58-1.04c0-0.47-0.24-0.82-0.71-1.05c-0.47-0.23-1.22-0.46-2.23-0.71c-0.51-0.12-1.03-0.29-1.54-0.49
				c-0.51-0.2-0.97-0.48-1.38-0.83c-0.41-0.35-0.74-0.78-0.99-1.29c-0.26-0.51-0.39-1.13-0.39-1.85c0-0.92,0.19-1.71,0.56-2.36
				c0.37-0.65,0.86-1.18,1.45-1.59c0.59-0.41,1.25-0.72,1.97-0.91c0.72-0.2,1.44-0.29,2.15-0.29c1.11,0,2.19,0.18,3.25,0.54
				c1.06,0.36,1.95,0.9,2.69,1.62L278.7,435.38z"/>
		</g>
	</g>
	<g>
		<path class="st0" d="M302.8,280.33h33.65v42.36h-7.88v-35.14h-17.89v35.14h-7.88V280.33z"/>
		<path class="st0" d="M345.37,322.69v-42.36h17.31c1.88,0,3.61,0.41,5.21,1.22c1.59,0.82,2.96,1.89,4.11,3.22
			c1.15,1.33,2.05,2.84,2.7,4.53c0.65,1.69,0.98,3.39,0.98,5.1c0,1.79-0.31,3.53-0.92,5.22c-0.61,1.69-1.48,3.19-2.59,4.5
			c-1.11,1.31-2.45,2.37-4.03,3.16c-1.57,0.8-3.3,1.19-5.18,1.19h-9.66v14.2H345.37z M353.3,301.27h9.2c1.46,0,2.67-0.62,3.65-1.85
			c0.98-1.23,1.47-2.9,1.47-5.01c0-1.07-0.15-2.04-0.46-2.89c-0.31-0.86-0.71-1.58-1.21-2.18c-0.5-0.6-1.08-1.04-1.75-1.34
			c-0.67-0.3-1.35-0.45-2.04-0.45h-8.86V301.27z"/>
		<path class="st0" d="M402.6,322.69V307h-6.5l-9.2,15.69h-8.74l10.01-16.7c-2.34-0.99-4.22-2.59-5.64-4.77
			c-1.42-2.19-2.13-4.71-2.13-7.58c0-1.79,0.32-3.48,0.98-5.07c0.65-1.59,1.55-3,2.7-4.24c1.15-1.23,2.52-2.21,4.11-2.92
			c1.59-0.72,3.33-1.07,5.21-1.07h17.08v42.36H402.6z M402.6,287.37h-8.34c-0.77,0-1.5,0.15-2.19,0.45
			c-0.69,0.3-1.31,0.72-1.87,1.25c-0.56,0.54-1,1.19-1.32,1.97c-0.33,0.78-0.49,1.64-0.49,2.6c0,1.91,0.55,3.44,1.64,4.59
			c1.09,1.15,2.44,1.73,4.06,1.73h8.51V287.37z"/>
		<path class="st0" d="M452.64,322.69v-28.04l-10.53,20.88h-4.31l-10.53-20.88v28.04h-7.94v-42.36h8.51l12.08,24.1l12.19-24.1h8.46
			v42.36H452.64z"/>
		<path class="st0" d="M476.05,323.11c-0.42,0-0.88-0.03-1.38-0.09c-0.5-0.06-1.02-0.15-1.55-0.27c-0.54-0.12-1.06-0.28-1.58-0.48
			c-0.52-0.2-0.97-0.44-1.35-0.72l1.04-6.8c0.42,0.24,1.01,0.51,1.75,0.81c0.75,0.3,1.52,0.45,2.33,0.45c1.11,0,2.08-0.33,2.91-0.98
			c0.82-0.66,1.54-1.84,2.16-3.55l-15.01-31.14h8.57l10.01,22.85l9.32-22.85h8.34l-14.38,32.22c-0.84,1.91-1.67,3.53-2.47,4.86
			c-0.81,1.33-1.64,2.43-2.5,3.28c-0.86,0.86-1.79,1.47-2.79,1.85C478.45,322.92,477.32,323.11,476.05,323.11z"/>
		<path class="st0" d="M540.65,313.2c-0.65,1.59-1.56,2.99-2.73,4.21c-1.17,1.21-2.52,2.24-4.05,3.07
			c-1.53,0.84-3.18,1.47-4.95,1.91c-1.76,0.44-3.57,0.66-5.41,0.66c-3.03,0-5.78-0.64-8.25-1.91c-2.47-1.27-4.58-2.93-6.33-4.98
			c-1.75-2.05-3.1-4.38-4.05-6.98c-0.96-2.6-1.44-5.26-1.44-7.96c0-2.58,0.45-5.14,1.35-7.67c0.9-2.53,2.21-4.78,3.94-6.77
			c1.73-1.99,3.85-3.6,6.38-4.83c2.53-1.23,5.44-1.85,8.74-1.85c3.99,0,7.34,0.86,10.07,2.57c2.72,1.71,4.75,3.94,6.1,6.68
			l-6.1,4.36c-0.54-1.19-1.2-2.2-1.98-3.01c-0.79-0.82-1.64-1.46-2.56-1.94c-0.92-0.48-1.88-0.82-2.88-1.04
			c-1-0.22-1.96-0.33-2.88-0.33c-1.73,0-3.26,0.29-4.6,0.87c-1.34,0.58-2.49,1.34-3.45,2.3c-0.96,0.95-1.74,2.06-2.33,3.31
			c-0.6,1.25-1.03,2.56-1.29,3.91h16.34v6.62h-16.57c0.23,1.55,0.68,3.02,1.35,4.41c0.67,1.39,1.52,2.61,2.56,3.64
			c1.04,1.03,2.23,1.85,3.6,2.45c1.36,0.6,2.87,0.89,4.51,0.89c0.96,0,1.95-0.12,2.96-0.36c1.02-0.24,1.99-0.62,2.93-1.13
			c0.94-0.52,1.8-1.18,2.59-2c0.79-0.81,1.43-1.8,1.93-2.95L540.65,313.2z"/>
		<path class="st0" d="M579.47,322.69v-28.04l-10.53,20.88h-4.31l-10.53-20.88v28.04h-7.94v-42.36h8.51l12.08,24.1l12.19-24.1h8.46
			v42.36H579.47z"/>
		<path class="st0" d="M613.58,322.99c-2.99,0-5.7-0.61-8.14-1.82c-2.44-1.21-4.52-2.82-6.27-4.83c-1.75-2.01-3.1-4.3-4.05-6.89
			c-0.96-2.58-1.44-5.23-1.44-7.93c0-2.82,0.51-5.53,1.52-8.11c1.02-2.58,2.42-4.87,4.2-6.86c1.78-1.99,3.9-3.57,6.36-4.74
			c2.45-1.17,5.12-1.76,8-1.76c2.95,0,5.65,0.63,8.08,1.88c2.44,1.25,4.52,2.89,6.24,4.92c1.73,2.03,3.07,4.34,4.03,6.92
			c0.96,2.59,1.44,5.21,1.44,7.88c0,2.82-0.5,5.52-1.5,8.08c-1,2.57-2.38,4.83-4.14,6.8c-1.76,1.97-3.87,3.54-6.33,4.71
			C619.12,322.4,616.46,322.99,613.58,322.99z M601.73,301.51c0,1.83,0.27,3.6,0.8,5.31c0.54,1.71,1.31,3.22,2.33,4.53
			c1.02,1.31,2.26,2.37,3.74,3.16c1.48,0.8,3.15,1.19,5.03,1.19c1.92,0,3.61-0.41,5.09-1.22c1.48-0.81,2.72-1.9,3.74-3.25
			c1.02-1.35,1.78-2.87,2.3-4.56c0.52-1.69,0.78-3.41,0.78-5.16c0-1.83-0.28-3.6-0.83-5.31c-0.56-1.71-1.34-3.22-2.36-4.53
			c-1.02-1.31-2.26-2.36-3.74-3.13c-1.48-0.78-3.13-1.16-4.98-1.16c-1.92,0-3.62,0.41-5.12,1.22c-1.5,0.82-2.74,1.89-3.74,3.22
			c-1,1.33-1.75,2.84-2.27,4.53C601.99,298.04,601.73,299.76,601.73,301.51z"/>
	</g>
	<g>
		<path class="st0" d="M303.13,408.19v-72.2h29.51c3.2,0,6.16,0.7,8.87,2.09c2.71,1.39,5.05,3.22,7.01,5.49
			c1.96,2.27,3.5,4.85,4.61,7.73c1.11,2.88,1.67,5.78,1.67,8.69c0,3.05-0.52,6.02-1.57,8.9c-1.05,2.88-2.52,5.44-4.41,7.68
			c-1.9,2.24-4.18,4.03-6.86,5.39c-2.68,1.36-5.62,2.03-8.82,2.03h-16.47v24.2H303.13z M316.66,371.68h15.69
			c2.48,0,4.56-1.05,6.23-3.15c1.67-2.1,2.5-4.95,2.5-8.54c0-1.83-0.26-3.47-0.78-4.93c-0.52-1.46-1.21-2.69-2.06-3.71
			c-0.85-1.02-1.85-1.78-2.99-2.29c-1.14-0.51-2.3-0.76-3.48-0.76h-15.1V371.68z"/>
		<path class="st0" d="M384.02,335.98h11.96l26.47,72.2h-13.92l-6.47-18h-24.32l-6.37,18h-13.92L384.02,335.98z M399.61,380.32
			L390,351.95l-10,28.37H399.61z"/>
		<path class="st0" d="M426.08,345.24c2.81-3.25,6.05-5.71,9.71-7.37c3.66-1.66,8.04-2.49,13.14-2.49c6.67,0,11.94,1.53,15.83,4.58
			c3.89,3.05,5.83,7.53,5.83,13.42c0,3.66-0.87,6.97-2.6,9.92c-1.73,2.95-4.46,5.03-8.19,6.25c4.31,0.88,7.65,2.86,10,5.95
			c2.35,3.09,3.53,6.9,3.53,11.44c0,3.39-0.64,6.42-1.91,9.1c-1.27,2.68-3.02,4.95-5.25,6.81c-2.22,1.87-4.89,3.31-7.99,4.32
			c-3.11,1.02-6.46,1.53-10.05,1.53c-5.03,0-9.48-0.86-13.34-2.59c-3.86-1.73-7.29-4.32-10.3-7.78l7.84-9.76
			c1.96,2.37,4.17,4.24,6.62,5.59c2.45,1.36,5.41,2.03,8.87,2.03c3.46,0,6.31-0.95,8.53-2.85c2.22-1.9,3.33-4.54,3.33-7.93
			c0-3.12-1.16-5.69-3.48-7.73c-2.32-2.03-5.83-3.05-10.54-3.05h-7.26v-10.37h6.47c4.18,0,7.39-0.8,9.61-2.39
			c2.22-1.59,3.33-3.85,3.33-6.76c0-2.58-0.83-4.54-2.5-5.9c-1.67-1.36-4.04-2.03-7.11-2.03c-3.07,0-5.8,0.59-8.19,1.78
			c-2.39,1.19-4.5,2.86-6.32,5.03L426.08,345.24z"/>
		<path class="st0" d="M513.74,408.7c-5.1,0-9.72-1.03-13.87-3.1c-4.15-2.07-7.71-4.81-10.69-8.24c-2.98-3.42-5.28-7.34-6.91-11.75
			c-1.63-4.41-2.45-8.91-2.45-13.53c0-4.81,0.87-9.42,2.6-13.83c1.73-4.41,4.12-8.3,7.16-11.7c3.04-3.39,6.65-6.08,10.83-8.09
			c4.18-2,8.73-3,13.63-3c5.03,0,9.62,1.07,13.78,3.2c4.15,2.14,7.7,4.93,10.64,8.39c2.94,3.46,5.23,7.39,6.86,11.8
			c1.63,4.41,2.45,8.88,2.45,13.42c0,4.81-0.85,9.41-2.55,13.78c-1.7,4.37-4.05,8.24-7.06,11.59c-3.01,3.36-6.6,6.03-10.79,8.03
			C523.19,407.7,518.64,408.7,513.74,408.7z M493.54,372.09c0,3.12,0.46,6.14,1.37,9.05c0.91,2.92,2.24,5.49,3.97,7.73
			c1.73,2.24,3.86,4.03,6.37,5.39c2.52,1.36,5.38,2.03,8.58,2.03c3.27,0,6.16-0.69,8.68-2.09c2.52-1.39,4.64-3.24,6.37-5.54
			c1.73-2.3,3.04-4.9,3.92-7.78c0.88-2.88,1.32-5.81,1.32-8.8c0-3.12-0.47-6.13-1.42-9.05c-0.95-2.91-2.29-5.49-4.02-7.73
			c-1.73-2.24-3.86-4.02-6.37-5.34c-2.52-1.32-5.34-1.98-8.48-1.98c-3.27,0-6.18,0.7-8.73,2.08c-2.55,1.39-4.67,3.22-6.37,5.49
			c-1.7,2.27-2.99,4.85-3.87,7.73C493.98,366.17,493.54,369.1,493.54,372.09z"/>
		<path class="st0" d="M615.12,408.19v-47.8l-17.94,35.59h-7.35l-17.94-35.59v47.8h-13.53v-72.2h14.51l20.59,41.09l20.79-41.09
			h14.41v72.2H615.12z"/>
	</g>
</g>
</svg>
