<?xml version="1.0" encoding="utf-8"?>
<!-- Generator: Adobe Illustrator 23.0.4, SVG Export Plug-In . SVG Version: 6.00 Build 0)  -->
<svg version="1.1" id="Layer_1" xmlns="http://www.w3.org/2000/svg" xmlns:xlink="http://www.w3.org/1999/xlink" x="0px" y="0px"
	 viewBox="0 0 225.33 226.67" style="enable-background:new 0 0 225.33 226.67;" xml:space="preserve">
<style type="text/css">
	.st0{clip-path:url(#SVGID_2_);fill:#7EA831;}
	.st1{clip-path:url(#SVGID_2_);fill:#B61D8D;}
	.st2{clip-path:url(#SVGID_2_);fill:#0080B8;}
	.st3{clip-path:url(#SVGID_2_);fill:#77787B;}
</style>
<g>
	<defs>
		<rect id="SVGID_1_" y="33" width="225.33" height="160.67"/>
	</defs>
	<clipPath id="SVGID_2_">
		<use xlink:href="#SVGID_1_"  style="overflow:visible;"/>
	</clipPath>
	<path class="st0" d="M60.8,118.33v-0.11c0-2.9-2.1-4.37-5.62-4.37h-3.64v8.86h3.58C58.53,122.7,60.8,121.17,60.8,118.33"/>
	<path class="st0" d="M81.25,103.21h8.78l-13.04-28.5L27.76,97.25l10.49,22.92v-16.96h17.9c10.57,0,17.78,4.72,17.78,14.15v0.11
		c0,9.6-7.33,14.71-18.07,14.71h-4.32v13.72l29.71-13.6V103.21z"/>
	<path class="st1" d="M103.8,118.33v-0.11c0-2.9-2.1-4.37-5.62-4.37h-3.64v8.86h3.58C101.53,122.7,103.8,121.17,103.8,118.33"/>
	<path class="st1" d="M116.74,119.87c-1.14,8.05-8.08,12.32-17.88,12.32h-4.32v13.79H81.25v-30.07c-5.66,4.6-9.28,11.61-9.28,19.47
		c0,13.85,11.23,25.08,25.08,25.08c13.85,0,25.08-11.23,25.08-25.08C122.13,129.53,120.11,124.14,116.74,119.87"/>
	<polygon class="st2" points="105.91,98.03 126.83,125.84 118.35,103.21 133.23,103.21 140.96,125.54 148.69,103.21 163.34,103.21 
		147.21,146.27 142.2,146.27 148.91,155.19 177.5,89.03 	"/>
	<path class="st3" d="M95.99,82.21l1.44-0.18l0.68,5.31l0.05-0.01c0.24-0.46,0.48-0.89,0.71-1.29l2.83-4.56l1.75-0.23l-3.37,5.18
		l5.11,5.78l-1.68,0.21l-4.32-4.94l-0.89,1.34l0.54,4.19l-1.44,0.19L95.99,82.21z"/>
	<path class="st3" d="M106.25,92.08l-1.41-11l1.58-0.2l4.22,5.1c0.97,1.2,1.77,2.28,2.44,3.34l0.03-0.02
		c-0.32-1.45-0.52-2.79-0.74-4.49l-0.6-4.62l1.34-0.17l1.41,11.01l-1.44,0.19l-4.21-5.14c-0.93-1.12-1.82-2.29-2.53-3.41l-0.05,0.02
		c0.26,1.38,0.46,2.7,0.7,4.52l0.6,4.7L106.25,92.08z"/>
	<path class="st3" d="M125.7,83.97c0.47,3.66-1.6,6-4.38,6.36c-2.97,0.38-5.25-1.7-5.67-4.98c-0.44-3.38,1.37-6.02,4.4-6.41
		C123.19,78.53,125.3,80.78,125.7,83.97 M117.17,85.1c0.32,2.5,1.85,4.34,4.09,4.06c2.32-0.3,3.26-2.56,2.95-4.96
		c-0.29-2.25-1.68-4.4-4.1-4.09C117.83,80.4,116.85,82.62,117.17,85.1"/>
	<path class="st3" d="M130.04,89.02l-4.21-10.65l1.52-0.19l2.02,5.4c0.5,1.33,0.97,2.66,1.31,3.7l0.03,0
		c0.02-1.11,0.21-2.48,0.41-3.94l0.76-5.74l1.49-0.19l2.06,5.41c0.48,1.27,0.94,2.53,1.25,3.67l0.03-0.01
		c0.07-1.24,0.22-2.52,0.38-3.92l0.74-5.74l1.47-0.19l-1.7,11.41l-1.5,0.19l-2.11-5.56c-0.52-1.36-0.89-2.41-1.18-3.5l-0.03,0
		c-0.06,1.12-0.18,2.23-0.39,3.7l-0.82,5.93L130.04,89.02z"/>
	<polygon class="st3" points="140.63,76.47 142.07,76.29 143.33,86.08 148.03,85.48 148.19,86.69 142.05,87.48 	"/>
	<polygon class="st3" points="154.79,80.59 150.53,81.14 151.04,85.13 155.81,84.51 155.96,85.69 149.75,86.49 148.34,75.48 
		154.3,74.71 154.45,75.89 149.93,76.47 150.38,79.97 154.64,79.42 	"/>
	<path class="st3" d="M156.37,74.6c0.86-0.24,1.88-0.47,3.01-0.62c2.04-0.26,3.55,0.03,4.63,0.8c1.1,0.77,1.83,1.99,2.06,3.75
		c0.23,1.8-0.14,3.32-1.03,4.48c-0.91,1.16-2.52,1.93-4.66,2.21c-1.01,0.13-1.87,0.19-2.61,0.2L156.37,74.6z M159.06,84.14
		c0.37,0.02,0.89-0.03,1.45-0.1c3.04-0.39,4.47-2.3,4.09-5.27c-0.32-2.6-2-4.06-5-3.67c-0.73,0.1-1.28,0.25-1.65,0.36L159.06,84.14z
		"/>
	<path class="st3" d="M176.97,82.49c-0.61,0.31-1.82,0.85-3.3,1.04c-1.67,0.22-3.09-0.03-4.3-0.92c-1.07-0.79-1.84-2.19-2.06-3.9
		c-0.4-3.27,1.54-5.97,5.23-6.45c1.27-0.17,2.32,0,2.81,0.15l-0.19,1.2c-0.62-0.19-1.38-0.31-2.49-0.16
		c-2.68,0.34-4.21,2.24-3.86,4.99c0.36,2.79,2.24,4.23,4.82,3.9c0.93-0.12,1.55-0.33,1.85-0.54l-0.42-3.28l-2.24,0.29l-0.15-1.14
		l3.62-0.47L176.97,82.49z"/>
	<polygon class="st3" points="184.22,76.81 179.96,77.36 180.47,81.34 185.24,80.73 185.39,81.91 179.18,82.7 177.77,71.7 
		183.73,70.93 183.88,72.11 179.36,72.69 179.81,76.18 184.07,75.63 	"/>
	<path class="st3" d="M163.49,163.78l-10.19-4.39l0.63-1.46l6.54-1.04c1.53-0.22,2.87-0.36,4.12-0.4l0-0.04
		c-1.41-0.46-2.67-0.97-4.24-1.65l-4.28-1.84l0.53-1.24l10.19,4.39l-0.57,1.33l-6.57,1.01c-1.44,0.22-2.9,0.4-4.22,0.44l-0.01,0.05
		c1.32,0.48,2.56,0.98,4.25,1.71l4.35,1.88L163.49,163.78z"/>
	<polygon class="st3" points="165.27,146.5 163.57,150.45 167.26,152.04 169.16,147.62 170.25,148.09 167.78,153.83 157.59,149.44 
		159.97,143.92 161.05,144.39 159.25,148.58 162.48,149.98 164.18,146.03 	"/>
	<polygon class="st3" points="162.85,140.31 161.51,143.41 160.39,142.93 163.65,135.38 164.76,135.87 163.42,138.98 172.49,142.89 
		171.92,144.22 	"/>
	<path class="st3" d="M175.29,136.39l-11.3-1.81l0.61-1.4l5.68,1.01c1.4,0.24,2.79,0.52,3.85,0.76l0.01-0.03
		c-0.95-0.59-2.03-1.45-3.18-2.36l-4.55-3.58l0.59-1.38l5.71,0.99c1.33,0.23,2.66,0.48,3.8,0.79l0.01-0.03
		c-1.03-0.7-2.06-1.48-3.18-2.32l-4.56-3.56l0.59-1.36l8.94,7.28l-0.6,1.39l-5.85-1.02c-1.44-0.24-2.52-0.46-3.61-0.77l-0.01,0.03
		c0.93,0.62,1.83,1.29,2.99,2.22l4.69,3.72L175.29,136.39z"/>
	<path class="st3" d="M178.74,114.35c3.39,1.46,4.35,4.44,3.24,7.01c-1.18,2.75-4.14,3.65-7.18,2.34c-3.13-1.35-4.48-4.24-3.27-7.06
		C172.78,113.73,175.79,113.07,178.74,114.35 M175.36,122.27c2.31,1,4.68,0.62,5.57-1.45c0.93-2.15-0.54-4.11-2.76-5.06
		c-2.09-0.9-4.64-0.8-5.61,1.44C171.65,119.3,173.07,121.27,175.36,122.27"/>
	<path class="st3" d="M174.53,110.52c0.16-0.74,0.49-1.72,0.88-2.63c0.61-1.41,1.25-2.2,2.1-2.59c0.67-0.3,1.49-0.31,2.28,0.03
		c1.34,0.58,1.87,1.81,1.77,3.04l0.03,0.01c0.62-0.66,1.57-0.81,2.72-0.6c1.58,0.29,2.65,0.46,3.14,0.42l-0.59,1.36
		c-0.36,0.04-1.33-0.11-2.73-0.37c-1.52-0.3-2.3,0.01-2.86,1.19l-0.53,1.24l4.41,1.9l-0.57,1.33L174.53,110.52z M179.74,111.19
		l0.58-1.35c0.61-1.41,0.22-2.63-0.94-3.13c-1.33-0.57-2.3,0.14-2.92,1.52c-0.28,0.65-0.41,1.11-0.44,1.35L179.74,111.19z"/>
	<path class="st3" d="M177.89,102.33l0.57-1.33l4.91,2.12l0.02-0.05c-0.27-0.44-0.52-0.87-0.74-1.27l-2.48-4.76l0.7-1.62l2.74,5.54
		l7.58-1.45l-0.67,1.56l-6.45,1.2l0.7,1.45l3.89,1.67l-0.58,1.33L177.89,102.33z"/>
	<path class="st3" d="M189.94,98.01c0.62-0.43,1.29-1.16,1.68-2.07c0.58-1.35,0.21-2.44-0.82-2.88c-0.95-0.41-1.73-0.1-2.86,1.06
		c-1.29,1.4-2.62,2.04-4.04,1.43c-1.57-0.68-2.19-2.5-1.33-4.48c0.44-1.03,1.02-1.69,1.46-2.04l0.91,0.83
		c-0.32,0.25-0.92,0.81-1.32,1.73c-0.6,1.39,0,2.28,0.7,2.58c0.95,0.41,1.69-0.01,2.84-1.18c1.43-1.43,2.62-1.96,4.11-1.31
		c1.57,0.68,2.45,2.44,1.41,4.84c-0.43,1-1.19,1.94-1.79,2.33L189.94,98.01z"/>
</g>
</svg>
