<?xml version="1.0" encoding="utf-8"?>
<!-- Generator: Adobe Illustrator 23.0.4, SVG Export Plug-In . SVG Version: 6.00 Build 0)  -->
<svg version="1.1" id="Layer_1" xmlns="http://www.w3.org/2000/svg" xmlns:xlink="http://www.w3.org/1999/xlink" x="0px" y="0px"
	 viewBox="0 0 175.6 176.2" style="enable-background:new 0 0 175.6 176.2;" xml:space="preserve">
<g>
	<path d="M140.1,72.8h-105v24h105l-7.5-12.3L140.1,72.8z M137.3,95.2H36.7V74.4h100.6l-6.4,10.1L137.3,95.2z"/>
	<path d="M59,88.8c-1,0-2-0.5-2.7-1.2s-1.1-1.7-1.1-2.8c0-1.1,0.4-2.1,1.1-2.8c0.7-0.7,1.6-1.2,2.7-1.2c1.6,0,2.9,0.8,3.5,2.5h1.6
		c-0.6-2.5-2.6-4-5-4c-1.5,0-2.8,0.6-3.7,1.6c-0.9,1-1.5,2.4-1.5,3.9s0.6,2.9,1.5,3.9c0.9,1,2.3,1.6,3.7,1.6c2.5,0,4.5-1.7,5.1-4.2
		h-1.5C62.1,87.9,60.7,88.8,59,88.8z"/>
	<polygon points="67.1,81 69.1,81 69.1,88.8 67.1,88.8 67.1,90.3 72.7,90.3 72.7,88.8 70.7,88.8 70.7,81 72.7,81 72.7,79.4 
		67.1,79.4 	"/>
	<path d="M49.1,84.3c1.1-0.8,1.2-2,0.8-3.1c-0.4-1-1.3-1.8-2.6-1.8h-4.6v10.9h4.9c2.1,0,3.1-1.6,3.1-3.3
		C50.8,86,50.3,84.9,49.1,84.3z M44.3,80.9h3c1.7,0,1.7,2.8,0,2.8h-3V80.9z M47.6,88.8h-3.3v-3.5h3.3c1.1,0,1.6,0.9,1.6,1.7
		C49.2,87.9,48.7,88.8,47.6,88.8z"/>
	<path d="M76.7,88.5c-0.5,0-0.9,0.4-0.9,1c0,0.5,0.4,1,0.9,1c0.6,0,1-0.5,1-1C77.7,88.8,77.3,88.5,76.7,88.5z"/>
	<path d="M113.4,79.3c-1.5,0-2.9,0.6-3.9,1.7c-1,1-1.6,2.4-1.6,3.9s0.6,2.9,1.6,3.9s2.4,1.6,3.9,1.6s2.9-0.6,3.9-1.6
		s1.6-2.4,1.6-3.9s-0.6-2.9-1.6-3.9C116.3,79.9,114.9,79.3,113.4,79.3z M116.2,87.7c-0.7,0.7-1.7,1.2-2.8,1.2
		c-1.1,0-2.1-0.5-2.8-1.2c-0.7-0.7-1.2-1.7-1.2-2.8c0-1.1,0.4-2.1,1.2-2.8c0.7-0.7,1.7-1.2,2.8-1.2c1.1,0,2.1,0.5,2.8,1.2
		c0.7,0.7,1.1,1.7,1.1,2.8C117.3,86,116.9,87,116.2,87.7z"/>
	<polygon points="121.6,81 123.6,81 123.6,88.8 121.6,88.8 121.6,90.3 127.2,90.3 127.2,88.8 125.2,88.8 125.2,81 127.2,81 
		127.2,79.4 121.6,79.4 	"/>
	<path d="M103.3,84.3c1.1-0.8,1.2-2,0.8-3.1c-0.4-1-1.3-1.8-2.6-1.8H97v10.9h4.9c2.1,0,3.1-1.6,3.1-3.3
		C105,86,104.5,84.9,103.3,84.3z M98.5,80.9h3c1.7,0,1.7,2.8,0,2.8h-2.9L98.5,80.9L98.5,80.9z M101.8,88.8h-3.3v-3.5h3.3
		c1.1,0,1.6,0.9,1.6,1.7C103.4,87.9,102.9,88.8,101.8,88.8z"/>
	<path d="M88.5,88.8c-1,0-2-0.5-2.7-1.2c-0.7-0.7-1.1-1.7-1.1-2.8c0-1.1,0.4-2.1,1.1-2.8c0.7-0.7,1.6-1.2,2.7-1.2
		c1.6,0,2.9,0.8,3.5,2.5h1.5c-0.6-2.5-2.6-4-5-4c-1.5,0-2.8,0.6-3.7,1.6c-0.9,1-1.5,2.4-1.5,3.9s0.6,2.9,1.5,3.9s2.3,1.6,3.7,1.6
		c2.5,0,4.5-1.7,5.1-4.2h-1.5C91.6,87.9,90.2,88.8,88.5,88.8z"/>
	<rect x="124.9" y="76.9" width="1.7" height="1.4"/>
	<rect x="122.2" y="76.9" width="1.7" height="1.4"/>
</g>
</svg>
